<?xml version="1.0" standalone="no"?>
<!DOCTYPE svg PUBLIC "-//W3C//DTD SVG 1.1//EN" "http://www.w3.org/Graphics/SVG/1.1/DTD/svg11.dtd" >
<svg>
<metadata>
Created by FontForge 20090622 at Tue Aug 30 20:35:46 2016
 By deploy user
&#194;&#169; 2006 Microsoft Corporation. All rights reserved.
</metadata>
<defs>
<font id="ComicSansMS-Bold" horiz-adv-x="1250" >
  <font-face 
    font-family="Comic Sans MS"
    font-weight="700"
    font-stretch="normal"
    units-per-em="2048"
    panose-1="3 15 9 2 3 3 2 2 2 4"
    ascent="1638"
    descent="-410"
    x-height="1037"
    cap-height="1567"
    bbox="-229 -621 2518 2257"
    underline-thickness="175"
    underline-position="-185"
    unicode-range="U+0020-U+FB02"
  />
    <missing-glyph />
    <glyph glyph-name="glyph0" horiz-adv-x="1024" 
d="M128 0v1638h768v-1638h-768zM256 128h512v1382h-512v-1382z" />
    <glyph glyph-name="glyph1" horiz-adv-x="0" 
 />
    <glyph glyph-name="glyph2" horiz-adv-x="888" 
 />
    <glyph glyph-name="space" unicode=" " horiz-adv-x="888" 
 />
    <glyph glyph-name="exclam" unicode="!" horiz-adv-x="487" 
d="M242 297q-56 0 -92.5 35t-36.5 88q0 39 -2.5 116.5t-2.5 116.5q0 138 2.5 414t2.5 414q0 53 37 88.5t92 35.5t92 -35.5t37 -88.5v-1061q0 -53 -36.5 -88t-92.5 -35zM239 -66q-60 0 -112 64q-47 59 -47 110q0 52 41 87t93 35q60 0 111 -64q47 -59 47 -109q0 -51 -40.5 -87
t-92.5 -36z" />
    <glyph glyph-name="quotedbl" unicode="&#x22;" horiz-adv-x="896" 
d="M801 1391l-9 -348q-1 -49 -37 -82t-92 -33q-55 0 -92 33q-38 32 -37 82q-1 140 11 406q7 68 40 101.5t93 33.5q55 0 92 -33t37 -82q0 -14 -3 -40t-3 -38zM212 932q-136 0 -136 188q0 59 3 176.5t3 176.5q0 49 37 82t92 33t92 -33t37 -82q0 -57 -3 -170.5t-3 -170.5
q0 -15 5 -44.5t5 -43.5q0 -49 -40 -80.5t-92 -31.5z" />
    <glyph glyph-name="numbersign" unicode="#" horiz-adv-x="1726" 
d="M310 629q98 243 148 386q-45 -1 -119 0q-91 2 -119 2q-56 0 -93.5 34t-37.5 88q0 110 123 123q109 3 326 10l66 186q56 125 117 125q132 0 132 -120q0 -55 -46 -190h357q26 101 70 238q32 100 123 100q52 0 92.5 -34t40.5 -86q0 -30 -58 -216q62 3 90 3q179 0 179 -126
q0 -93 -88 -121q-44 -14 -163 -14q-13 0 -43 1h-43l-129 -389h141q205 0 205 -133q0 -52 -37 -83t-90 -31q-24 0 -146 -1q-88 -1 -145 0q-27 -87 -79 -283q-28 -120 -155 -120q-111 0 -111 105q0 49 78 299h-409q-86 -205 -126 -326q-26 -79 -117 -79q-51 0 -92 34t-41 86
q0 14 103 285h-115q-56 0 -93 46q-33 41 -33 90q0 101 112 111q11 1 225 0zM731 1017l-146 -388h384l124 388h-362z" />
    <glyph glyph-name="dollar" unicode="$" horiz-adv-x="1420" 
d="M587 1153q-164 -62 -164 -154q0 -79 164 -100v254zM802 255q219 76 219 189q0 170 -219 193v-382zM1317 431q0 -189 -161 -313q-132 -102 -354 -148v-250q0 -107 -115 -107q-50 0 -78 38q-22 31 -22 69v221q-39 -2 -76 -2q-201 0 -313 54q-101 48 -101 123q0 143 158 143
q41 0 139 -29.5t127 -29.5q27 0 66 5v441q-175 11 -298 74q-161 82 -161 227q0 165 144 304q128 124 315 183v165q0 117 110 117q105 0 105 -117v-132q113 -7 242 -50q165 -54 165 -124q0 -57 -41 -97t-98 -40q-48 0 -134 19q-91 19 -134 21v-307q14 0 22 -1
q221 -17 349 -124q144 -120 144 -333z" />
    <glyph glyph-name="percent" unicode="%" horiz-adv-x="1680" 
d="M443 992q-159 0 -251 107q-85 97 -85 245q0 112 116 207q110 91 223 91q164 0 261 -105q92 -99 92 -253q0 -136 -117 -219q-103 -73 -239 -73zM1268 1417q-36 -56 -78 -149l-70 -154l-197 -403q-4 -10 -225 -452q-31 -74 -101 -218q-39 -71 -111 -71q-48 0 -87 33t-39 83
q0 53 151 355l184 362l270 571q97 230 200 230q50 0 88.5 -34.5t38.5 -83.5q0 -32 -24 -69zM1260 -20q-152 0 -253 88q-107 92 -107 239q0 155 93 259q100 112 265 112q148 0 262 -80q129 -92 129 -239q0 -161 -109.5 -270t-279.5 -109zM443 1405q-33 0 -61 -20.5t-28 -40.5
q0 -58 22.5 -87t66.5 -29q46 0 77 17.5t31 38.5q0 61 -27 91t-81 30zM1258 442q-55 0 -82.5 -33.5t-27.5 -101.5q0 -45 33.5 -68t100.5 -23q68 0 93.5 31.5t25.5 111.5q0 33 -42.5 58t-100.5 25z" />
    <glyph glyph-name="ampersand" unicode="&#x26;" horiz-adv-x="1340" 
d="M1175 -94q-67 0 -111 66l-90 151q-201 -165 -441 -165q-201 0 -345 119q-153 125 -153 318q0 186 150 323q48 45 314 215q-58 160 -58 281q0 108 92 224q99 126 217 126q136 0 223 -87q83 -83 83 -203q0 -232 -238 -411q70 -142 154 -273l33 157q34 95 114 95
q59 0 95 -55q31 -47 31 -105q0 -186 -98 -357q161 -238 161 -298q0 -52 -41 -86.5t-92 -34.5zM750 1317q-28 -3 -46 -39q-15 -31 -15 -63q0 -14 19 -77q21 -70 22 -77q33 33 64 85q35 58 35 91q0 45 -11 61q-17 24 -68 19zM612 720l-207 -132q-112 -88 -112 -193
q0 -85 72 -139q69 -52 168 -52q168 0 298 128q-61 91 -219 388z" />
    <glyph glyph-name="quotesingle" unicode="'" horiz-adv-x="888" 
d="M569 1391l-9 -348q-1 -49 -37 -82t-92 -33q-55 0 -92 33q-38 32 -37 82q-1 140 11 406q7 68 40 101.5t93 33.5q55 0 92 -33t37 -82q0 -14 -3 -40t-3 -38z" />
    <glyph glyph-name="parenleft" unicode="(" horiz-adv-x="750" 
d="M665 1351l-90 -88q-104 -114 -165 -329q-54 -191 -54 -375q0 -209 50 -385q66 -234 206 -330q126 -88 126 -156q0 -50 -39.5 -85t-89.5 -35q-41 0 -92 27q-446 239 -446 986q0 268 112 542q127 309 335 449q52 34 88 34q55 0 93.5 -39.5t38.5 -90.5q0 -50 -73 -125z" />
    <glyph glyph-name="parenright" unicode=")" horiz-adv-x="750" 
d="M293 -405q-51 -27 -92 -27q-51 0 -90 35t-39 85q0 60 60 108l103 77q219 215 219 686q0 184 -54 375q-61 215 -165 329l-100 98q-64 69 -64 115q0 51 39 90.5t93 39.5q37 0 88 -34q209 -140 335 -449q112 -274 112 -542q0 -747 -445 -986z" />
    <glyph glyph-name="asterisk" unicode="*" horiz-adv-x="1085" 
d="M896 1159q-72 -14 -170 -25q170 -172 170 -235q0 -49 -40 -83.5t-92 -34.5q-55 0 -112 57l-84 99q-40 46 -71 75q-207 -196 -280 -196q-53 0 -92 36t-39 84q0 44 51 93l89 71l45 37q-124 38 -183 62q-81 33 -81 104q0 47 36.5 85t91.5 38q29 0 228 -70q-5 86 -5 121
q0 50 37 83.5t92 33.5t92.5 -33.5t37.5 -83.5q0 -61 3 -112q182 27 257 27q55 0 90.5 -35.5t35.5 -83.5q0 -93 -107 -114z" />
    <glyph glyph-name="plus" unicode="+" 
d="M986 523q-12 0 -35.5 3.5t-36.5 3.5q-27 0 -79.5 -1.5t-80.5 -1.5q1 -34 0 -89q-1 -70 -1 -88q0 -51 -37 -84.5t-92 -33.5t-92 33.5t-37 84.5q0 -13 -2 172q-75 -4 -131 -4q-71 0 -126 26q-69 33 -69 94q0 78 64 102q35 13 131 13q57 0 131 4q0 10 -1 40t-1 49
q0 200 135 200q53 0 92 -32.5t39 -82.5q0 -16 -3.5 -49.5t-3.5 -50.5l1 -70q23 -1 35 -1q20 0 60.5 2t61.5 2q204 0 204 -121q0 -48 -34 -83q-37 -37 -92 -37z" />
    <glyph glyph-name="comma" unicode="," horiz-adv-x="888" 
d="M530 -124l-78 -154q-34 -66 -109 -66q-53 0 -90 33.5t-37 77.5q0 26 64 155q57 114 86 161q37 59 104 59q53 0 90 -34t37 -78q0 -20 -67 -154z" />
    <glyph glyph-name="hyphen" unicode="-" 
d="M874 431q-138 -10 -491 -10q-62 0 -109 28q-55 34 -55 92t55 92q47 29 109 29q79 0 237 4.5t237 4.5q62 0 109 -25q60 -32 60 -95q0 -109 -152 -120z" />
    <glyph glyph-name="period" unicode="." horiz-adv-x="888" 
d="M441 -104q-67 0 -116 41.5t-49 93.5q0 53 49 95.5t116 42.5q71 0 117 -40t46 -98q0 -53 -48 -94t-115 -41z" />
    <glyph glyph-name="slash" unicode="/" horiz-adv-x="1048" 
d="M998 1438q-39 -84 -113 -260q-68 -177 -192 -410l-218 -397q-21 -40 -181 -382q-37 -79 -117 -79q-52 0 -91 33q-42 36 -42 88q0 23 9 46q79 205 295 591.5t295 593.5q60 157 89 213q78 153 147 151q51 -2 90 -35q42 -36 42 -87q0 -31 -13 -66z" />
    <glyph glyph-name="zero" unicode="0" 
d="M611 -39q-331 0 -480 286q-110 212 -110 547q0 286 145 502q174 259 476 259q286 0 444 -231q133 -195 133 -471q0 -446 -152 -669t-456 -223zM641 1295q-162 0 -260 -161q-86 -140 -86 -325q0 -244 46 -376q74 -213 270 -213q164 0 246 149.5t82 448.5q0 239 -74.5 358
t-223.5 119z" />
    <glyph glyph-name="one" unicode="1" 
d="M822 -1l-397 1q-189 0 -189 119q0 134 211 134q20 0 44 -1v887q-87 -60 -113 -60q-56 0 -97.5 40t-41.5 93q0 55 67 113l113 82l122 98q75 54 145 54q90 0 90 -108q0 -119 -10 -335t-10 -617v-242h66q58 0 97.5 -37t39.5 -92t-39.5 -92t-97.5 -37z" />
    <glyph glyph-name="two" unicode="2" 
d="M1008 -2q-25 0 -77.5 8.5t-75.5 8.5l-294 1q-38 0 -115 -9.5t-116 -9.5q-11 0 -32 4t-32 4q-90 0 -122 73q-20 46 -20 142q0 187 83 313q64 97 207 194l269 177q158 115 158 261q0 38 -63 75.5t-123 37.5q-106 0 -224.5 -94.5t-162.5 -94.5q-53 0 -93 26q-50 32 -50 89
q0 61 50 105q121 107 211 156q130 71 269 71q173 0 312 -91q159 -104 159 -272q0 -170 -78 -289q-61 -95 -193 -185l-250 -157q-190 -124 -204 -283q55 7 162 16q213 11 305 11q86 0 170 -37q104 -46 104 -118q0 -52 -37 -91q-39 -42 -97 -42z" />
    <glyph glyph-name="three" unicode="3" 
d="M917 810q206 -115 206 -368q0 -204 -151 -346t-367 -142q-161 0 -290 65q-149 76 -201 216q-8 21 -8 45q0 56 45 93q42 34 96 34q63 0 101 -50q64 -86 74 -94q62 -50 183 -50q95 0 166.5 57t71.5 137q0 249 -335 282q-147 14 -147 123q0 83 114 121l215 49q68 21 102 55
t35 81q4 149 -233 149q-78 0 -171 -59.5t-127 -59.5q-57 0 -97 41t-40 93q0 85 168 169q150 75 244 75q227 0 365 -98q151 -108 151 -308q0 -110 -42.5 -187.5t-127.5 -122.5z" />
    <glyph glyph-name="four" unicode="4" 
d="M728 413h-399q-321 0 -321 131q0 55 56 123l93 105l491 684q78 104 203 104q59 0 102 -30q51 -36 51 -101l1 -752q131 -4 175 -27q49 -27 49 -106q1 -83 -76 -114q-54 -21 -148 -17q3 -144 -1 -312q-1 -55 -36 -91t-95 -36q-152 0 -145 200v239zM728 1126
q-97 -153 -299 -449h299v449z" />
    <glyph glyph-name="five" unicode="5" 
d="M562 -63q-306 0 -451 218q-25 38 -25 73q0 54 43 92t98 38q56 0 96 -42q70 -73 76 -78q59 -42 163 -42q154 0 257 113q99 109 99 264q0 149 -49.5 223t-149.5 74q-176 0 -283 -114l-85 -95q-54 -51 -115 -51q-57 0 -96.5 39t-39.5 92q0 23 17 174q33 293 33 390
q0 24 -17.5 66t-17.5 66q0 50 51 76q40 20 94 20q20 0 60.5 -3.5t60.5 -3.5l481 -1q18 0 77 6t78 6q54 0 89 -34.5t35 -88.5q0 -149 -303 -149q-24 0 -60.5 1t-48.5 1h-298q-3 -61 -25 -202q131 64 313 64q243 0 369 -181q105 -149 105 -375q0 -272 -168 -450
q-175 -186 -463 -186z" />
    <glyph glyph-name="six" unicode="6" 
d="M616 -72q-283 0 -418 200q-108 160 -108 420q0 487 414 844l104 99q73 65 121 65q55 0 97 -37.5t44 -90.5q2 -50 -114 -161l-165 -151q-92 -90 -133 -176q54 21 100.5 31t85.5 10q250 0 387 -130.5t137 -363.5q0 -242 -145 -397q-153 -162 -407 -162zM616 711
q-74 0 -133 -24q-31 -13 -114 -63q-4 -41 -4 -76q0 -189 64 -283.5t192 -94.5q131 0 203 88q69 84 69 229q0 112 -69 168t-208 56z" />
    <glyph glyph-name="seven" unicode="7" 
d="M807 1234q-112 1 -417 9q-76 0 -227 7q-133 11 -133 129q0 55 40 92t98 37q126 0 378.5 -7.5t378.5 -7.5h183q54 0 95 -21q51 -26 51 -77q0 -55 -60 -131l-101 -112q-127 -141 -235 -346q-34 -64 -179 -375q-19 -41 -85 -224q-50 -138 -102 -216q-40 -57 -111 -57
q-55 0 -98 37t-43 92q0 43 67 200l215 504q138 294 285 467z" />
    <glyph glyph-name="eight" unicode="8" 
d="M614 -54q-222 0 -364 94q-165 110 -168 321q-5 295 194 423q-145 115 -145 289q0 197 150 327q143 124 345 126q239 2 358 -127q102 -112 102 -306q0 -109 -39 -175q-35 -59 -117 -107q122 -68 175 -158q61 -100 61 -263q0 -214 -167 -335q-151 -109 -385 -109zM623 1280
q-219 0 -217 -206q1 -103 189 -151q105 29 145 53q71 43 71 117q0 112 -48 153q-40 34 -140 34zM608 674q-144 -63 -190 -111q-67 -67 -63 -191q3 -97 94 -146q71 -38 165 -38q157 0 216 66q46 52 46 166q0 103 -81 167q-61 48 -187 87z" />
    <glyph glyph-name="nine" unicode="9" 
d="M790 542q-61 -21 -111.5 -31.5t-90.5 -10.5q-201 0 -351 108q-184 132 -184 377q0 284 188 429q158 122 411 122q201 0 358 -155q165 -162 166 -392q1 -250 -97 -485q-106 -255 -290 -385q-77 -54 -241 -129q-188 -85 -266 -85q-59 0 -98 42q-36 39 -36 91q0 80 96 122
l164 53q146 56 229.5 127.5t152.5 201.5zM623 1297q-148 0 -222 -73.5t-75 -221.5q0 -120 87 -187q79 -60 204 -60q50 0 118.5 31t155.5 93q10 70 10 110q-1 105 -95 208q-93 100 -183 100z" />
    <glyph glyph-name="colon" unicode=":" horiz-adv-x="888" 
d="M454 800q-62 0 -102.5 37t-40.5 94q0 11 -4.5 34t-4.5 35q0 56 42.5 92.5t101.5 36.5q150 0 150 -198q0 -57 -40.5 -94t-101.5 -37zM470 123q-155 0 -155 234q0 56 45 94q43 35 101 35q152 0 152 -231q0 -57 -41 -94.5t-102 -37.5z" />
    <glyph glyph-name="semicolon" unicode=";" horiz-adv-x="888" 
d="M482 788q-61 0 -101.5 38.5t-40.5 96.5q0 12 -5 34.5t-5 34.5q0 57 44 95q41 37 100 37q150 0 150 -201q0 -58 -40.5 -96.5t-101.5 -38.5zM540 17q-30 -33 -40 -46q-26 -33 -28 -52q-15 -113 -128 -113q-60 0 -95 36.5t-35 90.5q0 71 93 201q100 141 180 141q52 0 92 -36
t40 -86q0 -48 -79 -136z" />
    <glyph glyph-name="semicolon" unicode="&#x37e;" horiz-adv-x="888" 
d="M482 788q-61 0 -101.5 38.5t-40.5 96.5q0 12 -5 34.5t-5 34.5q0 57 44 95q41 37 100 37q150 0 150 -201q0 -58 -40.5 -96.5t-101.5 -38.5zM540 17q-30 -33 -40 -46q-26 -33 -28 -52q-15 -113 -128 -113q-60 0 -95 36.5t-35 90.5q0 71 93 201q100 141 180 141q52 0 92 -36
t40 -86q0 -48 -79 -136z" />
    <glyph glyph-name="less" unicode="&#x3c;" 
d="M885 856q-85 -83 -263 -240q75 -73 233 -211q50 -40 50 -90q0 -48 -38.5 -84.5t-91.5 -36.5q-56 0 -140 71l-116 112q-93 89 -178 119q-101 35 -101 111q0 69 90 108.5t200 145.5q150 146 181 169q41 31 86 31q53 0 91.5 -36t38.5 -84q0 -47 -42 -85z" />
    <glyph glyph-name="equal" unicode="=" 
d="M921 766h-468q-23 0 -68 -2t-68 -2q-56 0 -92 34t-36 83q0 121 198 121q12 0 36 -1h31l467 -1q56 0 92.5 -33t36.5 -83t-36.5 -83t-92.5 -33zM907 278q-66 0 -198 2.5t-198 2.5q-30 0 -89.5 -3.5t-89.5 -3.5q-57 0 -94.5 32t-37.5 84q0 108 123 116q105 7 188 7
q66 0 198 -2.5t198 -2.5q56 0 92.5 -33t36.5 -83t-36.5 -83t-92.5 -33z" />
    <glyph glyph-name="greater" unicode="&#x3e;" 
d="M1000 570q-241 -207 -504 -362q-37 -22 -74 -22q-54 0 -91.5 37t-37.5 85q0 55 54 94l347 242q-115 83 -221 184q-134 126 -134 177q0 49 40.5 84.5t92.5 35.5q54 0 97 -44q224 -230 401 -315q81 -39 81 -103q0 -49 -51 -93z" />
    <glyph glyph-name="question" unicode="?" horiz-adv-x="1159" 
d="M868 647l-165 -116q-101 -70 -154 -129q-48 -53 -106 -53q-57 0 -100 41.5t-43 95.5q0 80 129 179l238 169q129 98 129 177q0 93 -94.5 174.5t-196.5 81.5q-54 0 -148 -61.5t-133 -61.5q-59 0 -99.5 43.5t-40.5 96.5q0 100 175 183q148 71 246 71q217 0 392.5 -160
t175.5 -367q0 -205 -205 -364zM388 -72q-57 0 -104 36q-51 40 -51 99q0 68 40 126q48 71 129 71q68 0 106 -51q30 -42 30 -99q0 -61 -33 -114q-42 -68 -117 -68z" />
    <glyph glyph-name="at" unicode="@" horiz-adv-x="1907" 
d="M1306 388q-69 0 -138.5 33.5t-139.5 99.5q-42 -45 -109 -80q-72 -38 -126 -38q-126 0 -237 97.5t-111 218.5q0 192 155 348q159 159 361 159q120 0 120 -101q0 -75 -92 -115q-166 -71 -171 -74q-92 -64 -92 -196q0 -14 17 -36q21 -27 49 -28q71 -2 122 68l78 130
q49 70 112 70q104 0 104 -121q0 -19 -6.5 -57.5t-6.5 -58.5q0 -37 40 -45q7 -1 71 -1q117 0 161 50q41 47 41 166q0 216 -181 353q-169 127 -406 127q-270 0 -424 -195q-141 -177 -141 -449q0 -247 164 -416q171 -175 439 -175q97 0 344 89q53 19 71 19q59 0 100 -43.5
t41 -98.5q0 -101 -229 -171q-183 -57 -325 -57q-370 0 -627 240q-264 245 -264 613q0 380 220 639q238 278 631 278q352 0 604 -203q268 -216 268 -550q0 -229 -121 -356q-126 -133 -366 -133z" />
    <glyph glyph-name="A" unicode="A" horiz-adv-x="1498" 
d="M1250 -30q-79 3 -159 186q-53 118 -91 272q-74 -11 -242 -22q-158 -11 -242 -26q-46 -110 -160 -331q-44 -72 -122 -72q-55 0 -99 37.5t-44 95.5q0 51 146 346q-14 31 -12 58q4 48 97 75q142 246 316 510q250 379 308 379q110 0 147 -133l63 -321q61 -288 149 -659
q7 -28 51 -132q36 -86 36 -129q0 -58 -43.5 -97t-98.5 -37zM877 996l-215 -365q45 10 140 16q112 7 141 11q-24 130 -66 338z" />
    <glyph glyph-name="B" unicode="B" horiz-adv-x="1291" 
d="M884 39q-233 -87 -589 -87q-60 0 -107.5 50t-47.5 107v1060q-3 68 -5 136q-3 77 5 130q14 94 175 114q76 22 252 22q189 0 362 -122q203 -142 203 -355q0 -115 -42 -194q-33 -64 -115 -137q97 -47 172 -142q85 -106 85 -211q0 -133 -145 -252q-97 -79 -203 -119z
M567 1300q-129 0 -155 -2l1 -212l-1 -210q91 -11 137 -7q306 24 306 225q0 71 -90 137q-93 69 -198 69zM684 593q-91 0 -272 7v-374q172 9 373 66q176 50 174 108q-3 77 -113 137q-86 48 -162 56z" />
    <glyph glyph-name="C" unicode="C" horiz-adv-x="1267" 
d="M1104 1065q-90 0 -133 95q-20 45 -40 54q-15 7 -79 7q-126 0 -291 -196q-231 -274 -231 -513q0 -109 73 -187t175 -78q99 0 201 52q36 19 152 98q78 52 118 52q60 0 102 -44q39 -41 39 -94q0 -59 -52 -103q-275 -232 -560 -232q-225 0 -380 164q-148 158 -148 372
q0 335 293 684q249 296 509 296q44 0 79.5 -3t62.5 -9q44 43 106 43q102 0 126 -117q17 -84 17 -196q0 -50 -29 -91q-38 -54 -110 -54z" />
    <glyph glyph-name="D" unicode="D" horiz-adv-x="1478" 
d="M282 -10q-59 1 -99 40.5t-40 95.5q0 100 9.5 300t9.5 300q0 111 -4.5 333t-4.5 333q0 55 53 109.5t113 54.5q33 0 166 -62q155 -74 184 -83q293 -95 500 -294q247 -237 247 -524q0 -173 -85 -329q-85 -159 -233 -255q-166 -108 -467 -108q-73 0 -168 21q-115 26 -181 68z
M844 1018q-97 61 -416 192v-990q39 -25 89.5 -37.5t112.5 -12.5q216 0 310 60q89 57 141.5 155t52.5 204q0 248 -290 429z" />
    <glyph glyph-name="E" unicode="E" horiz-adv-x="1279" 
d="M1109 1282q-20 0 -42 6q-162 44 -315 44q-75 0 -161 -12t-183 -36q0 -133 -9 -395q56 4 391 37q191 19 242 19q59 0 101 -37.5t42 -99.5q0 -119 -127 -135q-80 -6 -239 -20q-142 -16 -428 -39q-7 -127 -7 -205q0 -196 23 -223q11 -13 126 -13q62 0 187 3t187 3q20 0 59 6
t58 6q58 0 99 -33q47 -37 47 -104q0 -112 -117 -134q-100 -19 -415 -19q-326 0 -425 88q-109 97 -109 420q0 134 19.5 402.5t19.5 401.5q0 35 -10 103.5t-10 103.5q0 152 140 152q44 0 81 -25q116 29 220.5 43.5t197.5 14.5q252 0 403 -58q92 -35 92 -127q0 -52 -36 -92
q-40 -46 -102 -46z" />
    <glyph glyph-name="F" unicode="F" horiz-adv-x="1243" 
d="M1056 1250q-23 0 -51 9q-129 42 -315 42q-61 0 -140.5 -8t-176.5 -24q2 -192 0 -330q152 37 252 37q186 0 324 -17q129 -16 129 -136q0 -58 -41 -97t-100 -39q-52 0 -156 8t-156 8q-73 0 -252 -46v-627q0 -58 -45.5 -97t-104.5 -39q-58 0 -94 38.5t-36 97.5v1146
q0 39 1.5 118t1.5 118q0 59 39.5 98t99.5 39q38 0 67 -15q116 20 213 29.5t175 9.5q114 0 287 -47q217 -59 217 -137q0 -57 -40.5 -98t-97.5 -41z" />
    <glyph glyph-name="G" unicode="G" horiz-adv-x="1392" 
d="M1335 588q-68 -298 -274 -477q-209 -180 -490 -180q-266 0 -399 140.5t-133 421.5q0 256 126 525t324 436q139 117 298 117q97 0 264 -70q198 -83 198 -177q0 -54 -41 -96.5t-101 -42.5q-30 0 -132.5 56.5t-187.5 56.5q-90 0 -243 -194q-223 -282 -223 -611
q0 -167 49 -227q52 -63 201 -63q153 0 269 87q123 92 182 268q-232 -18 -404 -95q-31 -14 -62 -14q-62 0 -103 46q-37 41 -37 93q0 153 362 214q204 34 476 34q60 0 100.5 -39t40.5 -96q0 -73 -60 -113z" />
    <glyph glyph-name="H" unicode="H" horiz-adv-x="1573" 
d="M1501 1387q-20 -73 -20 -127q0 -28 -5.5 -86.5t-5.5 -86.5q0 -95 -10 -282t-10 -282q0 -73 11 -218t11 -218q0 -55 -39 -93t-97 -38q-59 0 -102 37.5t-43 91.5q0 73 -6.5 219t-6.5 219q0 57 2 101q-157 -7 -388 -49l-384 -71q-2 -68 -14 -227q-10 -140 -10 -229
q0 -55 -39 -93t-97 -38t-97 38t-39 93q0 101 17.5 302t17.5 302q0 128 6 385.5t6 385.5q0 55 39 93t97 38t97 -38t39 -93q0 -76 -5.5 -228.5t-5.5 -228.5q0 -25 -7 -96q-6 -66 -5 -101l384 72q225 40 388 46q4 67 13 360q2 77 47 177q56 123 127 123q53 0 94 -35
q44 -38 44 -95q0 -15 -4 -30z" />
    <glyph glyph-name="I" unicode="I" horiz-adv-x="1119" 
d="M957 1182q-52 0 -285 28q-14 -184 -14 -489l-1 -449q133 3 271 3q60 0 99.5 -40t39.5 -96t-39.5 -95.5t-99.5 -39.5q-56 0 -168 -2.5t-168 -2.5q-66 0 -198 -17.5t-198 -17.5q-60 0 -99.5 39.5t-39.5 95.5t39.5 96t99.5 40q68 0 179 15q-2 118 -2 452q0 272 20 519
l-217 -6q-60 0 -100.5 39t-40.5 97q0 59 40 96q37 34 91 39q88 8 306 8q196 0 505 -42q123 -17 123 -138q0 -64 -50 -101q-41 -31 -93 -31z" />
    <glyph glyph-name="J" unicode="J" horiz-adv-x="1362" 
d="M1197 1228q-18 0 -57 3.5t-63 3.5h-78q-1 17 -1 -71q0 -716 -101 -1043q-74 -241 -269 -241q-186 0 -368 128q-206 143 -206 336q0 156 141 156t141 -154q0 -59 101.5 -126.5t190.5 -67.5q36 0 52 133q4 32 22 311q15 228 15 568q0 14 -3 65l-23 -1q-44 -2 -118 1
q-89 4 -118 4q-59 0 -100 36q-44 39 -44 101q0 136 179 136q34 0 101 -2.5t100 -2.5q63 0 188.5 7t188.5 7q268 0 268 -149q0 -52 -36 -93q-41 -45 -103 -45z" />
    <glyph glyph-name="K" unicode="K" horiz-adv-x="1251" 
d="M395 443l-1 -421q0 -44 -25 -81q-35 -51 -102 -51q-79 0 -124 64q-35 50 -35 107q0 222 14 667t14 667q0 56 40 96t100 40t99.5 -40t39.5 -96q0 -90 -9 -243q-11 -178 -13 -243q70 66 519 556q46 50 106 50q57 0 99.5 -40t42.5 -97q0 -62 -238 -322q-176 -191 -371 -377
l219 -206q128 -118 230 -194q51 -37 110 -56q107 -34 107 -131q0 -43 -27 -83q-37 -54 -103 -54q-143 0 -371 187q-68 56 -321 301z" />
    <glyph glyph-name="L" unicode="L" horiz-adv-x="1128" 
d="M1042 38q-118 -52 -365 -93q-226 -38 -371 -38q-245 0 -245 215q0 -17 20 317q26 434 26 966q0 57 39.5 97t99.5 40t100 -40t40 -97q0 -533 -27 -982q-9 -80 -19 -245q237 4 608 116q23 7 44 7q63 0 102 -46q35 -41 35 -92q0 -86 -87 -125z" />
    <glyph glyph-name="M" unicode="M" horiz-adv-x="1808" 
d="M529 790q-45 -162 -126 -489l-37 -225q-41 -142 -151 -142q-69 0 -109 47q-34 40 -34 95q0 162 69 395q103 349 111 387l59 308q45 212 97.5 282.5t132.5 70.5q91 0 134 -92q40 -87 86 -356q44 -261 131 -562q114 297 212 652l56 230q54 143 167 143q109 0 162 -166
q22 -67 47 -250q58 -426 146 -730q89 -309 89 -336q0 -59 -47 -99q-44 -36 -99 -36q-109 0 -162 156l-56 242q-48 180 -104 517q-45 -134 -149 -421l-60 -184q-37 -109 -77 -179q-53 -93 -148 -93q-94 0 -144 111l-56 186q-78 256 -140 538z" />
    <glyph glyph-name="N" unicode="N" horiz-adv-x="1665" 
d="M1581 246q0 -50 -17 -158q-20 -129 -146 -129q-70 0 -158 79q-385 347 -869 973q-6 -260 -6 -319q0 -79 3.5 -238t3.5 -238q0 -295 -144 -295q-73 0 -117 45q-39 40 -39 97q0 40 6.5 121t6.5 121q0 59 4 177t4 177q0 63 -3 190t-3 190q0 60 -12 179t-12 179t51.5 107
t117.5 47q74 0 164 -128q454 -648 896 -1057q1 32 1 152q0 493 -10 665q-2 29 -13 108q-10 70 -10 110q0 138 146 138q163 0 163 -503q0 -11 -2 -158q-6 -508 -6 -632z" />
    <glyph glyph-name="O" unicode="O" horiz-adv-x="1635" 
d="M786 -61q-296 0 -504 170q-222 182 -222 471q0 340 213 620q239 315 602 315q349 0 523 -160t174 -481q0 -340 -196 -616q-226 -319 -590 -319zM875 1244q-223 0 -382 -216q-149 -202 -149 -448q0 -166 129 -270q124 -100 313 -100q220 0 367 216q135 197 135 448
q0 210 -94 292q-90 78 -319 78z" />
    <glyph glyph-name="P" unicode="P" horiz-adv-x="1091" 
d="M413 558q-17 0 -84 7q-6 -140 -6 -460q0 -53 -37 -91t-94 -38t-94.5 38t-37.5 91v279q0 155 20 459q19 309 20 461q1 260 146 249q34 9 94 13.5t146 4.5q196 0 368 -127q191 -142 191 -346q0 -256 -203 -407q-180 -133 -429 -133zM463 1313q-32 0 -56.5 -0.5t-41.5 -2.5
q0 -47 -1 -141q-2 -111 -19 -346q51 -8 68 -8q156 0 259 74q110 79 110 209q0 85 -103 151q-99 64 -216 64z" />
    <glyph glyph-name="Q" unicode="Q" horiz-adv-x="1795" 
d="M1646 -438q-73 0 -485 369q-166 -60 -326 -60q-318 0 -560 244q-238 241 -238 547q0 360 279 610q271 243 642 243q397 0 600 -286q171 -241 171 -618q0 -313 -301 -538l181 -161l114 -90q67 -62 67 -120q0 -55 -41 -96q-42 -44 -103 -44zM958 1239q-259 0 -445 -166
q-191 -168 -191 -411q0 -194 158.5 -354.5t354.5 -160.5q26 0 56 3q-147 141 -147 229q0 60 46 100q43 37 99 37q68 0 117 -61q88 -110 196 -198q241 147 241 354q0 276 -114 442q-128 186 -371 186z" />
    <glyph glyph-name="R" unicode="R" horiz-adv-x="1311" 
d="M1126 -12q-54 0 -99 42q-303 284 -666 394q11 -291 11 -323q0 -57 -40 -96.5t-100 -39.5t-100 39.5t-40 96.5q0 75 2 224.5t2 224.5l2 807q0 65 39 118q51 68 141 61q243 -18 249 -19q140 -17 238 -67q427 -215 427 -533q0 -131 -89.5 -231.5t-268.5 -169.5
q265 -148 399 -302q35 -40 35 -89q0 -56 -42 -96.5t-100 -40.5zM485 1246q-8 1 -117 8v-531q25 -1 44 -1q245 0 363 61q51 26 93.5 69t42.5 65q0 112 -142 216q-135 98 -284 113z" />
    <glyph glyph-name="S" unicode="S" horiz-adv-x="1420" 
d="M571 -61q-254 0 -400 113q-123 94 -123 217q0 63 38 104.5t105 41.5q90 0 132 -92q57 -123 258 -123q172 0 333 75q167 77 167 169q0 126 -104 166q-74 29 -297 34q-173 4 -310 65q-185 83 -182 238q3 195 208 357.5t452 162.5q98 0 242 -45q179 -56 179 -129
q0 -52 -36 -92q-40 -45 -103 -45q-47 0 -140.5 20t-141.5 20q-129 -1 -245 -62q-120 -62 -120 -135q0 -38 36.5 -62.5t109.5 -34.5l255 -14q222 -17 351 -125q142 -120 142 -332q0 -258 -294 -391q-224 -101 -512 -101z" />
    <glyph glyph-name="T" unicode="T" horiz-adv-x="1425" 
d="M1296 1199q-78 0 -243 11q-159 11 -243 10q4 -114 27 -406q21 -258 21 -408q0 -34 7 -101t7 -101q0 -75 -32 -135q-41 -77 -117 -77q-55 0 -97 35q-47 39 -47 98q0 14 5 42.5t5 43.5q0 46 -6.5 139t-6.5 140q0 134 -21 363q-24 263 -28 363h-52q-223 0 -354 32
q-111 27 -111 131q0 51 36 92q42 49 110 44q35 -2 159 -17q99 -11 160 -11t182.5 2t182.5 2q76 0 228 -10.5t228 -10.5q60 0 100.5 -39t40.5 -96t-40.5 -96.5t-100.5 -39.5z" />
    <glyph glyph-name="U" unicode="U" horiz-adv-x="1509" 
d="M1154 173q-73 -99 -176 -165q-126 -80 -259 -80q-255 0 -379 98q-262 207 -262 719q0 49 5 146t5 146q0 39 2 116.5t2 116.5q0 80 29 151q39 94 109 94q55 0 97 -36q46 -38 46 -98q0 -57 -1.5 -172.5t-1.5 -173.5q0 -48 -5 -145t-5 -145q0 -155 36 -288q42 -159 123 -222
q42 -33 200 -35q264 -4 356 450q48 235 48 660q0 56 33 108q45 69 128 69q68 0 102 -50q26 -37 26 -82q0 -395 -37 -616q-56 -341 -221 -566z" />
    <glyph glyph-name="V" unicode="V" horiz-adv-x="1382" 
d="M634 420l234 605l87 239q59 142 127 219q45 51 108 51q57 0 100 -39.5t43 -96.5q0 -40 -27 -79q-54 -78 -99 -188q-2 -4 -74 -198l-268 -693q-46 -121 -113 -242q-43 -78 -125 -78q-104 0 -145 98q-122 291 -271 839l-83 270q-56 188 -56 261q0 59 44 98q42 36 98 36
q96 0 134 -100l40 -173l95 -324q78 -286 151 -505z" />
    <glyph glyph-name="W" unicode="W" horiz-adv-x="2129" 
d="M2052 1283l-40 -101q-17 -58 -55 -172q-57 -147 -181 -428q-127 -286 -182 -427q-41 -105 -77 -168q-47 -83 -143 -83q-57 0 -103 31q-54 36 -58 95q-46 115 -58 188q-44 214 -122 643q-65 -201 -140 -361q-112 -240 -147 -377q9 -22 9 -47q0 -62 -55 -101
q-48 -33 -106 -33q-73 0 -121 37q-52 41 -54 112l-31 117q-33 156 -108 466q-66 237 -221 675q-9 25 -9 50q0 60 46 95q41 32 99 32q76 0 121 -64q25 -35 57 -127q98 -282 221 -822q80 195 163 460q67 216 109 307q100 218 204 218q98 0 143 -107q22 -51 43 -185
q6 -41 26 -201q21 -172 126 -626q106 248 285 715q11 28 52 184q29 112 73 177q48 70 128 70q61 0 101 -37.5t40 -96.5q0 -21 -35 -108z" />
    <glyph glyph-name="X" unicode="X" horiz-adv-x="1482" 
d="M1393 1295q-132 -151 -204 -252q-76 -111 -244 -323l210 -293q124 -171 223 -283q37 -42 37 -90q0 -56 -42.5 -97t-100.5 -41q-99 0 -259 228l-133 196l-127 173l-312 -342q-60 -68 -185 -198q-44 -42 -101 -42q-58 0 -101 40.5t-43 96.5q0 48 35 88l182 193l353 390
q-101 128 -213 256q-9 10 -114 146q-69 89 -126.5 134.5t-57.5 107.5q0 53 40.5 95.5t101.5 42.5q54 0 142 -76q64 -56 106 -112.5l125 -162.5q96 -109 185 -221l251 332q194 240 265 240q58 0 101 -40.5t43 -96.5q0 -47 -37 -89z" />
    <glyph glyph-name="Y" unicode="Y" horiz-adv-x="1301" 
d="M1207 1234q-51 -105 -205 -454q-128 -292 -218 -458q-156 -288 -167 -305q-59 -87 -136 -87q-55 0 -97 36q-46 40 -46 99q0 49 209 412q-77 111 -221 337l-317 501q-20 34 -20 71q0 58 45 98q42 37 98 37q66 0 120 -67l75 -120l172 -292q104 -179 184 -283l219 463
l90 209q38 90 130 90q55 0 97 -36q46 -39 46 -98q0 -34 -58 -153z" />
    <glyph glyph-name="Z" unicode="Z" horiz-adv-x="1420" 
d="M1274 1195l-135 -87q-169 -125 -400 -430l-354 -477l-4 -5q73 2 352 14q219 10 349 10q143 0 194 -11q120 -26 124 -115q3 -66 -46 -104q-42 -33 -101 -33q-29 0 -87 3.5t-87 3.5q-152 0 -456.5 -7.5t-456.5 -7.5q-65 0 -107 33q-47 36 -47 101q0 72 63 171
q20 31 113 151l329 437q196 252 367 408q-156 -11 -238 -11h-404q-11 0 -32 -1.5t-32 -1.5q-59 0 -100 34q-46 38 -46 102q0 137 203 137q69 0 206 -8.5t206 -8.5q77 0 230.5 4t230.5 4q298 0 298 -130q0 -83 -132 -175z" />
    <glyph glyph-name="bracketleft" unicode="[" horiz-adv-x="771" 
d="M615 -417q-29 0 -87.5 2.5t-87.5 2.5q-23 0 -67.5 -2.5t-67.5 -2.5q-169 0 -169 151q0 180 2.5 539t2.5 538q0 97 -3 290t-3 290q0 55 43 92t99 37q34 0 103 -2.5t103 -2.5q19 0 56.5 2.5t56.5 2.5q59 0 95.5 -36.5t36.5 -95.5q0 -137 -242 -137q-12 0 -82 2v-1403l36 1
q32 1 87 -2q63 -3 88 -3q55 0 91 -38t36 -93q0 -56 -36 -94t-91 -38z" />
    <glyph glyph-name="backslash" unicode="\" horiz-adv-x="1126" 
d="M920 -141q-74 0 -115 67q-38 62 -119 244l-291 710q-64 144 -237 444q-21 36 -21 70q0 53 41 91.5t96 38.5q66 0 109 -61q124 -177 252 -469l204 -495q111 -267 200 -449q16 -33 16 -61q0 -53 -40 -91.5t-95 -38.5z" />
    <glyph glyph-name="bracketright" unicode="]" horiz-adv-x="771" 
d="M189 -417q29 0 87.5 2.5t87.5 2.5q23 0 67.5 -2.5t67.5 -2.5q169 0 169 151q0 180 -2.5 539t-2.5 538q0 97 3 290t3 290q0 55 -43 92t-99 37q-34 0 -103 -2.5t-103 -2.5q-19 0 -56.5 2.5t-56.5 2.5q-59 0 -95.5 -36.5t-36.5 -95.5q0 -137 242 -137q12 0 82 2v-1403l-36 1
q-32 1 -87 -2q-63 -3 -88 -3q-55 0 -91 -38t-36 -93q0 -56 36 -94t91 -38z" />
    <glyph glyph-name="asciicircum" unicode="^" 
d="M943 1141q-49 0 -91 35l-218 200q-242 -254 -331 -254q-53 0 -91.5 34.5t-38.5 79.5q0 46 42 81q53 45 302 290q40 39 92 39q66 0 148 -60q29 -21 122 -106l159 -149q37 -36 37 -76q0 -46 -39.5 -80t-92.5 -34z" />
    <glyph glyph-name="underscore" unicode="_" horiz-adv-x="1284" 
d="M-75 -345v186h1438v-186h-1438z" />
    <glyph glyph-name="grave" unicode="`" horiz-adv-x="1139" 
d="M484 1178q-64 0 -105 50l-96 123q-54 65 -119 108q-55 36 -55 88q0 44 37.5 79t91.5 35q82 0 232 -155q147 -151 147 -218q0 -46 -40.5 -78t-92.5 -32z" />
    <glyph glyph-name="a" unicode="a" horiz-adv-x="1138" 
d="M965 -66q-46 0 -146 100q-92 -44 -162 -66.5t-119 -22.5q-241 0 -361.5 129t-120.5 386q0 241 178 412.5t426 171.5q95 0 220 -54q151 -65 151 -151q0 -36 -23 -63q-10 -40 -15.5 -100.5t-5.5 -141.5q0 -191 27 -275q3 -9 46 -104q39 -86 39 -98q0 -53 -40.5 -88
t-93.5 -35zM717 620q0 32 4.5 73.5t13.5 92.5q-20 10 -35.5 14.5t-26.5 4.5q-136 0 -238 -106.5t-102 -246.5q0 -134 48 -201.5t144 -67.5q62 0 117.5 20.5t104.5 60.5q-30 238 -30 356z" />
    <glyph glyph-name="b" unicode="b" horiz-adv-x="1215" 
d="M577 -42q-140 0 -266 49q-37 -37 -90 -37q-54 0 -92.5 36t-38.5 90q0 24 3 73.5t3 73.5v1133q0 72 32 128q40 71 114 71q107 0 107 -116q0 -13 -3.5 -41.5t-3.5 -41.5v-383q74 41 142 61.5t131 20.5q235 0 380 -171q135 -160 135 -388q0 -232 -157 -393
q-160 -165 -396 -165zM615 819q-52 0 -120 -30t-153 -90q-1 -95 0 -425q137 -59 235 -59q127 0 209 85.5t82 215.5t-67 215q-70 88 -186 88z" />
    <glyph glyph-name="c" unicode="c" horiz-adv-x="1052" 
d="M562 -63q-220 0 -369 125q-157 132 -157 348q0 199 141 411q160 242 372 242q104 0 243 -56q169 -69 169 -159q0 -49 -34 -87q-36 -41 -93 -41q-43 0 -103.5 46.5t-181.5 46.5q-77 0 -167 -151q-86 -146 -86 -252q0 -105 76 -165q72 -57 190 -57q67 0 164 51t123 51
q54 0 92.5 -39t38.5 -89q0 -78 -170 -156q-152 -69 -248 -69z" />
    <glyph glyph-name="d" unicode="d" horiz-adv-x="1203" 
d="M834 1005q13 341 31 471q17 118 130 118q59 0 95 -38t36 -93q0 -145 -22.5 -432t-22.5 -432q0 -354 23 -474q3 -16 3 -29q0 -55 -40 -90.5t-93 -35.5q-74 0 -110 66q-68 -41 -141 -61.5t-151 -20.5q-224 0 -372 143q-151 146 -151 372q0 269 152 434.5t397 165.5
q75 0 134 -16t102 -48zM814 690q-33 63 -86 94t-126 31q-148 0 -222 -85.5t-74 -256.5q0 -108 80 -185t186 -77q77 0 117 18q27 12 92 64q17 14 33 31q-2 48 0 366z" />
    <glyph glyph-name="e" unicode="e" horiz-adv-x="1145" 
d="M606 -46q-239 0 -391 114q-168 126 -168 355q0 253 133 428q148 194 399 194q174 0 289 -56q151 -74 151 -230q0 -110 -123 -195q-56 -39 -225 -114l-337 -149q48 -52 116 -78t156 -26q134 0 227 55q83 49 133 49q104 0 104 -101q0 -114 -167 -186q-140 -60 -297 -60z
M579 803q-93 0 -159 -62t-106 -186l225 97q135 61 215 113q-67 38 -175 38z" />
    <glyph glyph-name="f" unicode="f" horiz-adv-x="1041" 
d="M577 1027q134 12 192 12q187 0 187 -128q0 -132 -199 -126q-63 2 -191 -9q-4 -106 -2 -270q4 -236 4 -269q0 -183 -23 -290t-132 -107q-56 0 -97.5 36t-41.5 91q0 13 2 25q24 143 24 269v500q-18 -1 -66 -8q-38 -5 -58 -5q-61 0 -101 35.5t-40 95.5q0 93 98 122
q44 13 175 17q1 18 13 113q28 223 121 332q116 136 356 136q183 0 183 -131q0 -130 -170 -130q-121 0 -176 -85q-41 -63 -55 -197z" />
    <glyph glyph-name="g" unicode="g" horiz-adv-x="1087" 
d="M1029 596q-42 -235 -50 -496q-10 -323 -108 -469q-131 -195 -464 -195q-389 0 -389 154q0 55 35 89t92 34q45 0 129 -17t149 -17q149 0 220 91q68 89 80 283q-51 -52 -115 -78t-140 -26q-199 0 -323.5 129.5t-124.5 331.5q0 272 166 440q172 174 465 174q94 0 162 -23
t110 -70q127 -15 127 -150q0 -67 -21 -185zM641 796q-169 0 -263 -111q-84 -101 -84 -262q0 -119 45 -179t135 -60q82 0 165 95q78 90 89 178q19 96 44 299q-34 20 -67 30t-64 10z" />
    <glyph glyph-name="h" unicode="h" horiz-adv-x="1183" 
d="M399 915q73 72 156.5 107.5t178.5 35.5q171 0 246 -96q56 -72 68 -221q5 -123 11 -247q16 -161 20 -196q14 -111 34 -194q5 -21 5 -37q0 -56 -42.5 -92.5t-99.5 -36.5q-101 0 -131 100q-24 81 -44 228q-18 141 -18 232q0 25 2.5 75.5t2.5 75.5q0 74 -2 86q-9 55 -52 55
q-111 0 -201 -102q-46 -51 -126 -194q0 -362 -35 -436q-39 -82 -124 -82q-56 0 -99.5 37.5t-43.5 92.5q0 19 11 53q7 22 12 270q-5 201 2 669l2 33q6 118 6 158q0 31 -9.5 91.5t-9.5 91.5q0 57 41 93.5t99 36.5q99 0 133 -106q19 -60 19 -184q0 -100 -6 -203q-6 -98 -6 -194
z" />
    <glyph glyph-name="i" unicode="i" horiz-adv-x="574" 
d="M330 1202q-64 0 -111 43t-47 105t47 105t111 43t110.5 -43t46.5 -105t-46.5 -105t-110.5 -43zM415 469q0 -57 3.5 -183t3.5 -183q0 -58 -39 -95.5t-99 -37.5t-99 37.5t-39 95.5q0 57 -3.5 183t-3.5 183q0 89 10 223t10 223q0 58 39 95.5t99 37.5t99 -37.5t39 -95.5
q0 -89 -10 -223t-10 -223z" />
    <glyph glyph-name="j" unicode="j" horiz-adv-x="826" 
d="M467 1197q-64 0 -110.5 43t-46.5 106t46.5 106.5t110.5 43.5t111 -43.5t47 -106.5t-47 -106t-111 -43zM419 -187q0 105 -34 554t-34 533q0 60 35 108q41 54 106 54q46 0 92 -31q50 -34 52 -78q12 -191 33 -555q27 -485 27 -595q0 -145 -91 -266q-101 -134 -251 -134
q-242 0 -397 342q-15 33 -15 62q0 55 44 95q43 37 99 37q64 0 113 -69l73 -129q40 -69 83 -69q52 0 65 141z" />
    <glyph glyph-name="k" unicode="k" horiz-adv-x="1106" 
d="M943 -41q-79 0 -120 76q-49 91 -147 215l-161 205q-80 -59 -132 -90q-10 -139 -10 -266q0 -58 -39 -96t-99 -38q-141 0 -141 168q0 79 11.5 236.5t11.5 236.5q0 145 4.5 331.5t4.5 329.5q0 43 -4.5 101.5t-4.5 101.5q0 58 39 95.5t99 37.5t99 -37.5t39 -95.5
q0 -44 5 -104t5 -104q0 -119 -6 -282q-6 -156 -5 -278q136 105 414 382q44 44 100 44t99 -41t43 -95q0 -46 -39 -89q-118 -132 -281 -276l208 -268q151 -201 151 -268q0 -55 -44 -93.5t-100 -38.5z" />
    <glyph glyph-name="l" unicode="l" horiz-adv-x="561" 
d="M410 147q0 -190 -138 -190q-60 0 -99 38t-39 98v1383q0 58 42 95q40 34 99 34t97 -35.5t38 -93.5v-1329z" />
    <glyph glyph-name="m" unicode="m" horiz-adv-x="1591" 
d="M361 885q151 175 286 175q154 0 226 -117q61 54 135 81t160 27q196 0 266 -195q14 -40 43 -271q28 -162 72 -540q4 -57 -39 -94t-101 -37q-115 0 -135 114q-18 103 -37 291q-20 206 -33 292q-27 179 -69 179q-23 0 -105 -46t-120 -79q0 -114 27 -328q28 -219 28 -328
q0 -57 -39 -95t-99 -38t-99 38t-39 95q0 114 -24.5 335.5t-24.5 335.5q0 64 -11 102q-116 -67 -233 -223q-5 -7 -17 -21q-4 -202 -4 -317q0 -28 -2 -75.5t-2 -70.5q0 -54 -44 -85q-40 -29 -99 -29q-85 0 -115 74q-21 50 -21 159v372q0 50 -4 146.5t-4 146.5q0 89 32 161
q39 90 110 90q56 0 100 -43.5t44 -95.5q0 21 -9 -86z" />
    <glyph glyph-name="n" unicode="n" horiz-adv-x="1072" 
d="M890 -71q-123 0 -137 121l-28 207q-15 110 -15 207q0 26 3.5 89t3.5 89q0 7 2 35.5t2 46.5q0 83 -43 83q-92 0 -180.5 -107.5t-138.5 -272.5q-2 -33 -9 -88q-6 -45 -6 -88q0 -28 6.5 -84.5t6.5 -84.5q0 -57 -39.5 -94.5t-99.5 -37.5t-99 37.5t-39 94.5q0 28 -6 84.5
t-6 84.5q0 96 14 267t14 267q0 30 -3.5 89.5t-3.5 88.5q0 56 40.5 92.5t99.5 36.5q131 0 140 -157l1 -11q146 147 308 147q189 0 261 -158q48 -106 48 -317v-71q-1 -46 -1 -65q0 -78 21.5 -201t21.5 -200q0 -56 -40 -93t-99 -37z" />
    <glyph glyph-name="o" unicode="o" horiz-adv-x="1077" 
d="M514 -59q-185 0 -318 127q-146 139 -153 371q-7 221 121 394q152 204 423 204q200 0 318 -160q106 -144 106 -357q0 -232 -124 -396q-139 -183 -373 -183zM574 773q-123 1 -194 -112q-60 -95 -60 -222q0 -120 68 -184q54 -51 126 -51q87 0 151 59q73 69 78 187
q13 322 -169 323z" />
    <glyph glyph-name="p" unicode="p" horiz-adv-x="1095" 
d="M564 -59q-86 0 -181 20l-1 -408q0 -58 -39 -96t-99 -38t-99 38t-39 96q0 47 2 373q2 242 0 395q-3 216 -14 372q-15 215 -15 197q0 83 37 142q43 67 116 67q56 0 94 -38t38 -91l-1 -10q67 38 134.5 56.5t135.5 18.5q230 0 336 -195q79 -147 79 -381q0 -219 -125 -363
q-134 -155 -359 -155zM633 768q-63 0 -128 -29.5t-131 -88.5q12 -206 12 -413q89 -29 178 -29q103 0 158 73q50 66 50 178q0 135 -12 187q-29 122 -127 122z" />
    <glyph glyph-name="q" unicode="q" horiz-adv-x="1065" 
d="M949 309l-46 -365q-25 -202 -25 -366q0 -58 -39 -96t-99 -38q-138 0 -138 167q0 25 3 51q9 72 28 288q-41 -9 -75 -9q-232 0 -379 116q-159 126 -159 348q0 294 175 474q182 185 491 184q53 0 87 -27q35 22 71 22q57 0 98 -42t41 -96q0 -284 -34 -611zM681 820
q-50 5 -60 3q-166 -28 -251 -160q-70 -110 -70 -261q0 -97 60 -157q68 -66 190 -63q69 2 103 76q45 98 48 348q0 17 12 212q-13 0 -32 2z" />
    <glyph glyph-name="r" unicode="r" horiz-adv-x="984" 
d="M940 721q-9 -153 -139 -153q-126 0 -126 130l-5 101q-225 -36 -322 -231l1 -503q0 -57 -39 -94.5t-99 -37.5q-62 0 -96 40q-32 36 -32 92v655q0 31 2 92.5t2 92.5q0 56 33.5 93.5t95.5 37.5q111 0 132 -114q177 132 393 132q200 0 200 -266q0 -51 -1 -67z" />
    <glyph glyph-name="s" unicode="s" horiz-adv-x="997" 
d="M806 732q-99 0 -119 83q-40 7 -82 7q-241 0 -241 -66q0 -39 145 -105q198 -91 268 -142q145 -105 145 -237q0 -172 -160 -261q-129 -71 -317 -71q-133 0 -243 41q-150 56 -150 165q0 100 119 100q46 0 133 -29t134 -29q203 0 204 82q0 51 -141 113q-206 91 -264 131
q-141 99 -141 241q0 201 213 271q125 41 380 41q100 0 148 -26q66 -35 66 -129q0 -180 -97 -180z" />
    <glyph glyph-name="t" unicode="t" horiz-adv-x="965" 
d="M808 805q-21 0 -49.5 1.5t-49.5 1.5q-41 0 -95 -8q18 -404 18 -528q0 -13 1 -48.5t1 -57.5q0 -230 -145 -230q-55 0 -95 34q-44 36 -44 90q0 36 3 108t3 108q0 121 -18 518q-62 3 -187.5 16.5t-125.5 129.5q0 56 38 95t98 39q37 0 170 -12q-1 32 -5 106q-4 64 -4 99
q0 56 41 93t99 37q148 0 148 -249l-2 -82q62 9 101 9q115 0 157 -15q80 -28 80 -122q0 -57 -39 -95t-99 -38z" />
    <glyph glyph-name="u" unicode="u" horiz-adv-x="1065" 
d="M978 578q0 -67 1 -202t1 -202q0 -21 3.5 -62.5t3.5 -62.5q0 -56 -40.5 -92.5t-99.5 -36.5q-83 0 -121 75q-128 -47 -265 -47q-142 0 -239 60q-109 69 -130 201q-39 250 -39 447q0 130 30 297q20 113 135 113q58 0 99 -36.5t41 -92.5q0 -44 -14.5 -138t-14.5 -143
q0 -141 9.5 -246.5t28.5 -174.5q25 -11 48.5 -17t45.5 -6q111 0 244 32q0 77 -1 175q-2 117 -2 168q0 205 19 354q15 119 136 119q59 0 101 -37t39 -93q-19 -381 -19 -352z" />
    <glyph glyph-name="v" unicode="v" horiz-adv-x="996" 
d="M639 74q-5 -50 -41 -82t-89 -32q-101 0 -143 104l-331 806q-13 30 -13 57q0 54 43.5 91.5t99.5 37.5q86 0 123 -79q57 -121 222 -566q53 113 146 344q28 77 87 215q41 80 124 80q56 0 99.5 -37t43.5 -92q0 -36 -162 -396q-132 -294 -209 -451z" />
    <glyph glyph-name="w" unicode="w" horiz-adv-x="1401" 
d="M1381 881q-105 -392 -211 -712q-30 -90 -98 -185q-48 -66 -128 -65q-126 2 -198 243q-27 92 -64 343q-21 -44 -26 -59q-52 -124 -152 -385q-15 -42 -45 -67q-42 -67 -125 -70q-47 -2 -99 84q-55 87 -89 224q-31 124 -96 540q-14 90 -14 141q0 55 41.5 91.5t99.5 36.5
q108 0 133 -107q13 -56 22 -138q12 -118 15 -139q13 -78 40 -255q74 203 170 505q41 130 154 130q111 0 146 -145q25 -102 53 -265q41 -237 50 -282q9 31 157 608q22 86 125 86q57 0 100.5 -37t43.5 -92q0 -10 -5 -29z" />
    <glyph glyph-name="x" unicode="x" horiz-adv-x="1209" 
d="M1087 811l-147 -129l-153 -142l305 -373q33 -41 33 -81q0 -52 -42 -91t-96 -39q-56 0 -100 48q-90 98 -297 353q-81 -81 -251 -236q-54 -45 -82 -75q-44 -46 -99 -46q-54 0 -95.5 39t-41.5 91q0 58 82 133l132 113l190 187l-113 156q-69 92 -130 143q-52 43 -52 97
q0 52 39.5 92.5t94.5 40.5q71 0 196 -143l160 -206l171 144q106 92 152 157q43 61 109 61q54 0 96.5 -38t42.5 -90q0 -65 -104 -166z" />
    <glyph glyph-name="y" unicode="y" horiz-adv-x="1132" 
d="M1096 845l-345 -713q-128 -261 -195 -433q-21 -62 -66 -184q-36 -94 -128 -94q-57 0 -100 37t-43 93q0 93 212 551q-110 217 -349 639l-49 77q-27 46 -27 84q0 54 43 95t99 41q66 0 103 -49q142 -189 331 -569l130 286q71 149 139 262q43 72 118 72q56 0 100 -38t44 -93
q0 -29 -17 -64z" />
    <glyph glyph-name="z" unicode="z" horiz-adv-x="1102" 
d="M757 505q-167 -226 -208 -278q61 2 101 2t116.5 -14.5t115.5 -14.5q60 0 99.5 -37.5t39.5 -94.5t-39 -94t-100 -37q-40 0 -116.5 14t-115.5 14q-224 0 -419 -37q-26 -5 -44 -5q-55 0 -94 30q-44 33 -44 87q0 64 63 117q249 211 521 617q-62 -3 -119 -3q-153 0 -310 22
q-123 17 -123 130q0 55 38 94t97 39q49 0 148.5 -10.5t149.5 -10.5q68 0 204 8.5t204 8.5q125 0 125 -102q0 -90 -85 -186t-205 -259z" />
    <glyph glyph-name="braceleft" unicode="{" horiz-adv-x="750" 
d="M613 1371l-83 -6q-105 -11 -105 -166q0 -41 6.5 -196.5t6.5 -196.5q0 -56 -34 -125q-35 -72 -87 -115q105 -138 105 -226q0 -32 -8 -95.5t-8 -95.5q0 -77 25 -162q34 -114 92 -114q96 0 133 -15q63 -27 63 -111q0 -131 -196 -131q-186 0 -296 197q-88 158 -88 336
q0 26 8 78.5t8 79.5q0 60 -94.5 123.5t-94.5 127.5q0 59 75 133q63 63 131 96q1 43 -4 192q-4 158 -4 192q0 330 223 423q74 31 148 31q65 0 124 -30q78 -41 78 -115q0 -92 -124 -109z" />
    <glyph glyph-name="bar" unicode="|" horiz-adv-x="863" 
d="M444 -362q-131 0 -133 248q0 29 1 84.5t1 78.5v1542q0 54 38.5 89t93.5 35q56 0 91 -35.5t35 -88.5v-1803q-1 -53 -27 -94q-35 -56 -100 -56z" />
    <glyph glyph-name="braceright" unicode="}" horiz-adv-x="750" 
d="M695 471l-94 -69q-54 -43 -54 -95q0 -27 8.5 -79.5t8.5 -78.5q0 -178 -88 -336q-110 -197 -296 -197q-196 0 -196 131q0 84 63 111q37 15 133 15q58 0 92 114q25 85 25 162q0 32 -8 95.5t-8 95.5q0 88 105 226q-52 43 -87 115q-34 69 -34 125q0 41 6.5 196.5t6.5 196.5
q0 155 -105 166q-109 11 -132 19q-75 24 -75 96q0 74 78 115q59 30 124 30q74 0 148 -31q223 -93 223 -423q0 -34 -4 -191q-5 -148 -4 -191q68 -33 131 -97q75 -75 75 -134q0 -47 -42 -87z" />
    <glyph glyph-name="asciitilde" unicode="~" 
d="M855 467q-126 0 -224 69q-52 36 -156 152l-22 25q-64 0 -162 -144q-41 -60 -112 -60q-52 0 -91 30q-42 32 -42 78q0 24 14 50q57 107 150 179q114 88 243 88q98 0 175 -61q5 -4 112 -115q62 -63 121 -67q8 -1 37 78q48 130 139 130q131 0 131 -127q0 -106 -87 -200
q-95 -105 -226 -105z" />
    <glyph glyph-name="Adieresis" unicode="&#xc4;" horiz-adv-x="1498" 
d="M1290 -30q-79 3 -159 186q-53 118 -91 272q-74 -11 -242 -22q-158 -11 -242 -26q-46 -110 -160 -331q-44 -72 -122 -72q-55 0 -99 37.5t-44 95.5q0 51 146 346q-14 31 -12 58q4 48 97 75q142 246 316 510q250 379 308 379q110 0 147 -133l63 -321q61 -288 149 -659
q7 -28 51 -132q36 -86 36 -129q0 -58 -43.5 -97t-98.5 -37zM917 996l-215 -365q45 10 140 16q112 7 141 11q-24 130 -66 338zM1219 1614q-59 0 -111 32q-62 38 -62 96q0 140 208 140q54 0 107 -36q61 -41 61 -98q0 -67 -68 -104q-56 -30 -135 -30zM788 1614q-186 0 -186 142
q0 48 62 90q58 39 113 39q193 0 192 -144q0 -50 -70 -91q-61 -36 -111 -36z" />
    <glyph glyph-name="Aring" unicode="&#xc5;" horiz-adv-x="1498" 
d="M1290 -30q-79 3 -159 186q-53 118 -91 272q-74 -11 -242 -22q-158 -11 -242 -26q-46 -110 -160 -331q-44 -72 -122 -72q-55 0 -99 37.5t-44 95.5q0 51 146 346q-14 31 -12 58q4 48 97 75q142 246 316 510q250 379 308 379q110 0 147 -133l63 -321q61 -288 149 -659
q7 -28 51 -132q36 -86 36 -129q0 -58 -43.5 -97t-98.5 -37zM917 996l-215 -365q45 10 140 16q112 7 141 11q-24 130 -66 338zM991 1429q-150 -2 -253 76q-104 77 -104 190q0 144 118 228q111 78 285 78q139 0 239 -70q112 -76 112 -201q0 -157 -127 -235q-103 -64 -270 -66z
M1037 1800q-176 0 -173 -104q1 -26 51.5 -47.5t108.5 -21.5q67 0 100.5 26t33.5 77q0 31 -34.5 50.5t-86.5 19.5z" />
    <glyph glyph-name="Ccedilla" unicode="&#xc7;" horiz-adv-x="1267" 
d="M1104 1061q-57 0 -93 35q-22 22 -45 70q-20 41 -31 47q-12 5 -83 5q-126 0 -291 -198q-231 -277 -231 -518q0 -107 71 -186q73 -82 177 -82q96 0 198 53q37 19 156 99q78 53 117 53q59 0 100 -42.5t41 -97.5q0 -71 -144 -169q-116 -80 -246 -130q32 -57 32 -114
q0 -176 -152 -245q-106 -48 -311 -48q-170 0 -170 113q0 46 32 78.5t81 32.5q19 0 56.5 -2t56.5 -2q88 0 112 5q65 14 65 68q0 41 -103 76l-144 49q-152 85 -228.5 208t-76.5 283q0 338 293 691q248 299 509 299q42 0 77.5 -3t64.5 -10q46 45 106 45q97 0 128 -122
q15 -60 15 -195q0 -57 -35 -99q-39 -47 -104 -47z" />
    <glyph glyph-name="Eacute" unicode="&#xc9;" horiz-adv-x="1279" 
d="M1109 1282q-20 0 -42 6q-162 44 -315 44q-75 0 -161 -12t-183 -36q0 -133 -9 -395q56 4 391 37q191 19 242 19q59 0 101 -37.5t42 -99.5q0 -119 -127 -135q-80 -6 -239 -20q-142 -16 -428 -39q-7 -127 -7 -205q0 -196 23 -223q11 -13 126 -13q62 0 187 3t187 3q20 0 59 6
t58 6q58 0 99 -33q47 -37 47 -104q0 -112 -117 -134q-100 -19 -415 -19q-326 0 -425 88q-109 97 -109 420q0 134 19.5 402.5t19.5 401.5q0 35 -10 103.5t-10 103.5q0 152 140 152q44 0 81 -25q116 29 220.5 43.5t197.5 14.5q252 0 403 -58q92 -35 92 -127q0 -52 -36 -92
q-40 -46 -102 -46zM873 1918q-82 -90 -130 -125q-39 -29 -86 -29q-53 0 -92 34t-39 79q0 37 42 81l73 68q107 117 126 134q91 82 161 82q53 0 91.5 -35t38.5 -79q0 -51 -53.5 -87.5t-131.5 -122.5z" />
    <glyph glyph-name="Ntilde" unicode="&#xd1;" horiz-adv-x="1665" 
d="M1581 246q0 -50 -17 -158q-20 -129 -146 -129q-70 0 -158 79q-385 347 -869 973q-6 -260 -6 -319q0 -79 3.5 -238t3.5 -238q0 -295 -144 -295q-73 0 -117 45q-39 40 -39 97q0 40 6.5 121t6.5 121q0 59 4 177t4 177q0 63 -3 190t-3 190q0 60 -12 179t-12 179t51.5 107
t117.5 47q74 0 164 -128q454 -648 896 -1057q1 32 1 152q0 493 -10 665q-2 29 -13 108q-10 70 -10 110q0 138 146 138q163 0 163 -503q0 -11 -2 -158q-6 -508 -6 -632zM1213 1710q-67 -57 -171 -57q-117 0 -188 32q-66 30 -130 107q-36 43 -69 43q-55 0 -97 -72.5
t-110 -72.5q-46 0 -80 25q-37 27 -37 67q0 13 5 28q31 93 114 152q88 62 205 62q100 0 161 -38q36 -22 106 -100q40 -44 89 -44q41 0 63 28l33 57q5 16 19 47q24 43 96 43q49 0 82 -27t33 -67q0 -37 -47 -114q-44 -71 -77 -99z" />
    <glyph glyph-name="Odieresis" unicode="&#xd6;" horiz-adv-x="1635" 
d="M786 -61q-296 0 -504 170q-222 182 -222 471q0 340 213 620q239 315 602 315q349 0 523 -160t174 -481q0 -340 -196 -616q-226 -319 -590 -319zM875 1244q-223 0 -382 -216q-149 -202 -149 -448q0 -166 129 -270q124 -100 313 -100q220 0 367 216q135 197 135 448
q0 210 -94 292q-90 78 -319 78zM1159 1640q-59 0 -111 32q-62 38 -62 96q0 140 208 140q54 0 107 -36q61 -41 61 -98q0 -67 -68 -104q-56 -30 -135 -30zM728 1640q-186 0 -186 142q0 48 62 90q58 39 113 39q193 0 192 -144q0 -50 -70 -91q-61 -36 -111 -36z" />
    <glyph glyph-name="Udieresis" unicode="&#xdc;" horiz-adv-x="1509" 
d="M1154 173q-73 -99 -176 -165q-126 -80 -259 -80q-255 0 -379 98q-262 207 -262 719q0 49 5 146t5 146q0 39 2 116.5t2 116.5q0 80 29 151q39 94 109 94q55 0 97 -36q46 -38 46 -98q0 -57 -1.5 -172.5t-1.5 -173.5q0 -48 -5 -145t-5 -145q0 -155 36 -288q42 -159 123 -222
q42 -33 200 -35q264 -4 356 450q48 235 48 660q0 56 33 108q45 69 128 69q68 0 102 -50q26 -37 26 -82q0 -395 -37 -616q-56 -341 -221 -566zM990 1617q-59 0 -111 32q-62 38 -62 96q0 140 208 140q54 0 107 -36q61 -41 61 -98q0 -67 -68 -104q-56 -30 -135 -30zM559 1617
q-186 0 -186 142q0 48 62 90q58 39 113 39q193 0 192 -144q0 -50 -70 -91q-61 -36 -111 -36z" />
    <glyph glyph-name="aacute" unicode="&#xe1;" horiz-adv-x="1138" 
d="M965 -66q-46 0 -146 100q-92 -44 -162 -66.5t-119 -22.5q-241 0 -361.5 129t-120.5 386q0 241 178 412.5t426 171.5q95 0 220 -54q151 -65 151 -151q0 -36 -23 -63q-10 -40 -15.5 -100.5t-5.5 -141.5q0 -191 27 -275q3 -9 46 -104q39 -86 39 -98q0 -53 -40.5 -88
t-93.5 -35zM717 620q0 32 4.5 73.5t13.5 92.5q-20 10 -35.5 14.5t-26.5 4.5q-136 0 -238 -106.5t-102 -246.5q0 -134 48 -201.5t144 -67.5q62 0 117.5 20.5t104.5 60.5q-30 238 -30 356zM784 1341q-82 -90 -130 -125q-39 -29 -86 -29q-53 0 -92 34t-39 79q0 37 42 81l73 68
q107 117 126 134q91 82 161 82q53 0 91.5 -35t38.5 -79q0 -51 -53.5 -87.5t-131.5 -122.5z" />
    <glyph glyph-name="agrave" unicode="&#xe0;" horiz-adv-x="1138" 
d="M965 -66q-46 0 -146 100q-92 -44 -162 -66.5t-119 -22.5q-241 0 -361.5 129t-120.5 386q0 241 178 412.5t426 171.5q95 0 220 -54q151 -65 151 -151q0 -36 -23 -63q-10 -40 -15.5 -100.5t-5.5 -141.5q0 -191 27 -275q3 -9 46 -104q39 -86 39 -98q0 -53 -40.5 -88
t-93.5 -35zM717 620q0 32 4.5 73.5t13.5 92.5q-20 10 -35.5 14.5t-26.5 4.5q-136 0 -238 -106.5t-102 -246.5q0 -134 48 -201.5t144 -67.5q62 0 117.5 20.5t104.5 60.5q-30 238 -30 356zM640 1171q-64 0 -105 50l-96 123q-54 65 -119 108q-55 36 -55 88q0 44 37.5 79
t91.5 35q82 0 232 -155q147 -151 147 -218q0 -46 -40.5 -78t-92.5 -32z" />
    <glyph glyph-name="acircumflex" unicode="&#xe2;" horiz-adv-x="1138" 
d="M965 -66q-46 0 -146 100q-92 -44 -162 -66.5t-119 -22.5q-241 0 -361.5 129t-120.5 386q0 241 178 412.5t426 171.5q95 0 220 -54q151 -65 151 -151q0 -36 -23 -63q-10 -40 -15.5 -100.5t-5.5 -141.5q0 -191 27 -275q3 -9 46 -104q39 -86 39 -98q0 -53 -40.5 -88
t-93.5 -35zM717 620q0 32 4.5 73.5t13.5 92.5q-20 10 -35.5 14.5t-26.5 4.5q-136 0 -238 -106.5t-102 -246.5q0 -134 48 -201.5t144 -67.5q62 0 117.5 20.5t104.5 60.5q-30 238 -30 356zM921 1194q-49 0 -91 35l-218 200q-243 -255 -330 -255q-53 0 -92 34.5t-39 80.5
q0 45 43 81q53 45 302 290q39 38 91 38q66 0 148 -60q29 -21 122 -106l160 -148q36 -35 36 -76q0 -46 -39.5 -80t-92.5 -34z" />
    <glyph glyph-name="adieresis" unicode="&#xe4;" horiz-adv-x="1138" 
d="M965 -66q-46 0 -146 100q-92 -44 -162 -66.5t-119 -22.5q-241 0 -361.5 129t-120.5 386q0 241 178 412.5t426 171.5q95 0 220 -54q151 -65 151 -151q0 -36 -23 -63q-10 -40 -15.5 -100.5t-5.5 -141.5q0 -191 27 -275q3 -9 46 -104q39 -86 39 -98q0 -53 -40.5 -88
t-93.5 -35zM717 620q0 32 4.5 73.5t13.5 92.5q-20 10 -35.5 14.5t-26.5 4.5q-136 0 -238 -106.5t-102 -246.5q0 -134 48 -201.5t144 -67.5q62 0 117.5 20.5t104.5 60.5q-30 238 -30 356zM839 1164q-59 0 -111 32q-62 38 -62 96q0 140 208 140q54 0 107 -36q61 -41 61 -98
q0 -67 -68 -104q-56 -30 -135 -30zM408 1164q-186 0 -186 142q0 48 62 90q58 39 113 39q193 0 192 -144q0 -50 -70 -91q-61 -36 -111 -36z" />
    <glyph glyph-name="atilde" unicode="&#xe3;" horiz-adv-x="1138" 
d="M965 -66q-46 0 -146 100q-92 -44 -162 -66.5t-119 -22.5q-241 0 -361.5 129t-120.5 386q0 241 178 412.5t426 171.5q95 0 220 -54q151 -65 151 -151q0 -36 -23 -63q-10 -40 -15.5 -100.5t-5.5 -141.5q0 -191 27 -275q3 -9 46 -104q39 -86 39 -98q0 -53 -40.5 -88
t-93.5 -35zM717 620q0 32 4.5 73.5t13.5 92.5q-20 10 -35.5 14.5t-26.5 4.5q-136 0 -238 -106.5t-102 -246.5q0 -134 48 -201.5t144 -67.5q62 0 117.5 20.5t104.5 60.5q-30 238 -30 356zM968 1220q-67 -57 -171 -57q-117 0 -188 32q-66 30 -130 107q-36 43 -69 43
q-55 0 -97 -72.5t-110 -72.5q-46 0 -80 25q-37 27 -37 67q0 13 5 28q31 93 114 152q88 62 205 62q100 0 161 -38q36 -22 106 -100q40 -44 89 -44q41 0 63 28l33 57q5 16 19 47q24 43 96 43q49 0 82 -27t33 -67q0 -37 -47 -114q-44 -71 -77 -99z" />
    <glyph glyph-name="aring" unicode="&#xe5;" horiz-adv-x="1138" 
d="M965 -66q-46 0 -146 100q-92 -44 -162 -66.5t-119 -22.5q-241 0 -361.5 129t-120.5 386q0 241 178 412.5t426 171.5q95 0 220 -54q151 -65 151 -151q0 -36 -23 -63q-10 -40 -15.5 -100.5t-5.5 -141.5q0 -191 27 -275q3 -9 46 -104q39 -86 39 -98q0 -53 -40.5 -88
t-93.5 -35zM717 620q0 32 4.5 73.5t13.5 92.5q-20 10 -35.5 14.5t-26.5 4.5q-136 0 -238 -106.5t-102 -246.5q0 -134 48 -201.5t144 -67.5q62 0 117.5 20.5t104.5 60.5q-30 238 -30 356zM581 1186q-150 -2 -253 76q-104 77 -104 190q0 144 118 228q111 78 285 78
q139 0 239 -70q112 -76 112 -201q0 -157 -127 -235q-103 -64 -270 -66zM627 1557q-176 0 -173 -104q1 -26 51.5 -47.5t108.5 -21.5q67 0 100.5 26t33.5 77q0 31 -34.5 50.5t-86.5 19.5z" />
    <glyph glyph-name="ccedilla" unicode="&#xe7;" horiz-adv-x="1052" 
d="M774 -43q18 -31 27 -63t9 -65q0 -128 -73.5 -201t-208.5 -73q-96 0 -187 43q-110 52 -110 135q0 89 108 89q39 0 90 -23.5t87 -23.5q29 1 43.5 13.5t14.5 36.5q0 31 -30.5 58t-92.5 50q-171 38 -275 158q-111 127 -111 308q0 203 141 418q160 246 372 246q104 0 243 -57
q169 -69 169 -161q0 -50 -34 -89q-37 -42 -93 -42q-43 0 -103.5 47.5t-181.5 47.5q-77 0 -167 -154q-86 -148 -86 -256q0 -107 76 -168q72 -58 190 -58q67 0 164 52t123 52q54 0 92.5 -39.5t38.5 -90.5q0 -52 -73 -107q-65 -49 -162 -83z" />
    <glyph glyph-name="eacute" unicode="&#xe9;" horiz-adv-x="1145" 
d="M606 -46q-239 0 -391 114q-168 126 -168 355q0 253 133 428q148 194 399 194q174 0 289 -56q151 -74 151 -230q0 -110 -123 -195q-56 -39 -225 -114l-337 -149q48 -52 116 -78t156 -26q134 0 227 55q83 49 133 49q104 0 104 -101q0 -114 -167 -186q-140 -60 -297 -60z
M579 803q-93 0 -159 -62t-106 -186l225 97q135 61 215 113q-67 38 -175 38zM717 1341q-82 -90 -130 -125q-39 -29 -86 -29q-53 0 -92 34t-39 79q0 37 42 81l73 68q107 117 126 134q91 82 161 82q53 0 91.5 -35t38.5 -79q0 -51 -53.5 -87.5t-131.5 -122.5z" />
    <glyph glyph-name="egrave" unicode="&#xe8;" horiz-adv-x="1145" 
d="M606 -46q-239 0 -391 114q-168 126 -168 355q0 253 133 428q148 194 399 194q174 0 289 -56q151 -74 151 -230q0 -110 -123 -195q-56 -39 -225 -114l-337 -149q48 -52 116 -78t156 -26q134 0 227 55q83 49 133 49q104 0 104 -101q0 -114 -167 -186q-140 -60 -297 -60z
M579 803q-93 0 -159 -62t-106 -186l225 97q135 61 215 113q-67 38 -175 38zM642 1178q-64 0 -105 50l-96 123q-54 65 -119 108q-55 36 -55 88q0 44 37.5 79t91.5 35q82 0 232 -155q147 -151 147 -218q0 -46 -40.5 -78t-92.5 -32z" />
    <glyph glyph-name="ecircumflex" unicode="&#xea;" horiz-adv-x="1145" 
d="M606 -46q-239 0 -391 114q-168 126 -168 355q0 253 133 428q148 194 399 194q174 0 289 -56q151 -74 151 -230q0 -110 -123 -195q-56 -39 -225 -114l-337 -149q48 -52 116 -78t156 -26q134 0 227 55q83 49 133 49q104 0 104 -101q0 -114 -167 -186q-140 -60 -297 -60z
M579 803q-93 0 -159 -62t-106 -186l225 97q135 61 215 113q-67 38 -175 38zM919 1186q-49 0 -91 35l-218 200q-243 -255 -330 -255q-53 0 -92 34.5t-39 80.5q0 45 43 81q53 45 302 290q39 38 91 38q66 0 148 -60q29 -21 122 -106l160 -148q36 -35 36 -76q0 -46 -39.5 -80
t-92.5 -34z" />
    <glyph glyph-name="edieresis" unicode="&#xeb;" horiz-adv-x="1145" 
d="M606 -46q-239 0 -391 114q-168 126 -168 355q0 253 133 428q148 194 399 194q174 0 289 -56q151 -74 151 -230q0 -110 -123 -195q-56 -39 -225 -114l-337 -149q48 -52 116 -78t156 -26q134 0 227 55q83 49 133 49q104 0 104 -101q0 -114 -167 -186q-140 -60 -297 -60z
M579 803q-93 0 -159 -62t-106 -186l225 97q135 61 215 113q-67 38 -175 38zM855 1261q-59 0 -111 32q-62 38 -62 96q0 140 208 140q54 0 107 -36q61 -41 61 -98q0 -67 -68 -104q-56 -30 -135 -30zM424 1261q-186 0 -186 142q0 48 62 90q58 39 113 39q193 0 192 -144
q0 -50 -70 -91q-61 -36 -111 -36z" />
    <glyph glyph-name="iacute" unicode="&#xed;" horiz-adv-x="574" 
d="M455 469q0 -57 3.5 -183t3.5 -183q0 -58 -39 -95.5t-99 -37.5t-99 37.5t-39 95.5q0 57 -3.5 183t-3.5 183q0 89 10 223t10 223q0 58 39 95.5t99 37.5t99 -37.5t39 -95.5q0 -89 -10 -223t-10 -223zM443 1341q-82 -90 -130 -125q-39 -29 -86 -29q-53 0 -92 34t-39 79
q0 37 42 81l73 68q107 117 126 134q91 82 161 82q53 0 91.5 -35t38.5 -79q0 -51 -53.5 -87.5t-131.5 -122.5z" />
    <glyph glyph-name="igrave" unicode="&#xec;" horiz-adv-x="574" 
d="M455 469q0 -57 3.5 -183t3.5 -183q0 -58 -39 -95.5t-99 -37.5t-99 37.5t-39 95.5q0 57 -3.5 183t-3.5 183q0 89 10 223t10 223q0 58 39 95.5t99 37.5t99 -37.5t39 -95.5q0 -89 -10 -223t-10 -223zM400 1178q-64 0 -105 50l-96 123q-54 65 -119 108q-55 36 -55 88
q0 44 37.5 79t91.5 35q82 0 232 -155q147 -151 147 -218q0 -46 -40.5 -78t-92.5 -32z" />
    <glyph glyph-name="icircumflex" unicode="&#xee;" horiz-adv-x="574" 
d="M455 469q0 -57 3.5 -183t3.5 -183q0 -58 -39 -95.5t-99 -37.5t-99 37.5t-39 95.5q0 57 -3.5 183t-3.5 183q0 89 10 223t10 223q0 58 39 95.5t99 37.5t99 -37.5t39 -95.5q0 -89 -10 -223t-10 -223zM628 1187q-49 0 -91 35l-218 200q-243 -255 -330 -255q-53 0 -92 34.5
t-39 80.5q0 45 43 81q53 45 302 290q39 38 91 38q66 0 148 -60q29 -21 122 -106l160 -148q36 -35 36 -76q0 -46 -39.5 -80t-92.5 -34z" />
    <glyph glyph-name="idieresis" unicode="&#xef;" horiz-adv-x="574" 
d="M415 469q0 -57 3.5 -183t3.5 -183q0 -58 -39 -95.5t-99 -37.5t-99 37.5t-39 95.5q0 57 -3.5 183t-3.5 183q0 89 10 223t10 223q0 58 39 95.5t99 37.5t99 -37.5t39 -95.5q0 -89 -10 -223t-10 -223zM508 1164q-59 0 -111 32q-62 38 -62 96q0 140 208 140q54 0 107 -36
q61 -41 61 -98q0 -67 -68 -104q-56 -30 -135 -30zM77 1164q-186 0 -186 142q0 48 62 90q58 39 113 39q193 0 192 -144q0 -50 -70 -91q-61 -36 -111 -36z" />
    <glyph glyph-name="ntilde" unicode="&#xf1;" horiz-adv-x="1072" 
d="M890 -71q-123 0 -137 121l-28 207q-15 110 -15 207q0 26 3.5 89t3.5 89q0 7 2 35.5t2 46.5q0 83 -43 83q-92 0 -180.5 -107.5t-138.5 -272.5q-2 -33 -9 -88q-6 -45 -6 -88q0 -28 6.5 -84.5t6.5 -84.5q0 -57 -39.5 -94.5t-99.5 -37.5t-99 37.5t-39 94.5q0 28 -6 84.5
t-6 84.5q0 96 14 267t14 267q0 30 -3.5 89.5t-3.5 88.5q0 56 40.5 92.5t99.5 36.5q131 0 140 -157l1 -11q146 147 308 147q189 0 261 -158q48 -106 48 -317v-71q-1 -46 -1 -65q0 -78 21.5 -201t21.5 -200q0 -56 -40 -93t-99 -37zM990 1240q-67 -57 -171 -57q-117 0 -188 32
q-66 30 -130 107q-36 43 -69 43q-55 0 -97 -72.5t-110 -72.5q-46 0 -80 25q-37 27 -37 67q0 13 5 28q31 93 114 152q88 62 205 62q100 0 161 -38q36 -22 106 -100q40 -44 89 -44q41 0 63 28l33 57q5 16 19 47q24 43 96 43q49 0 82 -27t33 -67q0 -37 -47 -114
q-44 -71 -77 -99z" />
    <glyph glyph-name="oacute" unicode="&#xf3;" horiz-adv-x="1077" 
d="M521 -59q-185 0 -318 127q-146 139 -153 371q-7 221 121 394q152 204 423 204q200 0 318 -160q106 -144 106 -357q0 -232 -124 -396q-139 -183 -373 -183zM581 773q-123 1 -194 -112q-60 -95 -60 -222q0 -120 68 -184q54 -51 126 -51q87 0 151 59q73 69 78 187
q13 322 -169 323zM699 1341q-82 -90 -130 -125q-39 -29 -86 -29q-53 0 -92 34t-39 79q0 37 42 81l73 68q107 117 126 134q91 82 161 82q53 0 91.5 -35t38.5 -79q0 -51 -53.5 -87.5t-131.5 -122.5z" />
    <glyph glyph-name="ograve" unicode="&#xf2;" horiz-adv-x="1077" 
d="M561 -59q-185 0 -318 127q-146 139 -153 371q-7 221 121 394q152 204 423 204q200 0 318 -160q106 -144 106 -357q0 -232 -124 -396q-139 -183 -373 -183zM621 773q-123 1 -194 -112q-60 -95 -60 -222q0 -120 68 -184q54 -51 126 -51q87 0 151 59q73 69 78 187
q13 322 -169 323zM756 1178q-64 0 -105 50l-96 123q-54 65 -119 108q-55 36 -55 88q0 44 37.5 79t91.5 35q82 0 232 -155q147 -151 147 -218q0 -46 -40.5 -78t-92.5 -32z" />
    <glyph glyph-name="ocircumflex" unicode="&#xf4;" horiz-adv-x="1077" 
d="M561 -59q-185 0 -318 127q-146 139 -153 371q-7 221 121 394q152 204 423 204q200 0 318 -160q106 -144 106 -357q0 -232 -124 -396q-139 -183 -373 -183zM621 773q-123 1 -194 -112q-60 -95 -60 -222q0 -120 68 -184q54 -51 126 -51q87 0 151 59q73 69 78 187
q13 322 -169 323zM943 1186q-49 0 -91 35l-218 200q-243 -255 -330 -255q-53 0 -92 34.5t-39 80.5q0 45 43 81q53 45 302 290q39 38 91 38q66 0 148 -60q29 -21 122 -106l160 -148q36 -35 36 -76q0 -46 -39.5 -80t-92.5 -34z" />
    <glyph glyph-name="odieresis" unicode="&#xf6;" horiz-adv-x="1077" 
d="M521 -59q-185 0 -318 127q-146 139 -153 371q-7 221 121 394q152 204 423 204q200 0 318 -160q106 -144 106 -357q0 -232 -124 -396q-139 -183 -373 -183zM581 773q-123 1 -194 -112q-60 -95 -60 -222q0 -120 68 -184q54 -51 126 -51q87 0 151 59q73 69 78 187
q13 322 -169 323zM834 1164q-59 0 -111 32q-62 38 -62 96q0 140 208 140q54 0 107 -36q61 -41 61 -98q0 -67 -68 -104q-56 -30 -135 -30zM403 1164q-186 0 -186 142q0 48 62 90q58 39 113 39q193 0 192 -144q0 -50 -70 -91q-61 -36 -111 -36z" />
    <glyph glyph-name="otilde" unicode="&#xf5;" horiz-adv-x="1077" 
d="M561 -59q-185 0 -318 127q-146 139 -153 371q-7 221 121 394q152 204 423 204q200 0 318 -160q106 -144 106 -357q0 -232 -124 -396q-139 -183 -373 -183zM621 773q-123 1 -194 -112q-60 -95 -60 -222q0 -120 68 -184q54 -51 126 -51q87 0 151 59q73 69 78 187
q13 322 -169 323zM1050 1240q-67 -57 -171 -57q-117 0 -188 32q-66 30 -130 107q-36 43 -69 43q-55 0 -97 -72.5t-110 -72.5q-46 0 -80 25q-37 27 -37 67q0 13 5 28q31 93 114 152q88 62 205 62q100 0 161 -38q36 -22 106 -100q40 -44 89 -44q41 0 63 28l33 57q5 16 19 47
q24 43 96 43q49 0 82 -27t33 -67q0 -37 -47 -114q-44 -71 -77 -99z" />
    <glyph glyph-name="uacute" unicode="&#xfa;" horiz-adv-x="1065" 
d="M1034 578q0 -67 1 -202t1 -202q0 -21 3.5 -62.5t3.5 -62.5q0 -56 -40.5 -92.5t-99.5 -36.5q-83 0 -121 75q-128 -47 -265 -47q-142 0 -239 60q-109 69 -130 201q-39 250 -39 447q0 130 30 297q20 113 135 113q58 0 99 -36.5t41 -92.5q0 -44 -14.5 -138t-14.5 -143
q0 -141 9.5 -246.5t28.5 -174.5q25 -11 48.5 -17t45.5 -6q111 0 244 32q0 77 -1 175q-2 117 -2 168q0 205 19 354q15 119 136 119q59 0 101 -37t39 -93q-19 -381 -19 -352zM820 1341q-82 -90 -130 -125q-39 -29 -86 -29q-53 0 -92 34t-39 79q0 37 42 81l73 68
q107 117 126 134q91 82 161 82q53 0 91.5 -35t38.5 -79q0 -51 -53.5 -87.5t-131.5 -122.5z" />
    <glyph glyph-name="ugrave" unicode="&#xf9;" horiz-adv-x="1065" 
d="M1034 578q0 -67 1 -202t1 -202q0 -21 3.5 -62.5t3.5 -62.5q0 -56 -40.5 -92.5t-99.5 -36.5q-83 0 -121 75q-128 -47 -265 -47q-142 0 -239 60q-109 69 -130 201q-39 250 -39 447q0 130 30 297q20 113 135 113q58 0 99 -36.5t41 -92.5q0 -44 -14.5 -138t-14.5 -143
q0 -141 9.5 -246.5t28.5 -174.5q25 -11 48.5 -17t45.5 -6q111 0 244 32q0 77 -1 175q-2 117 -2 168q0 205 19 354q15 119 136 119q59 0 101 -37t39 -93q-19 -381 -19 -352zM729 1186q-64 0 -105 50l-96 123q-54 65 -119 108q-55 36 -55 88q0 44 37.5 79t91.5 35
q82 0 232 -155q147 -151 147 -218q0 -46 -40.5 -78t-92.5 -32z" />
    <glyph glyph-name="ucircumflex" unicode="&#xfb;" horiz-adv-x="1065" 
d="M1034 578q0 -67 1 -202t1 -202q0 -21 3.5 -62.5t3.5 -62.5q0 -56 -40.5 -92.5t-99.5 -36.5q-83 0 -121 75q-128 -47 -265 -47q-142 0 -239 60q-109 69 -130 201q-39 250 -39 447q0 130 30 297q20 113 135 113q58 0 99 -36.5t41 -92.5q0 -44 -14.5 -138t-14.5 -143
q0 -141 9.5 -246.5t28.5 -174.5q25 -11 48.5 -17t45.5 -6q111 0 244 32q0 77 -1 175q-2 117 -2 168q0 205 19 354q15 119 136 119q59 0 101 -37t39 -93q-19 -381 -19 -352zM962 1186q-49 0 -91 35l-218 200q-243 -255 -330 -255q-53 0 -92 34.5t-39 80.5q0 45 43 81
q53 45 302 290q39 38 91 38q66 0 148 -60q29 -21 122 -106l160 -148q36 -35 36 -76q0 -46 -39.5 -80t-92.5 -34z" />
    <glyph glyph-name="udieresis" unicode="&#xfc;" horiz-adv-x="1065" 
d="M1034 578q0 -67 1 -202t1 -202q0 -21 3.5 -62.5t3.5 -62.5q0 -56 -40.5 -92.5t-99.5 -36.5q-83 0 -121 75q-128 -47 -265 -47q-142 0 -239 60q-109 69 -130 201q-39 250 -39 447q0 130 30 297q20 113 135 113q58 0 99 -36.5t41 -92.5q0 -44 -14.5 -138t-14.5 -143
q0 -141 9.5 -246.5t28.5 -174.5q25 -11 48.5 -17t45.5 -6q111 0 244 32q0 77 -1 175q-2 117 -2 168q0 205 19 354q15 119 136 119q59 0 101 -37t39 -93q-19 -381 -19 -352zM864 1164q-59 0 -111 32q-62 38 -62 96q0 140 208 140q54 0 107 -36q61 -41 61 -98q0 -67 -68 -104
q-56 -30 -135 -30zM433 1164q-186 0 -186 142q0 48 62 90q58 39 113 39q193 0 192 -144q0 -50 -70 -91q-61 -36 -111 -36z" />
    <glyph glyph-name="dagger" unicode="&#x2020;" 
d="M1059 937q-54 -10 -195 -10q-51 0 -132 3q-8 -199 -9 -502q-1 -461 -2 -503q-1 -57 -40 -95t-99 -38t-99 38t-40 95q-10 504 11 1009q-149 -2 -179 -2q-249 0 -249 143q0 55 38 95.5t98 40.5q32 0 96.5 -5.5t97.5 -5.5q-5 0 109 2q11 296 11 361q0 58 39.5 96t99.5 38
t99.5 -38t39.5 -96q0 -71 -11 -367q73 -3 114 -3q37 0 110 9t109 9q60 0 98 -40.5t38 -95.5q0 -110 -153 -138z" />
    <glyph glyph-name="degree" unicode="&#xb0;" 
d="M587 974q-172 0 -274 111q-93 101 -93 249q0 150 118 250q112 96 267 96q172 0 282.5 -104.5t110.5 -262.5q0 -145 -128 -244q-122 -95 -283 -95zM605 1474q-60 0 -106 -39q-50 -42 -50 -101q0 -65 35 -108q38 -46 103 -46q72 0 126.5 39.5t54.5 93.5q0 75 -44 118
t-119 43z" />
    <glyph glyph-name="cent" unicode="&#xa2;" 
d="M1138 608q-133 -316 -427 -342v-102q0 -130 -97 -130q-55 0 -74.5 20.5t-19.5 73.5v148q-441 156 -441 597q0 185 129 366.5t312 243.5q1 119 8 158q17 91 73 96q48 4 82.5 -31.5t34.5 -88.5q0 -103 -1 -134q128 -21 181 -47q46 50 116 50q47 0 75 -29.5t28 -71.5
q0 -56 -46 -164q-53 -122 -101 -122q-28 0 -66 36l-55 56q-15 13 -132 51v-737q86 15 142 85q7 9 72 118q34 59 74 57q53 -3 95 -30q49 -32 49 -80q0 -21 -11 -47zM325 873q0 -271 195 -351v702q-63 -41 -127 -152q-68 -117 -68 -199z" />
    <glyph glyph-name="sterling" unicode="&#xa3;" horiz-adv-x="1625" 
d="M587 210q79 -3 219 -59q136 -54 218 -54q191 0 212 99.5t26 109.5q26 50 107 50q60 0 95 -37.5t35 -92.5q0 -58 -23 -126q-85 -250 -452 -250q-95 0 -241.5 56.5t-232.5 56.5q-64 0 -148 -40t-111 -40q-52 0 -89.5 36.5t-37.5 85.5q0 42 49 92q72 74 92 105q49 79 49 190
q0 84 -50 284q-51 -2 -119 -2q-188 0 -188 127q0 51 36 87.5t91 36.5q18 0 55 -2t55 -2h30v16q-3 273 148 461q170 212 470 212q169 0 312 -70q183 -91 183 -253q0 -52 -40.5 -86.5t-92.5 -34.5q-66 0 -100 52q-56 85 -71 98q-65 52 -204 52q-171 0 -263 -128
q-84 -116 -84 -302q104 8 192 8q58 0 174 -5.5t174 -5.5q55 0 92 -35.5t37 -88.5t-37 -88t-92 -35q-58 0 -174 6t-174 6q-64 0 -153 -6q51 -204 51 -302q0 -95 -25 -182z" />
    <glyph glyph-name="section" unicode="&#xa7;" horiz-adv-x="1300" 
d="M1066 518q72 -98 72 -217q0 -192 -158 -293q-133 -85 -335 -85q-240 0 -390 96q-178 115 -178 339q0 54 36.5 89t92.5 35q77 0 106 -65l35 -124q51 -149 291 -149q112 0 167.5 37.5t55.5 111.5q0 120 -236 173q-241 54 -318 112q-123 93 -123 316q0 101 106 206
q-33 66 -50 115t-17 82q0 169 152 264q127 80 300 80q252 0 413 -165q44 -45 44 -97q0 -48 -35 -86t-88 -38q-42 0 -147 75.5t-184 75.5q-70 0 -128 -30q-62 -32 -62 -78t45 -86t134 -74l280 -90q204 -84 204 -333q0 -41 -25 -103q-27 -67 -60 -94zM882 634q10 63 10 99
q0 78 -188 153l-271 100q-9 -11 -24 -53t-15 -53q0 -98 135 -152q17 -6 224 -59q46 -10 129 -35z" />
    <glyph glyph-name="bullet" unicode="&#x2022;" 
d="M600 558q-100 0 -170.5 58.5t-70.5 141.5t70.5 142t170.5 59q99 0 169.5 -59t70.5 -142t-70 -141.5t-170 -58.5z" />
    <glyph glyph-name="paragraph" unicode="&#xb6;" horiz-adv-x="1558" 
d="M1196 -108q-42 -76 -115 -76q-52 0 -91 33q-42 36 -42 88q0 20 8 44q74 226 146 621q76 413 76 626q0 49 -15.5 145t-15.5 144q0 54 38 87.5t93 33.5q96 0 125 -102q33 -115 33 -308q0 -169 -87 -684q-92 -542 -153 -652zM1036 1420q2 -41 2 -67q0 -369 -50 -765
q-61 -481 -131 -695q-29 -89 -121 -89q-52 0 -91 33q-42 35 -42 88q0 11 6 35q8 31 69 406h-16q-235 0 -420 121q-211 140 -211 366q0 254 151 439q143 175 397 261q40 14 200 56q179 48 205 48q55 0 92 -41q35 -37 35 -87q0 -74 -75 -109zM780 1350q-235 -59 -352 -164
q-139 -124 -139 -333q0 -107 124 -177q112 -63 249 -63q26 0 67 11q52 296 52 630q0 49 -1 96z" />
    <glyph glyph-name="germandbls" unicode="&#xdf;" horiz-adv-x="1093" 
d="M625 -77q-109 0 -137 14q-53 25 -53 127q0 42 24 74q29 38 81 38q42 0 47.5 1t32.5 1q67 0 90 19q27 22 27 86q0 113 -34 198t-103 142l-105 78q-59 51 -59 108q0 63 121.5 165.5t121.5 175.5q0 81 -24 121t-73 40q-106 0 -154 -120q-27 -69 -40 -210q-18 -194 -18 -427
q0 -58 3.5 -175.5t3.5 -175.5q0 -162 -13 -220q-31 -140 -140 -140q-55 0 -95 34q-43 36 -43 91q0 12 2 25q20 134 20 246q0 51 5 152.5t5 152.5q0 37 -1 111t-1 111q0 340 68 519q109 285 402 285q183 0 286 -136q89 -118 89 -290q0 -147 -185 -329q229 -174 229 -522
q0 -175 -97 -271q-100 -99 -283 -99z" />
    <glyph glyph-name="registered" unicode="&#xae;" horiz-adv-x="1629" 
d="M769 207q-313 0 -508 160q-210 173 -210 481q0 363 221 569q230 214 657 214q280 0 470 -212q180 -200 180 -464q0 -328 -261 -547q-241 -201 -549 -201zM912 1388q-301 0 -452 -135t-151 -405q0 -201 131 -303q119 -94 329 -94q205 0 368 131q180 146 181 370
q1 176 -112 303q-118 133 -294 133zM858 824q39 -16 148 -84q42 -31 48 -38q18 -19 18 -51q-1 -95 -94 -95q-87 0 -174 66q-25 19 -146 137q-18 -102 -32 -133q-33 -66 -109 -64q-47 1 -75 59q-25 50 -25 112q0 153 73 409q17 60 103 119t172 63q33 2 61 2q335 0 335 -244
q0 -138 -93 -196q-56 -36 -210 -62zM781 1176h-51q-20 -97 -42 -218q263 12 263 147q0 80 -170 71z" />
    <glyph glyph-name="copyright" unicode="&#xa9;" horiz-adv-x="1629" 
d="M818 251q-361 -4 -558 155q-210 169 -210 507q0 274 260.5 490.5t592.5 216.5q308 0 488 -188q171 -178 171 -461q0 -248 -213 -474q-229 -243 -531 -246zM944 1372q-288 2 -465 -132q-171 -128 -171 -327q0 -211 126 -325q112 -101 291 -101q218 0 391 137
q187 148 187 366q0 174 -85 273q-92 108 -274 109zM812 604q-155 -3 -270 69q-131 83 -131 226q0 169 164 279q146 98 320 98q177 0 177 -112q0 -100 -94 -100q-10 0 -29.5 5t-29.5 5q-103 0 -189 -55q-82 -52 -80 -108q4 -101 145 -101q62 0 144.5 53t120.5 53
q83 0 83 -106q0 -89 -109 -149q-99 -55 -222 -57z" />
    <glyph glyph-name="trademark" unicode="&#x2122;" horiz-adv-x="1808" 
d="M862 1386q-93 -8 -276 -11q-1 -46 7 -133q8 -92 8 -134q0 -27 13.5 -79t13.5 -79q0 -44 -36 -73t-82 -29q-70 0 -101 50q-24 37 -28 109q-2 56 -3 111q-10 86 -21 256q-24 1 -102 7q-64 5 -103 5q-49 0 -82 30t-33 74t33 74t82 30q36 0 108.5 -6.5t108.5 -6.5
q161 0 323 6q14 1 79 4q49 3 79 3q73 0 105 -52q32 54 98 54q151 0 210 -316q109 329 214 329q86 0 110 -82q23 -69 66 -209l47 -161q29 -89 68 -154q17 -28 17 -54q0 -44 -36 -73.5t-82 -29.5q-121 0 -202 338q-134 -322 -250 -322q-75 0 -105 85q-20 61 -46 213
q-108 -292 -224 -292q-46 0 -81.5 31t-35.5 74q0 31 26 64q54 69 93 172q10 28 58 186q-20 -8 -38 -9z" />
    <glyph glyph-name="acute" unicode="&#xb4;" horiz-adv-x="1139" 
d="M520 1341q-82 -90 -130 -125q-39 -29 -86 -29q-53 0 -92 34t-39 79q0 37 42 81l73 68q107 117 126 134q91 82 161 82q53 0 91.5 -35t38.5 -79q0 -51 -53.5 -87.5t-131.5 -122.5z" />
    <glyph glyph-name="dieresis" unicode="&#xa8;" horiz-adv-x="1139" 
d="M809 1164q-59 0 -111 32q-62 38 -62 96q0 140 208 140q54 0 107 -36q61 -41 61 -98q0 -67 -68 -104q-56 -30 -135 -30zM378 1164q-186 0 -186 142q0 48 62 90q58 39 113 39q193 0 192 -144q0 -50 -70 -91q-61 -36 -111 -36z" />
    <glyph glyph-name="notequal" unicode="&#x2260;" 
d="M342 263h-10q-56 0 -94 33.5t-38 87.5q0 134 255 129q77 168 115 259h-117q-23 0 -68 -2t-68 -2q-55 0 -91.5 35.5t-36.5 85.5q0 126 196 126l278 -1q77 211 185 209q52 -1 87.5 -33.5t35.5 -81.5q0 -17 -31 -98q110 -17 110 -117q0 -129 -209 -122l-111 -262
q151 -3 177 -3q55 0 92 -34.5t37 -85.5t-37 -86t-92 -35q-39 0 -281 4q-34 -86 -57 -119q-47 -67 -111 -67q-52 0 -92 33t-40 84q0 24 16 63z" />
    <glyph glyph-name="AE" unicode="&#xc6;" horiz-adv-x="2226" 
d="M2118 1297q-17 0 -41 6q-182 45 -316 45q-75 0 -161 -12t-183 -36q5 -40 5 -71q0 -124 -14 -325q85 5 391 37q194 20 241 20q61 0 102 -39t41 -98q0 -113 -124 -135q-81 -6 -242 -20q-142 -16 -428 -39q-6 -109 -6 -205q0 -201 21 -222q15 -15 128 -15q62 0 187 3.5
t187 3.5q20 0 58.5 6t58.5 6q63 0 104.5 -38t41.5 -99q0 -103 -128 -138q-65 -17 -212 -19q-42 0 -112 1q-80 1 -107 1q-309 0 -410 105q-97 100 -97 405q0 101 6 211q-160 -14 -480 -39q-83 -110 -245 -351q-39 -61 -122 -179q-45 -59 -112 -59q-56 0 -100 38.5t-44 93.5
q0 36 25 75q312 486 543 744l310 374q232 255 378 255q43 0 81 -25q116 29 220.5 43.5t197.5 14.5q271 0 405 -59q90 -40 90 -126q0 -54 -38 -95q-41 -44 -100 -44zM1142 1207q-56 -57 -271 -320q138 12 257 16q13 185 14 304z" />
    <glyph glyph-name="Oslash" unicode="&#xd8;" horiz-adv-x="1635" 
d="M1599 1296q-19 -21 -69 -70q72 -139 72 -352q0 -347 -200 -623q-227 -314 -586 -314q-252 0 -447 129q-145 -156 -192 -156q-53 0 -93.5 37.5t-40.5 88.5q0 45 153 198q-106 153 -106 345q0 345 217 626q240 311 599 311q289 0 454 -104q136 130 177 130q52 0 93 -35
t41 -87q0 -44 -72 -124zM906 1244q-228 0 -387 -223q-145 -203 -145 -442q0 -68 25 -131l756 760q-86 36 -249 36zM1307 1010q-101 -94 -248 -246l-243 -250l-246 -248q109 -57 246 -57q226 0 372 224q130 198 130 441q0 82 -11 136z" />
    <glyph glyph-name="infinity" unicode="&#x221e;" horiz-adv-x="1714" 
d="M867 485q-147 -179 -369 -179q-155 0 -270 93q-121 97 -121 241q0 141 109.5 231.5t271.5 90.5q175 0 364 -156q153 146 368 146q167 0 273 -82q112 -87 112 -240t-104 -238q-104 -86 -275 -83q-119 2 -205 52q-51 29 -154 124zM1209 751q-69 0 -119 -30q-34 -20 -86 -76
q120 -141 246 -135q68 3 93 35t25 111q0 48 -39.5 71.5t-119.5 23.5zM628 711q-71 46 -140 46q-68 0 -109.5 -36t-41.5 -93q0 -49 47.5 -78.5t116.5 -29.5q109 0 210 124q-50 46 -83 67z" />
    <glyph glyph-name="plusminus" unicode="&#xb1;" 
d="M972 508q-12 0 -36.5 3.5t-36.5 3.5q-26 0 -80 -2q-50 -1 -79 -1l1 -34q0 -127 -12 -170q-29 -99 -129 -99q-57 0 -90 38q-29 34 -29 84q0 -7 -2 176q-75 -4 -131 -4q-71 0 -126 27q-69 34 -69 97q0 81 64 105q35 13 131 13q56 0 130 4q0 9 -1 37t-1 45q0 215 136 215
q53 0 92 -34t39 -85q0 -17 -3.5 -51t-3.5 -52v-71q22 -1 36 -1q20 0 61 2.5t61 2.5q204 0 204 -126q0 -49 -34 -85q-37 -38 -92 -38zM972 -122q-12 0 -36 3.5t-36 3.5q-92 0 -276 -6.5t-276 -6.5q-71 0 -126 27q-69 34 -69 97q0 118 151 118q66 0 197 5t196 5q33 0 98.5 1
t98.5 1q204 0 204 -125q0 -49 -34 -85q-37 -38 -92 -38z" />
    <glyph glyph-name="lessequal" unicode="&#x2264;" 
d="M827 851q-85 -85 -263 -246q76 -74 234 -215q49 -40 49 -92q0 -49 -38.5 -86.5t-91.5 -37.5q-56 0 -140 72l-116 115q-92 90 -183 124q-96 36 -96 111q0 71 90 111.5t200 148.5q151 149 181 173q41 32 86 32q53 0 92 -37t39 -86q0 -47 -43 -87zM841 -121q-79 0 -224 -3.5
t-225 -3.5q-71 0 -126 27q-69 34 -69 97q0 119 151 119q74 0 224.5 1.5t224.5 1.5q93 0 131 -14q68 -24 68 -100q0 -52 -54 -90q-49 -35 -101 -35z" />
    <glyph glyph-name="greaterequal" unicode="&#x2265;" 
d="M928 559q-240 -210 -504 -369q-38 -23 -74 -23q-54 0 -92 38t-38 87q0 55 55 96l347 247q-116 85 -221 187q-134 128 -134 180q0 50 40.5 86.5t92.5 36.5q54 0 97 -45q223 -234 401 -321q80 -39 80 -106q0 -50 -50 -94zM841 -120q-79 0 -224 -4t-225 -4q-71 0 -126 27
q-69 34 -69 97q0 119 151 119q74 0 224.5 2t224.5 2q93 0 131 -14q68 -24 68 -100q0 -52 -54 -91q-49 -34 -101 -34z" />
    <glyph glyph-name="yen" unicode="&#xa5;" 
d="M481 620l-63 89q-16 1 -205 19q-113 11 -113 116q0 112 124 112q19 0 45 -1q-220 348 -220 386q0 49 39 83t88 34q64 0 102 -56q84 -122 125 -201q49 -94 107 -185l106 -166q97 115 232 385q30 48 82 144q33 73 112 73q49 0 86 -31q40 -34 40 -84q0 -45 -198 -377
q18 2 37 2q53 0 88 -33.5t35 -83.5t-35 -83.5t-88 -33.5q-34 0 -91 -8q-67 -9 -91 -11q-31 -35 -89 -107q48 -1 77 -1q19 0 56.5 5.5t55.5 5.5q53 0 87 -36t34 -83q0 -124 -209 -124q-24 0 -105 4v-93l1 -60q0 -27 4.5 -77.5t4.5 -77.5q0 -50 -34.5 -84t-87.5 -34t-88 34
t-35 84q0 30 -3 90t-3 90v136q-168 12 -185 16q-113 26 -115 112q-1 72 57 99q43 20 120 15l55 -3h58z" />
    <glyph glyph-name="mu1" unicode="&#xb5;" 
d="M1189 763l-57 -200l-89 -409q-6 -43 -22 -129q-13 -53 -57.5 -87.5t-102.5 -34.5q-83 0 -109 75q-135 -46 -271 -46q-69 0 -123 14q-62 -179 -101 -269q-36 -83 -123 -83q-54 0 -96 35t-42 89q0 30 80 241q82 216 90 265q3 43 11 127q39 357 147 609q46 106 151 106
q50 0 84 -29q38 -31 38 -81q0 -46 -40 -154q-49 -132 -56 -160q-58 -252 -58 -407v-15q40 -20 81 -20q119 0 259 34l76 360q47 210 101 354q43 112 153 112q48 0 83 -27q40 -30 40 -80q0 -28 -47 -190z" />
    <glyph glyph-name="partialdiff" unicode="&#x2202;" horiz-adv-x="1042" 
d="M499 -41q-169 0 -293 132q-118 127 -118 287q0 204 143 362q134 149 343 202q-111 212 -216 299l-93 73q-54 49 -54 98q0 50 39 88t92 38q44 0 84 -31q190 -147 362 -431q185 -306 185 -521q0 -237 -101 -397q-125 -199 -373 -199zM672 716q-165 -41 -234 -101
q-92 -79 -92 -237q0 -69 53 -123q49 -50 100 -50q108 0 162 87.5t54 262.5q0 42 -43 161z" />
    <glyph glyph-name="summation" unicode="&#x2211;" horiz-adv-x="1530" 
d="M1356 -313q-181 0 -543.5 16t-543.5 16q-21 0 -62 -6.5t-59 -6.5q-57 0 -100 40t-43 95q0 54 101 157l146 148l127 195q110 156 256 288q-47 49 -109 148t-216 238q-172 154 -229 228q-35 46 -35 94q0 81 81 120q59 29 132 29q168 0 505.5 -6.5t505.5 -6.5q59 0 99 -41
q37 -39 37 -94q0 -138 -223 -138q-73 0 -219.5 8t-219.5 8q-40 0 -122 -2q-73 -1 -122 -1q193 -181 268 -303q47 -77 80 -106l98 -82q48 -45 48 -97q0 -69 -76 -120q-123 -82 -247 -247l-205 -281q208 -11 421 -11q78 0 234.5 -6t234.5 -6q60 0 100 -38t40 -95t-40 -95.5
t-100 -38.5z" />
    <glyph glyph-name="product" unicode="&#x220f;" horiz-adv-x="1860" 
d="M1304 1292q-47 -7 -233 -7q-247 0 -481 8q26 -278 26 -864q0 -47 -6 -131q-7 -93 -8 -131q-1 -39 0 -101q1 -83 1 -102q0 -115 -15 -157q-29 -84 -127 -84q-59 0 -99.5 37t-40.5 94q0 238 2 319q1 38 8 128q6 82 6 128q0 252 -16 739l-11 130q-60 -1 -106 -1
q-60 0 -99.5 38t-39.5 95q0 137 210 137h40q26 -1 37 -1q79 0 235.5 -6t235.5 -6l833 -2q60 0 100 -38t40 -95q0 -144 -213 -133q-11 -145 -11 -397q0 -140 10.5 -421.5t10.5 -421.5q0 -32 9 -95t9 -95q0 -58 -40.5 -95t-99.5 -37q-122 0 -138 123q-19 144 -19 199
q0 140 -10 421.5t-10 421.5q0 262 10 403z" />
    <glyph glyph-name="pi" unicode="&#x3c0;" horiz-adv-x="1286" 
d="M1142 601q-39 -10 -106 -11q-22 -133 -45 -400l70 -54q40 -31 40 -77q0 -54 -37.5 -88.5t-96.5 -34.5q-95 0 -170 62q-79 64 -79 154q0 34 12 144t36 296q-53 2 -158 7q-10 -75 -28 -226q-5 -116 -30 -344q-19 -101 -130 -101q-55 0 -96 34t-41 87q0 68 54 548
q-35 -7 -90 -46q-50 -36 -89 -36q-54 0 -96 36.5t-42 87.5q0 36 27 73q100 136 387 136q80 0 239.5 -4t239.5 -4q32 0 97 2t97 2q60 0 99.5 -33.5t39.5 -90.5q0 -92 -104 -119z" />
    <glyph glyph-name="integral" unicode="&#x222b;" horiz-adv-x="1433" 
d="M1209 1353q-58 0 -102 49t-67 49q-107 0 -137 -181q-11 -67 -11 -261q0 -66 6.5 -199t6.5 -199q0 -52 -21 -277.5t-31 -279.5q-38 -211 -99 -308q-93 -150 -279 -150q-170 0 -300 111q-135 116 -135 282q0 148 139 148q140 0 140 -148q0 -124 172 -122l5 -1q48 2 71 126
q10 57 29 275q18 208 18 545q0 413 39 566q88 342 387 342q94 0 195 -62q118 -73 118 -171q0 -56 -44 -95t-100 -39z" />
    <glyph glyph-name="ordfeminine" unicode="&#xaa;" 
d="M745 1006q-118 -98 -279 -98q-138 0 -243 150q-90 130 -90 246q0 150 126.5 264t296.5 113q165 -1 206 -7q126 -17 173 -85q32 -30 38 -76q22 -171 50 -491q3 -61 -42 -98q-40 -33 -98 -33q-53 0 -91 29q-42 31 -47 86zM541 1429q-44 3 -86.5 -38.5t-42.5 -86.5
q0 -39 12 -82q15 -57 41 -57q176 2 212 263q-45 -1 -136 1z" />
    <glyph glyph-name="ordmasculine" unicode="&#xba;" 
d="M611 892q-192 0 -322 137q-116 122 -116 264q0 149 152.5 279.5t327.5 128.5q140 -1 283 -127q139 -123 139 -231q0 -225 -116 -338t-348 -113zM625 1440q-60 0 -116.5 -51.5t-56.5 -95.5q0 -64 51.5 -112.5t120.5 -48.5q71 0 123 67q49 64 49 144q0 29 -43 60
q-52 37 -128 37z" />
    <glyph glyph-name="Omega" unicode="&#x3a9;" horiz-adv-x="1966" 
d="M1804 -122q-57 0 -172 8t-173 8q-31 0 -92 -2t-92 -2q-69 0 -119 66q-45 58 -45 118q0 62 98 178l148 169q172 235 172 661q0 151 -64 216.5t-219 65.5q-243 0 -465 -152q-239 -164 -239 -377q0 -159 55 -310l122 -290q5 -12 44 -74q28 -44 28 -79q0 -138 -123 -159
q-375 -63 -507 -63q-60 0 -98 41t-38 95q0 101 110 128q93 23 314 44q-113 257 -133 321q-53 160 -53 346q0 335 329 575q302 220 654 220q319 0 453 -185q108 -149 108 -446q0 -455 -316 -838q224 3 332 -18q118 -22 118 -130q0 -55 -38.5 -95t-98.5 -40z" />
    <glyph glyph-name="ae" unicode="&#xe6;" horiz-adv-x="1867" 
d="M786 23q-59 -36 -116.5 -54t-113.5 -18q-235 0 -384 149q-145 144 -145 363q0 236 191 404q187 166 440 166q109 0 255 -48q31 -10 49 -58q135 118 327 118q168 0 283 -54q157 -74 157 -233q0 -111 -123 -195q-53 -37 -225 -113l-337 -149q96 -104 272 -104
q212 0 296 108q36 46 91 46q51 0 90.5 -35t39.5 -84q0 -119 -203 -205q-169 -73 -314 -73q-168 0 -291 63q-19 -59 -115 -59q-93 0 -124 65zM1289 802q-186 0 -265 -249q219 92 227 95q128 58 214 117q-66 37 -176 37zM728 391q0 245 19 393q-40 20 -47 21.5t-57 1.5
q-139 0 -239.5 -109.5t-100.5 -246.5q0 -105 77 -188q79 -86 184 -86q56 0 101.5 17.5t81.5 51.5q-19 106 -19 145z" />
    <glyph glyph-name="oslash" unicode="&#xf8;" horiz-adv-x="1092" 
d="M1068 944q0 -26 -18 -53q-28 -43 -78 -102q55 -121 55 -269q0 -232 -124 -396q-138 -183 -372 -183q-154 0 -276 91q-38 -42 -66 -69q-33 -32 -66 -32q-36 0 -64 27.5t-28 63.5q0 29 24 59q32 40 77 89q-68 116 -72 269q-8 221 120 394q152 204 424 204q152 0 258 -95
q14 18 43 52q34 39 70 39q37 0 65 -26.5t28 -62.5zM686 742q-38 31 -95 31q-124 1 -194 -112q-60 -95 -60 -222q0 -30 4 -57l26 27zM760 450q2 61 -2 109l-77 -79l-241 -251q43 -25 91 -25q86 0 150 59q74 68 79 187z" />
    <glyph glyph-name="questiondown" unicode="&#xbf;" horiz-adv-x="1159" 
d="M761 1273q-69 0 -108 47q-33 40 -33 95q0 62 32 115q42 68 117 68q57 0 104 -36q51 -40 51 -99q0 -69 -37 -123q-45 -67 -126 -67zM653 -72q-217 0 -393 160t-176 366q0 151 95 263q58 68 211 172q158 108 219 175q47 52 105 52t100.5 -41t42.5 -95q0 -80 -128 -180
l-239 -168q-128 -99 -128 -178q0 -93 94.5 -174.5t196.5 -81.5q54 0 147.5 61.5t132.5 61.5q59 0 99.5 -43.5t40.5 -96.5q0 -100 -175 -183q-147 -70 -245 -70z" />
    <glyph glyph-name="exclamdown" unicode="&#xa1;" horiz-adv-x="487" 
d="M282 1309q-60 0 -111 64q-47 59 -47 109q0 51 42 88q39 35 91 35q60 0 112 -64q47 -59 47 -110q0 -52 -41 -87t-93 -35zM384 57q0 -53 -37 -88t-93 -35t-92.5 35t-36.5 88v1062q0 53 36.5 88t92.5 35t93 -35t37 -88q0 -39 2 -116.5t2 -116.5q0 -138 -2 -414.5t-2 -414.5z
" />
    <glyph glyph-name="logicalnot" unicode="&#xac;" 
d="M1090 299q0 -48 -37 -79.5t-93 -31.5t-92.5 31.5t-36.5 79.5q0 134 -1 222q-396 -17 -483 -17q-71 0 -126 24q-69 31 -69 89q0 79 64 131q58 48 130 48t213 3.5t212 3.5q20 0 61 2t62 2q68 0 133 -55q68 -58 70 -129q1 -37 -3 -162q-4 -136 -4 -162z" />
    <glyph glyph-name="radical" unicode="&#x221a;" horiz-adv-x="1244" 
d="M1030 1360q-30 0 -79 4q-58 5 -78 6q-32 -112 -93 -435q-40 -210 -206 -679q-25 -78 -79 -232q-36 -93 -130 -93q-66 0 -109 46q-83 63 -167 239q-79 165 -79 242q0 112 98 108q81 -3 227 -332l123 407q70 228 93 350q44 236 52 271q34 151 83 264q40 92 135 92
q56 0 138.5 6t139.5 6q62 0 103 -37t41 -97q0 -136 -213 -136z" />
    <glyph glyph-name="florin" unicode="&#x192;" horiz-adv-x="1206" 
d="M1069 1302q-209 0 -318 -425q103 7 153 7q176 0 176 -109q0 -112 -100 -140q-38 -11 -188 -11q-21 0 -110 -8q-3 -12 -67 -342q-40 -205 -98 -334q-50 -112 -190 -205q-143 -96 -267 -96q-57 0 -95 41q-35 38 -35 91q0 97 103 123q147 38 212 121q53 68 90 233l69 347
q-52 -4 -95 -4q-122 0 -122 107q0 104 102 138q52 18 187 22q91 325 186 467q159 236 435 236q162 0 162 -105q0 -154 -190 -154z" />
    <glyph glyph-name="approxequal" unicode="&#x2248;" 
d="M902 716q-120 0 -213 71q-49 37 -149 157l-20 25q-60 0 -152 -147q-40 -63 -108 -63q-50 0 -88 31q-41 34 -41 82q0 24 14 52q54 110 143 184q109 91 232 91q94 0 167 -62q6 -6 107 -118q59 -65 114 -69q6 0 33 78q46 135 134 135q126 0 126 -132q0 -109 -82 -207
q-91 -108 -217 -108zM810 246q-120 0 -214 71q-49 38 -149 157l-19 25q-60 0 -152 -147q-40 -63 -108 -63q-50 0 -88 31q-41 34 -41 82q0 24 14 52q54 110 143 184q109 91 232 91q94 0 167 -62q6 -6 107 -118q59 -65 114 -69q6 0 33 79q45 134 134 134q126 0 126 -132
q0 -109 -82 -207q-91 -108 -217 -108z" />
    <glyph glyph-name="uni0394" unicode="&#x394;" horiz-adv-x="1627" 
d="M1403 -72q-76 0 -206 14q-150 15 -207 18q-70 3 -159 3q-74 0 -220.5 -2t-220.5 -2q-43 0 -127.5 -6.5t-126.5 -6.5q-121 0 -121 107q0 51 125 304l163 329l234 560q34 96 113 281q68 136 169 136q80 0 140 -103l75 -167l255 -537q148 -314 239 -544q70 -176 70 -233
q0 -151 -195 -151zM824 1206q-122 -309 -227 -549q-65 -148 -202 -431q221 3 438 3q182 0 299 -12l164 -20q-85 218 -225 509z" />
    <glyph glyph-name="guillemotleft" unicode="&#xab;" horiz-adv-x="1308" 
d="M1257 835q-85 -82 -263 -240q76 -73 234 -211q49 -39 49 -90q0 -48 -38.5 -85t-91.5 -37q-56 0 -140 71l-116 113q-95 91 -178 120q-101 35 -101 110q0 70 90 109.5t200 145.5q151 146 181 169q42 32 86 32q53 0 92 -36.5t39 -84.5q0 -47 -43 -86zM654 855
q-85 -82 -264 -240q76 -73 234 -211q49 -39 49 -90q0 -48 -38 -85t-91 -37q-56 0 -140 71l-116 112q-94 90 -179 120q-101 35 -101 111q0 69 90 108.5t200 146.5q152 146 182 169q40 31 85 31q53 0 92 -36.5t39 -84.5q0 -47 -42 -85z" />
    <glyph glyph-name="guillemotright" unicode="&#xbb;" horiz-adv-x="1308" 
d="M51 835q85 -82 263 -240q-76 -73 -234 -211q-49 -39 -49 -90q0 -48 38.5 -85t91.5 -37q56 0 140 71l116 113q95 91 178 120q101 35 101 110q0 70 -90 109.5t-200 145.5q-151 146 -181 169q-42 32 -86 32q-53 0 -92 -36.5t-39 -84.5q0 -47 43 -86zM654 855
q85 -82 264 -240q-76 -73 -234 -211q-49 -39 -49 -90q0 -48 38 -85t91 -37q56 0 140 71l116 112q94 90 179 120q101 35 101 111q0 69 -90 108.5t-200 146.5q-152 146 -182 169q-40 31 -85 31q-53 0 -92 -36.5t-39 -84.5q0 -47 42 -85z" />
    <glyph glyph-name="ellipsis" unicode="&#x2026;" horiz-adv-x="1383" 
d="M1131 -61q-49 0 -89 18q-51 23 -51 66q0 12 8.5 31.5t9.5 27.5q13 79 135 79q48 0 88 -19q50 -23 50 -67q0 -48 -29 -85q-40 -51 -122 -51zM696 -59q-49 0 -88 18q-49 24 -49 67v47q0 43 49 67q39 18 88 18t87 -18q49 -24 49 -67v-47q0 -43 -49 -67q-38 -18 -87 -18z
M275 -67q-49 0 -87 18q-50 23 -50 66v42q0 43 49 67q39 18 88 18t88 -18q49 -24 49 -67v-42q0 -43 -50 -66q-38 -18 -87 -18z" />
    <glyph glyph-name="nonbreakingspace" unicode="&#xa0;" horiz-adv-x="975" 
 />
    <glyph glyph-name="Agrave" unicode="&#xc0;" horiz-adv-x="1498" 
d="M1290 -30q-79 3 -159 186q-53 118 -91 272q-74 -11 -242 -22q-158 -11 -242 -26q-46 -110 -160 -331q-44 -72 -122 -72q-55 0 -99 37.5t-44 95.5q0 51 146 346q-14 31 -12 58q4 48 97 75q142 246 316 510q250 379 308 379q110 0 147 -133l63 -321q61 -288 149 -659
q7 -28 51 -132q36 -86 36 -129q0 -58 -43.5 -97t-98.5 -37zM917 996l-215 -365q45 10 140 16q112 7 141 11q-24 130 -66 338zM1046 1638q-64 0 -105 50l-96 123q-54 65 -119 108q-55 36 -55 88q0 44 37.5 79t91.5 35q82 0 232 -155q147 -151 147 -218q0 -46 -40.5 -78
t-92.5 -32z" />
    <glyph glyph-name="Atilde" unicode="&#xc3;" horiz-adv-x="1498" 
d="M1290 -30q-79 3 -159 186q-53 118 -91 272q-74 -11 -242 -22q-158 -11 -242 -26q-46 -110 -160 -331q-44 -72 -122 -72q-55 0 -99 37.5t-44 95.5q0 51 146 346q-14 31 -12 58q4 48 97 75q142 246 316 510q250 379 308 379q110 0 147 -133l63 -321q61 -288 149 -659
q7 -28 51 -132q36 -86 36 -129q0 -58 -43.5 -97t-98.5 -37zM917 996l-215 -365q45 10 140 16q112 7 141 11q-24 130 -66 338zM1403 1691q-67 -57 -171 -57q-117 0 -188 32q-66 30 -130 107q-36 43 -69 43q-55 0 -97 -72.5t-110 -72.5q-46 0 -80 25q-37 27 -37 67q0 13 5 28
q31 93 114 152q88 62 205 62q100 0 161 -38q36 -22 106 -100q40 -44 89 -44q41 0 63 28l33 57q5 16 19 47q24 43 96 43q49 0 82 -27t33 -67q0 -37 -47 -114q-44 -71 -77 -99z" />
    <glyph glyph-name="Otilde" unicode="&#xd5;" horiz-adv-x="1635" 
d="M842 -61q-296 0 -504 170q-222 182 -222 471q0 340 213 620q239 315 602 315q349 0 523 -160t174 -481q0 -340 -196 -616q-226 -319 -590 -319zM931 1244q-223 0 -382 -216q-149 -202 -149 -448q0 -166 129 -270q124 -100 313 -100q220 0 367 216q135 197 135 448
q0 210 -94 292q-90 78 -319 78zM1425 1693q-67 -57 -171 -57q-117 0 -188 32q-66 30 -130 107q-36 43 -69 43q-55 0 -97 -72.5t-110 -72.5q-46 0 -80 25q-37 27 -37 67q0 13 5 28q31 93 114 152q88 62 205 62q100 0 161 -38q36 -22 106 -100q40 -44 89 -44q41 0 63 28l33 57
q5 16 19 47q24 43 96 43q49 0 82 -27t33 -67q0 -37 -47 -114q-44 -71 -77 -99z" />
    <glyph glyph-name="OE" unicode="&#x152;" horiz-adv-x="2445" 
d="M2332 1304q-20 0 -42 6q-165 45 -316 45q-73 0 -158.5 -12t-184.5 -37q2 -16 3 -33.5t1 -37.5q0 -137 -13 -324q56 4 391 37q191 19 241 19q59 0 101 -37.5t42 -99.5q0 -119 -126 -135q-80 -6 -240 -20q-142 -16 -428 -39q-6 -109 -6 -205q0 -196 23 -223q11 -13 125 -13
q62 0 187 3.5t187 3.5q20 0 59 5.5t58 5.5q58 0 99 -33q48 -37 48 -104q0 -112 -118 -134q-95 -18 -414 -18q-251 0 -353 43q-124 52 -160 206q-107 -117 -237.5 -176t-284.5 -59q-296 0 -504 171q-222 182 -222 472q0 341 213 623q240 316 603 316q135 0 242.5 -22.5
t187.5 -67.5v12q-1 67 35.5 109.5t103.5 42.5q46 0 82 -24q116 29 220 43.5t197 14.5q250 0 404 -59q92 -35 92 -127q0 -52 -36 -92q-40 -46 -102 -46zM906 1248q-223 0 -383 -217q-149 -203 -149 -450q0 -166 129 -271q124 -100 313 -100q220 0 367 217q135 198 135 450
q0 211 -94 293q-90 78 -318 78z" />
    <glyph glyph-name="oe" unicode="&#x153;" horiz-adv-x="1837" 
d="M1321 -47q-290 0 -443 160q-139 -172 -364 -172q-185 0 -318 127q-146 139 -153 371q-7 221 121 394q151 204 423 204q210 0 324 -167q147 175 383 175q174 0 289 -57q151 -74 151 -230q0 -110 -123 -195q-55 -38 -225 -113l-337 -149q97 -105 272 -105q64 0 151 23
q103 27 129 64q47 68 107 68q51 0 90.5 -35.5t39.5 -84.5q0 -115 -193 -202q-169 -76 -324 -76zM1294 802q-186 0 -265 -248l225 98q135 61 215 113q-65 37 -175 37zM574 774q-123 1 -194 -112q-60 -95 -60 -222q0 -120 68 -184q54 -52 126 -52q87 0 151 60q73 68 78 187
q13 322 -169 323z" />
    <glyph glyph-name="endash" unicode="&#x2013;" horiz-adv-x="904" 
d="M729 544q-55 0 -166 6t-166 6q-43 0 -127.5 -6t-126.5 -6q-59 0 -99 29t-40 74q0 83 152 104q54 8 241 8q55 0 166 -6t166 -6q60 0 99.5 -29t39.5 -73q0 -43 -39.5 -72t-99.5 -29z" />
    <glyph glyph-name="emdash" unicode="&#x2014;" horiz-adv-x="1808" 
d="M1534 545q-27 0 -88.5 2t-88.5 2l-1188 -3q-61 0 -101.5 27.5t-40.5 72.5q0 93 134 99q44 2 230 2q122 0 366.5 -4.5t366.5 -4.5q396 0 425 8l71 1q58 0 93 -27t35 -67q0 -55 -73 -84q-59 -24 -141 -24z" />
    <glyph glyph-name="quotedblleft" unicode="&#x201c;" horiz-adv-x="888" 
d="M685 1089q-96 0 -127 83.5l-63 168.5q-44 121 -44 162q0 49 42 81q39 31 93 31q103 0 127 -91q6 -22 60 -167q45 -119 45 -155q0 -48 -40 -80.5t-93 -32.5zM254 1092q-86 0 -121 71q-15 30 -57 158q-45 136 -45 159q0 49 43 81q40 31 93 31q93 0 123 -82q8 -22 53 -161
t45 -144q0 -48 -40 -80.5t-94 -32.5z" />
    <glyph glyph-name="quotedblright" unicode="&#x201d;" horiz-adv-x="888" 
d="M184 1089q96 0 127 83.5l63 168.5q44 121 44 162q0 49 -40.5 80.5t-94.5 31.5q-103 0 -127 -91q-6 -22 -60 -167q-45 -119 -45 -155q0 -48 40 -80.5t93 -32.5zM615 1092q86 0 121 71q15 30 57 158q45 136 45 159q0 49 -41.5 80.5t-94.5 31.5q-93 0 -123 -82
q-8 -22 -53 -161t-45 -144q0 -48 40 -80.5t94 -32.5z" />
    <glyph glyph-name="quoteleft" unicode="&#x2018;" horiz-adv-x="463" 
d="M240 1094q-58 0 -95 45q-27 32 -33 72q-35 218 -35 253q0 54 33.5 88.5t88.5 34.5q111 0 129 -111q35 -213 35 -259q0 -54 -34 -88.5t-89 -34.5z" />
    <glyph glyph-name="quoteright" unicode="&#x2019;" horiz-adv-x="463" 
d="M200 1094q58 0 95 45q27 32 33 72q35 218 35 253q0 54 -33.5 88.5t-88.5 34.5q-111 0 -129 -111q-35 -213 -35 -259q0 -54 34 -88.5t89 -34.5z" />
    <glyph glyph-name="quoteright" unicode="&#x201b;" horiz-adv-x="463" 
d="M200 1094q58 0 95 45q27 32 33 72q35 218 35 253q0 54 -33.5 88.5t-88.5 34.5q-111 0 -129 -111q-35 -213 -35 -259q0 -54 34 -88.5t89 -34.5z" />
    <glyph glyph-name="divide" unicode="&#xf7;" 
d="M596 902q-56 0 -93 34t-37 85q0 53 37.5 86t94.5 33q55 0 92 -34t37 -85q0 -53 -37.5 -86t-93.5 -33zM972 523q-13 0 -37 3.5t-36 3.5q-92 0 -275.5 -6t-275.5 -6q-72 0 -127 27q-68 33 -68 95q0 79 63 103q36 13 132 13q58 0 175 6t176 6q12 0 36 -2t37 -2q20 0 60.5 2
t61.5 2q204 0 204 -123q0 -48 -36 -85t-90 -37zM614 187q-54 0 -91.5 35t-37.5 84t37.5 84.5t91.5 35.5q53 0 91 -35.5t38 -84.5t-38 -84t-91 -35z" />
    <glyph glyph-name="lozenge" unicode="&#x25ca;" horiz-adv-x="1479" 
d="M1412 672q-92 -82 -256 -308l-234 -331q-83 -115 -150 -115q-66 0 -114 62q-343 442 -576 615q-62 46 -62 112q0 82 242 436q190 277 304 415q64 77 140 77q50 0 93 -45q58 -61 146 -173q98 -125 179 -215l195 -205q151 -163 151 -205q0 -68 -58 -120zM774 1174l-79 105
q-78 -100 -354 -542q195 -172 420 -441l363 487q-165 155 -350 391z" />
    <glyph glyph-name="ydieresis" unicode="&#xff;" horiz-adv-x="1132" 
d="M1096 845l-345 -713q-128 -261 -195 -433q-21 -62 -66 -184q-36 -94 -128 -94q-57 0 -100 37t-43 93q0 93 212 551q-110 217 -349 639l-49 77q-27 46 -27 84q0 54 43 95t99 41q66 0 103 -49q142 -189 331 -569l130 286q71 149 139 262q43 72 118 72q56 0 100 -38t44 -93
q0 -29 -17 -64zM797 1164q-59 0 -111 32q-62 38 -62 96q0 140 208 140q54 0 107 -36q61 -41 61 -98q0 -67 -68 -104q-56 -30 -135 -30zM366 1164q-186 0 -186 142q0 48 62 90q58 39 113 39q193 0 192 -144q0 -50 -70 -91q-61 -36 -111 -36z" />
    <glyph glyph-name="Ydieresis" unicode="&#x178;" horiz-adv-x="1301" 
d="M1247 1234q-51 -105 -205 -454q-128 -292 -218 -458q-156 -288 -167 -305q-59 -87 -136 -87q-55 0 -97 36q-46 40 -46 99q0 49 209 412q-77 111 -221 337l-317 501q-20 34 -20 71q0 58 45 98q42 37 98 37q66 0 120 -67l75 -120l172 -292q104 -179 184 -283l219 463
l90 209q38 90 130 90q55 0 97 -36q46 -39 46 -98q0 -34 -58 -153zM934 1619q-59 0 -111 32q-62 38 -62 96q0 140 208 140q54 0 107 -36q61 -41 61 -98q0 -67 -68 -104q-56 -30 -135 -30zM503 1619q-186 0 -186 142q0 48 62 90q58 39 113 39q193 0 192 -144q0 -50 -70 -91
q-61 -36 -111 -36z" />
    <glyph glyph-name="fraction" unicode="&#x2044;" horiz-adv-x="1661" 
d="M1623 1500q-27 -47 -89 -107q-78 -76 -98 -100l-310 -376q-178 -207 -335 -355q-67 -63 -279 -298q-170 -189 -294 -284q-44 -34 -91 -34q-57 0 -99 41t-42 95q0 52 46 97l209 200l207 222q123 129 217 213q131 116 329 369q210 267 323 375l76 90q48 52 105 52
q56 0 100 -38t44 -94q0 -35 -19 -68z" />
    <glyph glyph-name="fraction" unicode="&#x2215;" horiz-adv-x="1661" 
d="M1623 1500q-27 -47 -89 -107q-78 -76 -98 -100l-310 -376q-178 -207 -335 -355q-67 -63 -279 -298q-170 -189 -294 -284q-44 -34 -91 -34q-57 0 -99 41t-42 95q0 52 46 97l209 200l207 222q123 129 217 213q131 116 329 369q210 267 323 375l76 90q48 52 105 52
q56 0 100 -38t44 -94q0 -35 -19 -68z" />
    <glyph glyph-name="Euro" unicode="&#x20ac;" horiz-adv-x="1267" 
d="M1243 1210q0 -50 -29 -91q-38 -54 -110 -54q-90 0 -133 95q-20 45 -40 54q-15 7 -79 7q-127 0 -291 -196l-9 -11q30 1 107 4q64 2 114 2q59 0 93 -31q31 -28 31 -69q0 -40 -31 -69q-34 -31 -93 -31q-52 0 -130.5 -3t-130.5 -3q-36 0 -95 4q-31 -57 -51 -112q218 5 198 5
q59 0 94 -31q31 -28 31 -68q0 -41 -31 -69q-35 -31 -94 -31q-51 0 -120 -3q-76 -3 -114 -3q2 -107 75 -183t173 -76q99 0 201 52q36 19 152 98q78 52 118 52q60 0 102 -44q39 -41 39 -94q0 -59 -52 -103q-275 -232 -560 -232q-225 0 -380 164q-148 157 -148 372v4h-41
q-59 0 -94 31q-31 28 -31 69q0 40 31 68q35 32 94 32h68q14 54 36 108h-96q-59 0 -94 32q-31 28 -31 68q0 41 31 69q35 31 94 31h199q55 86 127 172q249 296 509 296q88 0 142 -12q44 43 106 43q102 0 126 -117q17 -84 17 -196z" />
    <glyph glyph-name="guilsinglleft" unicode="&#x2039;" 
d="M885 856q-85 -83 -263 -240q75 -73 233 -211q50 -40 50 -90q0 -48 -38.5 -84.5t-91.5 -36.5q-56 0 -140 71l-116 112q-93 89 -178 119q-101 35 -101 111q0 69 90 108.5t200 145.5q150 146 181 169q41 31 86 31q53 0 91.5 -36t38.5 -84q0 -47 -42 -85z" />
    <glyph glyph-name="guilsinglright" unicode="&#x203a;" 
d="M1000 570q-241 -207 -504 -362q-37 -22 -74 -22q-54 0 -91.5 37t-37.5 85q0 55 54 94l347 242q-115 83 -221 184q-134 126 -134 177q0 49 40.5 84.5t92.5 35.5q54 0 97 -44q224 -230 401 -315q81 -39 81 -103q0 -49 -51 -93z" />
    <glyph glyph-name="fi" unicode="&#xfb01;" horiz-adv-x="1349" 
d="M1125 1204q-64 0 -111 43.5t-47 105.5t47 106t111 44t110.5 -43.5t46.5 -106.5q0 -62 -46.5 -105.5t-110.5 -43.5zM577 1026q401 32 418 32q215 0 215 -143q0 -90 -10 -224.5t-10 -224.5q0 -57 3.5 -171.5t3.5 -171.5q0 -58 -39 -96.5t-99 -38.5t-99 38.5t-39 96.5
q0 57 -3.5 171.5t-3.5 171.5l17 329q-21 1 -34 1q-45 0 -331 -21q-6 -153 -6 -182q0 -59 4 -178t4 -178q0 -183 -23 -290t-132 -107q-56 0 -97.5 36t-41.5 91q0 13 2 25q21 126 21 265q0 40 -2 236q-2 171 -1 261q-76 -6 -118 -6q-61 0 -101 35.5t-40 95.5q0 93 98 122
q44 13 175 17q1 18 13 113q58 464 450 464q84 0 117 -13q61 -24 61 -102q0 -136 -167 -136q-118 0 -161 -90q-23 -49 -41 -202z" />
    <glyph glyph-name="fl" unicode="&#xfb02;" horiz-adv-x="1343" 
d="M1268 784q0 -121 -15 -478q0 -76 -8 -224q-14 -130 -138 -130q-62 0 -100 38.5t-38 97.5q0 116 11 348t11 348q0 147 4 313q5 188 6 284q-5 1 -12 1q-267 0 -340 -61q-54 -46 -70 -228q-2 -12 -6 -66q130 9 179 9q199 0 199 -135q0 -130 -176 -130q-18 0 -51.5 1.5
t-47.5 1.5q-27 0 -115 -8q-1 -32 -1 -73q0 -59 4 -227.5t4 -227.5q0 -184 -23 -291t-132 -107q-57 0 -98 36t-41 91q0 44 11.5 139t11.5 151t-4 238q-4 175 -4 250q-89 -7 -118 -7q-61 0 -101 35.5t-40 95.5q0 93 98 122q44 13 175 17q14 256 52 356q50 132 186.5 186.5
t442.5 65.5q25 1 78 -3q57 -4 77 -4q60 0 99.5 -37.5t39.5 -95.5q0 -151 -5 -346t-5 -346z" />
    <glyph glyph-name="daggerdbl" unicode="&#x2021;" horiz-adv-x="1222" 
d="M1051 1081q-54 -10 -194 -10q-52 0 -133 3q-12 -244 -15 -372q172 0 271 -10q128 -13 128 -132q0 -56 -38.5 -95.5t-98.5 -39.5q-50 0 -132 4q-100 4 -132 5v-508q0 -58 -40 -96t-100 -38t-99.5 38t-39.5 96v516h-26q-82 0 -153 -14q-20 -4 -34 -4q-59 0 -97 41t-38 96
q0 148 289 148q25 0 61 -1q2 80 16 371q-149 -2 -179 -2q-249 0 -249 143q0 55 38.5 95t98.5 40q32 0 96.5 -5t97.5 -5q51 0 108 1q4 125 4 217q0 58 39.5 96t99.5 38t99.5 -38t39.5 -96q0 -99 -4 -223q73 -3 114 -3q37 0 110.5 9t109.5 9q60 0 98 -40.5t38 -95.5
q0 -109 -154 -138z" />
    <glyph glyph-name="periodcentered" unicode="&#xb7;" 
d="M618 581q-67 0 -116 41.5t-49 93.5q0 53 49 95.5t116 42.5q71 0 117 -40t46 -98q0 -53 -48 -94t-115 -41z" />
    <glyph glyph-name="periodcentered" unicode="&#x2219;" 
d="M618 581q-67 0 -116 41.5t-49 93.5q0 53 49 95.5t116 42.5q71 0 117 -40t46 -98q0 -53 -48 -94t-115 -41z" />
    <glyph glyph-name="quotesinglbase" unicode="&#x201a;" horiz-adv-x="888" 
d="M530 -124l-78 -154q-34 -66 -109 -66q-53 0 -90 33.5t-37 77.5q0 26 64 155q57 114 86 161q37 59 104 59q53 0 90 -34t37 -78q0 -20 -67 -154z" />
    <glyph glyph-name="quotedblbase" unicode="&#x201e;" horiz-adv-x="880" 
d="M770 -124l-78 -154q-34 -66 -109 -66q-53 0 -90 33.5t-37 77.5q0 26 64 155q57 114 86 161q37 59 104 59q53 0 90 -34t37 -78q0 -20 -67 -154zM370 -124l-78 -154q-34 -66 -109 -66q-53 0 -90 33.5t-37 77.5q0 26 64 155q57 114 86 161q37 59 104 59q53 0 90 -34t37 -78
q0 -20 -67 -154z" />
    <glyph glyph-name="perthousand" unicode="&#x2030;" horiz-adv-x="2542" 
d="M2022 -17q-152 0 -254 88q-106 92 -106 239q0 155 93 259q100 112 265 112q149 0 263 -82q127 -91 127 -237q0 -161 -108 -269q-111 -110 -280 -110zM443 992q-158 0 -250 106q-86 98 -86 246q0 112 115 207q110 91 224 91q163 0 261 -105q92 -99 92 -253
q0 -135 -116 -218q-103 -74 -240 -74zM1268 1418q-35 -57 -78 -150q-60 -133 -70 -153l-197 -404l-225 -452q-31 -75 -102 -219q-40 -70 -110 -70q-49 0 -86 32q-40 35 -40 84q0 56 151 355l184 362q94 189 270 572q97 229 200 229q50 0 88.5 -34.5t38.5 -83.5
q0 -29 -24 -68zM1260 -20q-152 0 -254 88q-106 92 -106 239q0 155 93 259q100 112 265 112q149 0 263 -82q128 -91 128 -237q0 -161 -110 -270t-279 -109zM2020 445q-55 0 -83 -33.5t-28 -101.5q0 -45 34 -68t101 -23q69 0 95 34q24 31 24 109q0 34 -43.5 58.5t-99.5 24.5z
M443 1405q-33 0 -61 -20t-28 -41q0 -58 22.5 -87t66.5 -29q54 0 81 14t27 42q0 61 -27 91t-81 30zM1258 442q-55 0 -82.5 -33.5t-27.5 -101.5q0 -45 33.5 -68t100.5 -23q69 0 95 34q24 31 24 109q0 34 -43.5 58.5t-99.5 24.5z" />
    <glyph glyph-name="Acircumflex" unicode="&#xc2;" horiz-adv-x="1498" 
d="M1290 -30q-79 3 -159 186q-53 118 -91 272q-74 -11 -242 -22q-158 -11 -242 -26q-46 -110 -160 -331q-44 -72 -122 -72q-55 0 -99 37.5t-44 95.5q0 51 146 346q-14 31 -12 58q4 48 97 75q142 246 316 510q250 379 308 379q110 0 147 -133l63 -321q61 -288 149 -659
q7 -28 51 -132q36 -86 36 -129q0 -58 -43.5 -97t-98.5 -37zM917 996l-215 -365q45 10 140 16q112 7 141 11q-24 130 -66 338zM1287 1653q-49 0 -91 35l-218 200q-243 -255 -330 -255q-53 0 -92 34.5t-39 80.5q0 45 43 81q53 45 302 290q39 38 91 38q66 0 148 -60
q29 -21 122 -106l160 -148q36 -35 36 -76q0 -46 -39.5 -80t-92.5 -34z" />
    <glyph glyph-name="Ecircumflex" unicode="&#xca;" horiz-adv-x="1279" 
d="M1109 1282q-20 0 -42 6q-162 44 -315 44q-75 0 -161 -12t-183 -36q0 -133 -9 -395q56 4 391 37q191 19 242 19q59 0 101 -37.5t42 -99.5q0 -119 -127 -135q-80 -6 -239 -20q-142 -16 -428 -39q-7 -127 -7 -205q0 -196 23 -223q11 -13 126 -13q62 0 187 3t187 3q20 0 59 6
t58 6q58 0 99 -33q47 -37 47 -104q0 -112 -117 -134q-100 -19 -415 -19q-326 0 -425 88q-109 97 -109 420q0 134 19.5 402.5t19.5 401.5q0 35 -10 103.5t-10 103.5q0 152 140 152q44 0 81 -25q116 29 220.5 43.5t197.5 14.5q252 0 403 -58q92 -35 92 -127q0 -52 -36 -92
q-40 -46 -102 -46zM1025 1753q-49 0 -91 35l-218 200q-243 -255 -330 -255q-53 0 -92 34.5t-39 80.5q0 45 43 81q53 45 302 290q39 38 91 38q66 0 148 -60q29 -21 122 -106l160 -148q36 -35 36 -76q0 -46 -39.5 -80t-92.5 -34z" />
    <glyph glyph-name="Aacute" unicode="&#xc1;" horiz-adv-x="1498" 
d="M1290 -30q-79 3 -159 186q-53 118 -91 272q-74 -11 -242 -22q-158 -11 -242 -26q-46 -110 -160 -331q-44 -72 -122 -72q-55 0 -99 37.5t-44 95.5q0 51 146 346q-14 31 -12 58q4 48 97 75q142 246 316 510q250 379 308 379q110 0 147 -133l63 -321q61 -288 149 -659
q7 -28 51 -132q36 -86 36 -129q0 -58 -43.5 -97t-98.5 -37zM917 996l-215 -365q45 10 140 16q112 7 141 11q-24 130 -66 338zM1187 1784q-82 -90 -130 -125q-39 -29 -86 -29q-53 0 -92 34t-39 79q0 37 42 81l73 68q107 117 126 134q91 82 161 82q53 0 91.5 -35t38.5 -79
q0 -51 -53.5 -87.5t-131.5 -122.5z" />
    <glyph glyph-name="Edieresis" unicode="&#xcb;" horiz-adv-x="1279" 
d="M1109 1282q-20 0 -42 6q-162 44 -315 44q-75 0 -161 -12t-183 -36q0 -133 -9 -395q56 4 391 37q191 19 242 19q59 0 101 -37.5t42 -99.5q0 -119 -127 -135q-80 -6 -239 -20q-142 -16 -428 -39q-7 -127 -7 -205q0 -196 23 -223q11 -13 126 -13q62 0 187 3t187 3q20 0 59 6
t58 6q58 0 99 -33q47 -37 47 -104q0 -112 -117 -134q-100 -19 -415 -19q-326 0 -425 88q-109 97 -109 420q0 134 19.5 402.5t19.5 401.5q0 35 -10 103.5t-10 103.5q0 152 140 152q44 0 81 -25q116 29 220.5 43.5t197.5 14.5q252 0 403 -58q92 -35 92 -127q0 -52 -36 -92
q-40 -46 -102 -46zM909 1732q-59 0 -111 32q-62 38 -62 96q0 140 208 140q54 0 107 -36q61 -41 61 -98q0 -67 -68 -104q-56 -30 -135 -30zM478 1732q-186 0 -186 142q0 48 62 90q58 39 113 39q193 0 192 -144q0 -50 -70 -91q-61 -36 -111 -36z" />
    <glyph glyph-name="Egrave" unicode="&#xc8;" horiz-adv-x="1279" 
d="M1109 1282q-20 0 -42 6q-162 44 -315 44q-75 0 -161 -12t-183 -36q0 -133 -9 -395q56 4 391 37q191 19 242 19q59 0 101 -37.5t42 -99.5q0 -119 -127 -135q-80 -6 -239 -20q-142 -16 -428 -39q-7 -127 -7 -205q0 -196 23 -223q11 -13 126 -13q62 0 187 3t187 3q20 0 59 6
t58 6q58 0 99 -33q47 -37 47 -104q0 -112 -117 -134q-100 -19 -415 -19q-326 0 -425 88q-109 97 -109 420q0 134 19.5 402.5t19.5 401.5q0 35 -10 103.5t-10 103.5q0 152 140 152q44 0 81 -25q116 29 220.5 43.5t197.5 14.5q252 0 403 -58q92 -35 92 -127q0 -52 -36 -92
q-40 -46 -102 -46zM792 1747q-64 0 -105 50l-96 123q-54 65 -119 108q-55 36 -55 88q0 44 37.5 79t91.5 35q82 0 232 -155q147 -151 147 -218q0 -46 -40.5 -78t-92.5 -32z" />
    <glyph glyph-name="Iacute" unicode="&#xcd;" horiz-adv-x="1119" 
d="M957 1182q-52 0 -285 28q-14 -184 -14 -489l-1 -449q133 3 271 3q60 0 99.5 -40t39.5 -96t-39.5 -95.5t-99.5 -39.5q-56 0 -168 -2.5t-168 -2.5q-66 0 -198 -17.5t-198 -17.5q-60 0 -99.5 39.5t-39.5 95.5t39.5 96t99.5 40q68 0 179 15q-2 118 -2 452q0 272 20 519
l-217 -6q-60 0 -100.5 39t-40.5 97q0 59 40 96q37 34 91 39q88 8 306 8q196 0 505 -42q123 -17 123 -138q0 -64 -50 -101q-41 -31 -93 -31zM680 1784q-82 -90 -130 -125q-39 -29 -86 -29q-53 0 -92 34t-39 79q0 37 42 81l73 68q107 117 126 134q91 82 161 82q53 0 91.5 -35
t38.5 -79q0 -51 -53.5 -87.5t-131.5 -122.5z" />
    <glyph glyph-name="Icircumflex" unicode="&#xce;" horiz-adv-x="1119" 
d="M997 1182q-52 0 -285 28q-14 -184 -14 -489l-1 -449q133 3 271 3q60 0 99.5 -40t39.5 -96t-39.5 -95.5t-99.5 -39.5q-56 0 -168 -2.5t-168 -2.5q-66 0 -198 -17.5t-198 -17.5q-60 0 -99.5 39.5t-39.5 95.5t39.5 96t99.5 40q68 0 179 15q-2 118 -2 452q0 272 20 519
l-217 -6q-60 0 -100.5 39t-40.5 97q0 59 40 96q37 34 91 39q88 8 306 8q196 0 505 -42q123 -17 123 -138q0 -64 -50 -101q-41 -31 -93 -31zM948 1673q-49 0 -91 35l-218 200q-243 -255 -330 -255q-53 0 -92 34.5t-39 80.5q0 45 43 81q53 45 302 290q39 38 91 38
q66 0 148 -60q29 -21 122 -106l160 -148q36 -35 36 -76q0 -46 -39.5 -80t-92.5 -34z" />
    <glyph glyph-name="Idieresis" unicode="&#xcf;" horiz-adv-x="1119" 
d="M957 1182q-52 0 -285 28q-14 -184 -14 -489l-1 -449q133 3 271 3q60 0 99.5 -40t39.5 -96t-39.5 -95.5t-99.5 -39.5q-56 0 -168 -2.5t-168 -2.5q-66 0 -198 -17.5t-198 -17.5q-60 0 -99.5 39.5t-39.5 95.5t39.5 96t99.5 40q68 0 179 15q-2 118 -2 452q0 272 20 519
l-217 -6q-60 0 -100.5 39t-40.5 97q0 59 40 96q37 34 91 39q88 8 306 8q196 0 505 -42q123 -17 123 -138q0 -64 -50 -101q-41 -31 -93 -31zM781 1634q-59 0 -111 32q-62 38 -62 96q0 140 208 140q54 0 107 -36q61 -41 61 -98q0 -67 -68 -104q-56 -30 -135 -30zM350 1634
q-186 0 -186 142q0 48 62 90q58 39 113 39q193 0 192 -144q0 -50 -70 -91q-61 -36 -111 -36z" />
    <glyph glyph-name="Igrave" unicode="&#xcc;" horiz-adv-x="1119" 
d="M997 1182q-52 0 -285 28q-14 -184 -14 -489l-1 -449q133 3 271 3q60 0 99.5 -40t39.5 -96t-39.5 -95.5t-99.5 -39.5q-56 0 -168 -2.5t-168 -2.5q-66 0 -198 -17.5t-198 -17.5q-60 0 -99.5 39.5t-39.5 95.5t39.5 96t99.5 40q68 0 179 15q-2 118 -2 452q0 272 20 519
l-217 -6q-60 0 -100.5 39t-40.5 97q0 59 40 96q37 34 91 39q88 8 306 8q196 0 505 -42q123 -17 123 -138q0 -64 -50 -101q-41 -31 -93 -31zM701 1619q-64 0 -105 50l-96 123q-54 65 -119 108q-55 36 -55 88q0 44 37.5 79t91.5 35q82 0 232 -155q147 -151 147 -218
q0 -46 -40.5 -78t-92.5 -32z" />
    <glyph glyph-name="Oacute" unicode="&#xd3;" horiz-adv-x="1635" 
d="M786 -61q-296 0 -504 170q-222 182 -222 471q0 340 213 620q239 315 602 315q349 0 523 -160t174 -481q0 -340 -196 -616q-226 -319 -590 -319zM875 1244q-223 0 -382 -216q-149 -202 -149 -448q0 -166 129 -270q124 -100 313 -100q220 0 367 216q135 197 135 448
q0 210 -94 292q-90 78 -319 78zM1165 1790q-82 -90 -130 -125q-39 -29 -86 -29q-53 0 -92 34t-39 79q0 37 42 81l73 68q107 117 126 134q91 82 161 82q53 0 91.5 -35t38.5 -79q0 -51 -53.5 -87.5t-131.5 -122.5z" />
    <glyph glyph-name="Ocircumflex" unicode="&#xd4;" horiz-adv-x="1635" 
d="M842 -61q-296 0 -504 170q-222 182 -222 471q0 340 213 620q239 315 602 315q349 0 523 -160t174 -481q0 -340 -196 -616q-226 -319 -590 -319zM931 1244q-223 0 -382 -216q-149 -202 -149 -448q0 -166 129 -270q124 -100 313 -100q220 0 367 216q135 197 135 448
q0 210 -94 292q-90 78 -319 78zM1370 1628q-49 0 -91 35l-218 200q-243 -255 -330 -255q-53 0 -92 34.5t-39 80.5q0 45 43 81q53 45 302 290q39 38 91 38q66 0 148 -60q29 -21 122 -106l160 -148q36 -35 36 -76q0 -46 -39.5 -80t-92.5 -34z" />
    <glyph glyph-name="Ograve" unicode="&#xd2;" horiz-adv-x="1635" 
d="M842 -61q-296 0 -504 170q-222 182 -222 471q0 340 213 620q239 315 602 315q349 0 523 -160t174 -481q0 -340 -196 -616q-226 -319 -590 -319zM931 1244q-223 0 -382 -216q-149 -202 -149 -448q0 -166 129 -270q124 -100 313 -100q220 0 367 216q135 197 135 448
q0 210 -94 292q-90 78 -319 78zM1184 1640q-64 0 -105 50l-96 123q-54 65 -119 108q-55 36 -55 88q0 44 37.5 79t91.5 35q82 0 232 -155q147 -151 147 -218q0 -46 -40.5 -78t-92.5 -32z" />
    <glyph glyph-name="Uacute" unicode="&#xda;" horiz-adv-x="1509" 
d="M1154 173q-73 -99 -176 -165q-126 -80 -259 -80q-255 0 -379 98q-262 207 -262 719q0 49 5 146t5 146q0 39 2 116.5t2 116.5q0 80 29 151q39 94 109 94q55 0 97 -36q46 -38 46 -98q0 -57 -1.5 -172.5t-1.5 -173.5q0 -48 -5 -145t-5 -145q0 -155 36 -288q42 -159 123 -222
q42 -33 200 -35q264 -4 356 450q48 235 48 660q0 56 33 108q45 69 128 69q68 0 102 -50q26 -37 26 -82q0 -395 -37 -616q-56 -341 -221 -566zM953 1797q-82 -90 -130 -125q-39 -29 -86 -29q-53 0 -92 34t-39 79q0 37 42 81l73 68q107 117 126 134q91 82 161 82
q53 0 91.5 -35t38.5 -79q0 -51 -53.5 -87.5t-131.5 -122.5z" />
    <glyph glyph-name="Ucircumflex" unicode="&#xdb;" horiz-adv-x="1509" 
d="M1154 173q-73 -99 -176 -165q-126 -80 -259 -80q-255 0 -379 98q-262 207 -262 719q0 49 5 146t5 146q0 39 2 116.5t2 116.5q0 80 29 151q39 94 109 94q55 0 97 -36q46 -38 46 -98q0 -57 -1.5 -172.5t-1.5 -173.5q0 -48 -5 -145t-5 -145q0 -155 36 -288q42 -159 123 -222
q42 -33 200 -35q264 -4 356 450q48 235 48 660q0 56 33 108q45 69 128 69q68 0 102 -50q26 -37 26 -82q0 -395 -37 -616q-56 -341 -221 -566zM1132 1642q-49 0 -91 35l-218 200q-243 -255 -330 -255q-53 0 -92 34.5t-39 80.5q0 45 43 81q53 45 302 290q39 38 91 38
q66 0 148 -60q29 -21 122 -106l160 -148q36 -35 36 -76q0 -46 -39.5 -80t-92.5 -34z" />
    <glyph glyph-name="Ugrave" unicode="&#xd9;" horiz-adv-x="1509" 
d="M1154 173q-73 -99 -176 -165q-126 -80 -259 -80q-255 0 -379 98q-262 207 -262 719q0 49 5 146t5 146q0 39 2 116.5t2 116.5q0 80 29 151q39 94 109 94q55 0 97 -36q46 -38 46 -98q0 -57 -1.5 -172.5t-1.5 -173.5q0 -48 -5 -145t-5 -145q0 -155 36 -288q42 -159 123 -222
q42 -33 200 -35q264 -4 356 450q48 235 48 660q0 56 33 108q45 69 128 69q68 0 102 -50q26 -37 26 -82q0 -395 -37 -616q-56 -341 -221 -566zM910 1634q-64 0 -105 50l-96 123q-54 65 -119 108q-55 36 -55 88q0 44 37.5 79t91.5 35q82 0 232 -155q147 -151 147 -218
q0 -46 -40.5 -78t-92.5 -32z" />
    <glyph glyph-name="dotlessi" unicode="&#x131;" horiz-adv-x="574" 
d="M415 469q0 -57 3.5 -183t3.5 -183q0 -58 -39 -95.5t-99 -37.5t-99 37.5t-39 95.5q0 57 -3.5 183t-3.5 183q0 89 10 223t10 223q0 58 39 95.5t99 37.5t99 -37.5t39 -95.5q0 -89 -10 -223t-10 -223z" />
    <glyph glyph-name="circumflex" unicode="&#x2c6;" horiz-adv-x="1139" 
d="M924 1186q-49 0 -91 35l-218 200q-243 -255 -330 -255q-53 0 -92 34.5t-39 80.5q0 45 43 81q53 45 302 290q39 38 91 38q66 0 148 -60q29 -21 122 -106l160 -148q36 -35 36 -76q0 -46 -39.5 -80t-92.5 -34z" />
    <glyph glyph-name="tilde" unicode="&#x2dc;" horiz-adv-x="1139" 
d="M1012 1240q-67 -57 -171 -57q-117 0 -188 32q-66 30 -130 107q-36 43 -69 43q-55 0 -97 -72.5t-110 -72.5q-46 0 -80 25q-37 27 -37 67q0 13 5 28q31 93 114 152q88 62 205 62q100 0 161 -38q36 -22 106 -100q40 -44 89 -44q41 0 63 28l33 57q5 16 19 47q24 43 96 43
q49 0 82 -27t33 -67q0 -37 -47 -114q-44 -71 -77 -99z" />
    <glyph glyph-name="macron" unicode="&#x2c9;" horiz-adv-x="1139" 
d="M919 1150q-29 -4 -70 -4h-210q-48 0 -144.5 2t-144.5 2q-61 0 -105 31q-47 34 -47 86q0 117 215 117q40 0 118.5 -3t118.5 -3t121.5 1.5t121.5 1.5q60 0 105 -26q53 -32 53 -90q0 -97 -132 -115z" />
    <glyph glyph-name="breve" unicode="&#x2d8;" horiz-adv-x="1139" 
d="M1095 1449q-14 -148 -200 -218q-136 -52 -323 -52q-157 0 -275 89q-124 92 -124 225q0 41 32.5 68.5t81.5 27.5t82 -27.5t33 -68.5q0 -49 52 -85q52 -37 118 -37q262 0 297 109q25 78 111 78q56 0 88 -31t27 -78z" />
    <glyph glyph-name="dotaccent" unicode="&#x2d9;" horiz-adv-x="1139" 
d="M452 1143q-46 0 -108 49q-68 55 -68 114q0 65 56 105q46 33 94 33q44 0 106 -49q68 -55 68 -113q0 -64 -54 -105q-45 -34 -94 -34z" />
    <glyph glyph-name="ring" unicode="&#x2da;" horiz-adv-x="1139" 
d="M580 1186q-150 -2 -253 76q-104 77 -104 190q0 144 118 228q111 78 285 78q139 0 239 -70q112 -76 112 -201q0 -157 -127 -235q-103 -64 -270 -66zM626 1557q-176 0 -173 -104q1 -26 51.5 -47.5t108.5 -21.5q67 0 100.5 26t33.5 77q0 31 -34.5 50.5t-86.5 19.5z" />
    <glyph glyph-name="cedilla" unicode="&#xb8;" horiz-adv-x="1139" 
d="M623 -445q-96 0 -187 40q-110 48 -110 124q0 82 108 82q39 0 90 -21.5t87 -21.5q29 1 43.5 12t14.5 33q0 26 -16 46q-17 20 -51 33l-126 42q-67 30 -67 89q0 41 31.5 71.5t80.5 30.5q135 0 256 -91q128 -96 128 -216q0 -118 -73.5 -185.5t-208.5 -67.5z" />
    <glyph glyph-name="hungarumlaut" unicode="&#x2dd;" horiz-adv-x="1139" 
d="M1052 1393l-156 -124q-111 -86 -160 -86q-48 0 -81.5 30t-33.5 69q0 34 38 69l69 53q197 165 262 165q48 0 81 -30.5t33 -68.5q0 -42 -52 -77zM627 1436q-39 -41 -125 -108q-90 -71 -127 -108t-88 -37q-46 0 -81.5 28.5t-35.5 68.5q0 41 119 146l165 136q37 33 85 33
q46 0 81.5 -28.5t35.5 -68.5q0 -32 -29 -62z" />
    <glyph glyph-name="ogonek" unicode="&#x2db;" horiz-adv-x="1139" 
d="M535 -344q-117 0 -200 87q-77 81 -77 179q0 84 82 164q86 84 185 84q49 0 82 -32q30 -29 30 -69q0 -56 -75 -90.5t-75 -56.5t18.5 -45t29.5 -23q90 0 155 29q29 13 57 13q48 0 81 -31t33 -71q0 -65 -132 -106q-102 -32 -194 -32z" />
    <glyph glyph-name="caron" unicode="&#x2c7;" horiz-adv-x="1139" 
d="M955 1413q-296 -237 -355 -237q-45 0 -85 34l-61 62l-126 123q-84 91 -84 135q0 41 38 70q35 27 81 27q61 0 97 -50q39 -55 153 -164l191 146q36 25 74 25q47 0 81.5 -30t34.5 -70t-39 -71z" />
    <glyph glyph-name="Lslash" unicode="&#x141;" horiz-adv-x="1287" 
d="M513 178q216 3 609 116q24 7 43 7q60 0 99 -42t39 -96q0 -85 -88 -125q-116 -52 -362 -93q-226 -38 -373 -38q-245 0 -245 215q0 64 23 399l-19 -7q-5 -2 -46 -24q-28 -15 -50 -15q-58 0 -98.5 42t-40.5 95q0 65 62 108l207 142q7 238 7 543q0 56 40 96.5t100 40.5
t99.5 -40.5t39.5 -96.5q0 -201 -3 -366q93 46 133 46q59 0 98 -42t39 -95q0 -79 -84 -118q-107 -49 -195 -106q-7 -194 -14 -301q-10 -82 -20 -245z" />
    <glyph glyph-name="lslash" unicode="&#x142;" horiz-adv-x="726" 
d="M496 994q105 79 138 79q97 0 97 -129q0 -38 -93 -123l-142 -122q3 -202 0 -537q-6 -123 -29.5 -156t-101.5 -33q-112 0 -112 121v458l-39 -38q-62 -61 -106 -57q-94 8 -94 114q0 55 62.5 109l176.5 148v563q0 55 36 91.5t93 36.5q114 0 114 -128v-397z" />
    <glyph glyph-name="Scaron" unicode="&#x160;" horiz-adv-x="1420" 
d="M627 -61q-254 0 -400 113q-123 94 -123 217q0 63 38 104.5t105 41.5q90 0 132 -92q57 -123 258 -123q172 0 333 75q167 77 167 169q0 126 -104 166q-74 29 -297 34q-173 4 -310 65q-185 83 -182 238q3 195 208 357.5t452 162.5q98 0 242 -45q179 -56 179 -129
q0 -52 -36 -92q-40 -45 -103 -45q-47 0 -140.5 20t-141.5 20q-129 -1 -245 -62q-120 -62 -120 -135q0 -38 36.5 -62.5t109.5 -34.5l255 -14q222 -17 351 -125q142 -120 142 -332q0 -258 -294 -391q-224 -101 -512 -101zM1283 1864q-296 -237 -355 -237q-45 0 -85 34l-61 62
l-126 123q-84 91 -84 135q0 41 38 70q35 27 81 27q61 0 97 -50q39 -55 153 -164l191 146q36 25 74 25q47 0 81.5 -30t34.5 -70t-39 -71z" />
    <glyph glyph-name="scaron" unicode="&#x161;" horiz-adv-x="1039" 
d="M755 732q-99 0 -119 83q-40 7 -82 7q-241 0 -241 -66q0 -39 145 -105q198 -91 268 -142q145 -105 145 -237q0 -172 -160 -261q-129 -71 -317 -71q-133 0 -243 41q-150 56 -150 165q0 100 119 100q46 0 133 -29t134 -29q203 0 204 82q0 51 -141 113q-206 91 -264 131
q-141 99 -141 241q0 201 213 271q125 41 380 41q100 0 148 -26q66 -35 66 -129q0 -180 -97 -180zM807 1413q-296 -237 -355 -237q-45 0 -85 34l-61 62l-126 123q-84 91 -84 135q0 41 38 70q35 27 81 27q61 0 97 -50q39 -55 153 -164l191 146q36 25 74 25q47 0 81.5 -30
t34.5 -70t-39 -71z" />
    <glyph glyph-name="Zcaron" unicode="&#x17d;" horiz-adv-x="1420" 
d="M1274 1195l-135 -87q-169 -125 -400 -430l-354 -477l-4 -5q73 2 352 14q219 10 349 10q143 0 194 -11q120 -26 124 -115q3 -66 -46 -104q-42 -33 -101 -33q-29 0 -87 3.5t-87 3.5q-152 0 -456.5 -7.5t-456.5 -7.5q-65 0 -107 33q-47 36 -47 101q0 72 63 171
q20 31 113 151l329 437q196 252 367 408q-156 -11 -238 -11h-404q-11 0 -32 -1.5t-32 -1.5q-59 0 -100 34q-46 38 -46 102q0 137 203 137q69 0 206 -8.5t206 -8.5q77 0 230.5 4t230.5 4q298 0 298 -130q0 -83 -132 -175zM1110 1961q-296 -237 -355 -237q-45 0 -85 34l-61 62
l-126 123q-84 91 -84 135q0 41 38 70q35 27 81 27q61 0 97 -50q39 -55 153 -164l191 146q36 25 74 25q47 0 81.5 -30t34.5 -70t-39 -71z" />
    <glyph glyph-name="zcaron" unicode="&#x17e;" horiz-adv-x="1102" 
d="M757 505q-167 -226 -208 -278q61 2 101 2t116.5 -14.5t115.5 -14.5q60 0 99.5 -37.5t39.5 -94.5t-39 -94t-100 -37q-40 0 -116.5 14t-115.5 14q-224 0 -419 -37q-26 -5 -44 -5q-55 0 -94 30q-44 33 -44 87q0 64 63 117q249 211 521 617q-62 -3 -119 -3q-153 0 -310 22
q-123 17 -123 130q0 55 38 94t97 39q49 0 148.5 -10.5t149.5 -10.5q68 0 204 8.5t204 8.5q125 0 125 -102q0 -90 -85 -186t-205 -259zM930 1413q-296 -237 -355 -237q-45 0 -85 34l-61 62l-126 123q-84 91 -84 135q0 41 38 70q35 27 81 27q61 0 97 -50q39 -55 153 -164
l191 146q36 25 74 25q47 0 81.5 -30t34.5 -70t-39 -71z" />
    <glyph glyph-name="brokenbar" unicode="&#xa6;" horiz-adv-x="863" 
d="M449 1712q54 0 88.5 -35t34.5 -89v-653q0 -151 -130 -151q-126 0 -126 154v650q0 53 39.5 88.5t93.5 35.5zM449 567q54 0 88.5 -35t34.5 -89v-653q0 -151 -130 -151q-126 0 -126 154v650q0 53 39.5 88.5t93.5 35.5z" />
    <glyph glyph-name="Eth" unicode="&#xd0;" horiz-adv-x="1478" 
d="M282 -10q-60 1 -94.5 38.5t-34.5 97.5v436q-27 -1 -47 -1q-190 0 -190 135t188 135q21 0 49 -1v562q0 58 54 111t112 53q31 0 168 -63q171 -78 183 -82q311 -114 506 -300q240 -229 240 -518q0 -174 -86 -332.5t-232 -252.5q-167 -107 -467 -107q-209 0 -349 89z
M428 1210v-382q27 -1 119 -9q74 -6 119 -6q59 0 99 -37.5t40 -95.5t-40 -95t-99 -37q-46 0 -119 6q-94 7 -119 8q2 -113 0 -340q103 -52 202 -52q215 0 310 60q89 56 141.5 154t52.5 205q0 234 -250 403q-115 78 -456 218z" />
    <glyph glyph-name="eth" unicode="&#xf0;" horiz-adv-x="1042" 
d="M331 1260q-120 89 -120 152q0 50 39 88t92 38q69 0 218 -157q162 78 228 78q58 0 96 -36t38 -91q0 -49 -36 -78q-4 -3 -77 -45q-15 -9 -68 -30l-16 -6q248 -362 248 -618q0 -237 -101 -397q-126 -199 -373 -199q-169 0 -293 132q-118 127 -118 287q0 204 143 362
q134 149 343 202q-33 64 -67 117q-178 -105 -225 -105q-56 0 -94.5 40.5t-38.5 91.5q0 59 65 107q15 11 117 67zM673 716q-39 -9 -117 -33q-210 -78 -210 -305q0 -62 48 -117.5t105 -55.5q216 0 216 350q0 48 -42 161z" />
    <glyph glyph-name="Yacute" unicode="&#xdd;" horiz-adv-x="1301" 
d="M1247 1234q-51 -105 -205 -454q-128 -292 -218 -458q-156 -288 -167 -305q-59 -87 -136 -87q-55 0 -97 36q-46 40 -46 99q0 49 209 412q-77 111 -221 337l-317 501q-20 34 -20 71q0 58 45 98q42 37 98 37q66 0 120 -67l75 -120l172 -292q104 -179 184 -283l219 463
l90 209q38 90 130 90q55 0 97 -36q46 -39 46 -98q0 -34 -58 -153zM922 1882q-82 -90 -130 -125q-39 -29 -86 -29q-53 0 -92 34t-39 79q0 37 42 81l73 68q107 117 126 134q91 82 161 82q53 0 91.5 -35t38.5 -79q0 -51 -53.5 -87.5t-131.5 -122.5z" />
    <glyph glyph-name="Thorn" unicode="&#xde;" horiz-adv-x="1066" 
d="M366 1361l124 6q161 8 334 -94q227 -135 227 -377q0 -256 -203 -407q-180 -133 -429 -133q-42 0 -95 9q-1 -94 -1 -260q0 -53 -37 -91t-94 -38t-94.5 38t-37.5 91v279q0 141 19 395q20 275 22 394q-1 41 -1 130q0 109 20 161q33 88 130 87q119 -1 116 -190zM469 1111
h-107q-11 -163 -30 -488q54 -9 87 -9q156 0 259 74q110 78 110 208q0 85 -103 151q-99 64 -216 64z" />
    <glyph glyph-name="thorn" unicode="&#xfe;" horiz-adv-x="1095" 
d="M564 -55q-87 0 -181 20l-1 -411q0 -58 -39 -96.5t-99 -38.5t-99 38.5t-39 96.5q0 48 2 376q2 245 0 399q-3 219 -14 376q-22 318 -22 577q0 84 37 144q43 68 116 68q56 0 93.5 -38t37.5 -92v-395q140 81 277 81q230 0 336 -197q79 -149 79 -385q0 -221 -125 -367
q-134 -156 -359 -156zM633 780q-127 0 -259 -119q12 -208 12 -416q91 -30 178 -30q103 0 158 73q50 67 50 180q0 137 -12 189q-29 123 -127 123z" />
    <glyph glyph-name="minus" unicode="&#x2212;" 
d="M962 510q-12 0 -36.5 2.5t-36.5 2.5q-92 0 -275.5 -4.5t-275.5 -4.5q-75 0 -145 30q-90 39 -90 103q0 134 235 134q59 0 175.5 4.5t175.5 4.5q12 0 36.5 -1.5t36.5 -1.5q170 0 220 -9q146 -27 146 -127q0 -61 -54 -99q-49 -34 -112 -34z" />
    <glyph glyph-name="onesuperior" unicode="&#xb9;" 
d="M840 857h-408q-49 0 -81 33t-32 78q0 65 52 83q27 10 104 10q-5 0 45 1v333q-43 -17 -80 -17q-47 0 -79.5 29t-32.5 76q0 56 42 86l87 49l95 65q66 41 98 41q100 0 100 -116v-20q-1 -12 -1 -18v-508q97 2 129 -5q76 -18 76 -86q0 -46 -32 -80t-82 -34z" />
    <glyph glyph-name="twosuperior" unicode="&#xb2;" 
d="M840 912q-54 -9 -167 -9q-34 0 -100.5 2t-100.5 2q-64 0 -112 27q-62 34 -62 101q0 124 94 212q47 43 203 133q111 64 111 115q0 10 -26 33t-40 23q-68 0 -111.5 -73t-107.5 -73q-46 0 -81.5 28.5t-35.5 73.5q0 108 121 180q104 61 219 61q109 0 200 -77.5t91 -175.5
q0 -156 -108 -239l-227 -142q69 -2 76 -2q33 0 97.5 9t95.5 9q49 0 82 -33q30 -31 30 -73q0 -88 -141 -112z" />
    <glyph glyph-name="threesuperior" unicode="&#xb3;" 
d="M561 830q-80 0 -151 28q-94 37 -94 104q0 44 33 79t81 35q22 0 65 -12.5t66 -12.5q139 0 139 37q0 81 -60 91q-61 7 -121 13q-64 22 -64 97q0 62 54 91q14 8 100 32q54 16 54 45q0 43 -113 43q-14 0 -42 -8.5t-43 -8.5q-43 0 -73 26t-30 70q0 73 70 112q54 30 118 30
q134 0 228 -58q115 -72 115 -206q0 -79 -44 -142q80 -79 80 -227q0 -134 -132 -204q-103 -54 -236 -54z" />
    <glyph glyph-name="onehalf" unicode="&#xbd;" 
d="M825 856h-408q-49 0 -80.5 33.5t-31.5 78.5q0 64 52 83q26 9 103 9q-4 0 46 1v334q-43 -17 -80 -17q-47 0 -79.5 29t-32.5 76q0 56 42 86l86 49l96 65q66 41 98 41q70 0 90 -54q9 -26 9 -106v-503q98 2 129 -5q76 -17 76 -85q0 -46 -32 -79q-33 -36 -83 -36zM1074 534
q4 0 -206 11t-416 11q-45 0 -136.5 -3t-136.5 -3q-48 0 -81.5 32t-33.5 79q0 46 33.5 78t81.5 32q45 0 136.5 3t136.5 3q108 0 274 -6q237 -8 274 -9q193 -5 193 -117q0 -50 -34.5 -80.5t-84.5 -30.5zM826 -399q-52 -9 -168 -9q-34 0 -100.5 2t-100.5 2q-63 0 -112 29
q-62 36 -62 107q0 130 94 223q46 44 204 140q110 67 110 121q0 11 -26 35t-40 24q-68 0 -111.5 -77t-107.5 -77q-46 0 -81.5 30.5t-35.5 77.5q0 114 121 189q104 65 219 65q109 0 200 -81.5t91 -185.5q0 -164 -108 -252l-227 -150q33 -1 76 -1q33 0 98 9.5t96 9.5
q49 0 82 -35q30 -33 30 -78q0 -93 -141 -118z" />
    <glyph glyph-name="onequarter" unicode="&#xbc;" 
d="M840 857h-408q-49 0 -81 33t-32 78q0 65 52 83q27 10 104 10q-5 0 45 1v333q-43 -17 -80 -17q-47 0 -79.5 29t-32.5 76q0 56 42 86l87 49l95 65q66 41 98 41q100 0 100 -116v-20q-1 -12 -1 -18v-508q97 2 129 -5q76 -18 76 -86q0 -46 -32 -80t-82 -34zM1089 535
q-16 0 -207 10q-210 11 -416 11q-45 0 -136 -3t-136 -3q-48 0 -81.5 32t-33.5 79q0 46 33.5 78t81.5 32q45 0 136 3t136 3q-21 0 549 -14q192 -5 192 -117q0 -51 -34 -81t-84 -30zM892 -164q-27 0 -76 6q1 -89 1 -124q0 -70 -17.5 -89t-88.5 -19q-59 0 -77 94q-7 40 -7 144
q-320 -19 -321 -19q-51 0 -85.5 31.5t-34.5 81.5q0 65 57 116q79 70 180 189l169 199q47 52 124 52q46 0 82.5 -31t36.5 -78q0 -21 -12.5 -59.5t-12.5 -59.5q0 -88 3 -241q184 2 184 -108q0 -85 -105 -85zM423 42q91 0 204 -1l-3 182z" />
    <glyph glyph-name="threequarters" unicode="&#xbe;" 
d="M561 830q-80 0 -151 28q-94 37 -94 104q0 44 33 79t81 35q22 0 65 -12.5t66 -12.5q139 0 139 37q0 81 -60 91q-61 7 -121 13q-64 22 -64 97q0 62 54 91q14 8 100 32q54 16 54 45q0 43 -113 43q-14 0 -42 -8.5t-43 -8.5q-43 0 -73 26t-30 70q0 73 70 112q54 30 118 30
q134 0 228 -58q115 -72 115 -206q0 -79 -44 -142q80 -79 80 -227q0 -134 -132 -204q-103 -54 -236 -54zM1074 534q25 0 -206 11t-416 11q-45 0 -136.5 -3t-136.5 -3q-49 0 -82 31.5t-33 78.5t33 79t82 32q45 0 136.5 3t136.5 3q204 0 466 -13q163 -8 172 -10
q103 -22 103 -109q0 -51 -34 -81t-85 -30zM878 -164q-27 0 -76 6q1 -89 1 -124q0 -70 -18 -89t-89 -19q-59 0 -77 94q-7 40 -7 144q-320 -19 -321 -19q-51 0 -85 31t-34 82q0 66 56 116q79 70 181 189l169 199q47 52 124 52q46 0 82 -31t36 -78q0 -21 -12.5 -59.5
t-12.5 -59.5q0 -36 4 -241q184 2 184 -108q0 -85 -105 -85zM408 42q91 0 204 -1l-3 182z" />
    <glyph glyph-name="yacute" unicode="&#xfd;" horiz-adv-x="1132" 
d="M1096 845l-345 -713q-128 -261 -195 -433q-21 -62 -66 -184q-36 -94 -128 -94q-57 0 -100 37t-43 93q0 93 212 551q-110 217 -349 639l-49 77q-27 46 -27 84q0 54 43 95t99 41q66 0 103 -49q142 -189 331 -569l130 286q71 149 139 262q43 72 118 72q56 0 100 -38t44 -93
q0 -29 -17 -64zM643 1341q-82 -90 -130 -125q-39 -29 -86 -29q-53 0 -92 34t-39 79q0 37 42 81l73 68q107 117 126 134q91 82 161 82q53 0 91.5 -35t38.5 -79q0 -51 -53.5 -87.5t-131.5 -122.5z" />
    <glyph glyph-name="multiply" unicode="&#xd7;" 
d="M981 766q-50 -35 -151 -124q210 -164 210 -257q0 -47 -29 -86q-36 -46 -96 -46q-69 0 -135 74q-99 111 -108 117l-118 -131q-35 -89 -133 -89q-56 0 -98 34t-42 87q0 65 52 119l89 94l33 50q-113 103 -189 149q-66 40 -66 104q0 51 41 91t98 40q86 0 284 -179
q45 45 170 140l57.5 45t70.5 22q57 0 100 -38t43 -90q0 -61 -83 -126z" />
    <glyph glyph-name="sfthyphen" 
d="M874 431q-138 -10 -491 -10q-62 0 -109 28q-55 34 -55 92t55 92q47 29 109 29q79 0 237 4.5t237 4.5q62 0 109 -25q60 -32 60 -95q0 -109 -152 -120z" />
    <glyph glyph-name="franc" unicode="&#x20a3;" horiz-adv-x="2026" 
d="M1056 1250q-23 0 -51 9q-129 42 -315 42q-61 0 -140.5 -8t-176.5 -24q2 -192 0 -330q152 37 252 37q186 0 324 -17q129 -16 129 -136q0 -58 -41 -97t-100 -39q-52 0 -156 8t-156 8q-73 0 -252 -46v-627q0 -58 -45.5 -97t-104.5 -39q-58 0 -94 38.5t-36 97.5v1146
q0 39 1.5 118t1.5 118q0 59 39.5 98t99.5 39q38 0 67 -15q116 20 213 29.5t175 9.5q114 0 287 -47q217 -59 217 -137q0 -57 -40.5 -98t-97.5 -41zM1982 721q-9 -153 -139 -153q-126 0 -126 130l-5 101q-225 -36 -322 -231l1 -503q0 -57 -39 -94.5t-99 -37.5q-62 0 -96 40
q-32 36 -32 92v655q0 31 2 92.5t2 92.5q0 56 33.5 93.5t95.5 37.5q111 0 132 -114q177 132 393 132q200 0 200 -266q0 -51 -1 -67z" />
    <glyph glyph-name="Gbreve" unicode="&#x11e;" horiz-adv-x="1392" 
d="M1335 588q-68 -298 -274 -477q-209 -180 -490 -180q-266 0 -399 140.5t-133 421.5q0 256 126 525t324 436q139 117 298 117q97 0 264 -70q198 -83 198 -177q0 -54 -41 -96.5t-101 -42.5q-30 0 -132.5 56.5t-187.5 56.5q-90 0 -243 -194q-223 -282 -223 -611
q0 -167 49 -227q52 -63 201 -63q153 0 269 87q123 92 182 268q-232 -18 -404 -95q-31 -14 -62 -14q-62 0 -103 46q-37 41 -37 93q0 153 362 214q204 34 476 34q60 0 100.5 -39t40.5 -96q0 -73 -60 -113zM1285 1899q-14 -148 -200 -218q-136 -52 -323 -52q-157 0 -275 89
q-124 92 -124 225q0 41 32.5 68.5t81.5 27.5t82 -27.5t33 -68.5q0 -49 52 -85q52 -37 118 -37q262 0 297 109q25 78 111 78q56 0 88 -31t27 -78z" />
    <glyph glyph-name="gbreve" unicode="&#x11f;" horiz-adv-x="1087" 
d="M1029 596q-42 -235 -50 -496q-10 -323 -108 -469q-131 -195 -464 -195q-389 0 -389 154q0 55 35 89t92 34q45 0 129 -17t149 -17q149 0 220 91q68 89 80 283q-51 -52 -115 -78t-140 -26q-199 0 -323.5 129.5t-124.5 331.5q0 272 166 440q172 174 465 174q94 0 162 -23
t110 -70q127 -15 127 -150q0 -67 -21 -185zM641 796q-169 0 -263 -111q-84 -101 -84 -262q0 -119 45 -179t135 -60q82 0 165 95q78 90 89 178q19 96 44 299q-34 20 -67 30t-64 10zM1095 1449q-14 -148 -200 -218q-136 -52 -323 -52q-157 0 -275 89q-124 92 -124 225
q0 41 32.5 68.5t81.5 27.5t82 -27.5t33 -68.5q0 -49 52 -85q52 -37 118 -37q262 0 297 109q25 78 111 78q56 0 88 -31t27 -78z" />
    <glyph glyph-name="Idotaccent" unicode="&#x130;" horiz-adv-x="1119" 
d="M957 1182q-52 0 -285 28q-14 -184 -14 -489l-1 -449q133 3 271 3q60 0 99.5 -40t39.5 -96t-39.5 -95.5t-99.5 -39.5q-56 0 -168 -2.5t-168 -2.5q-66 0 -198 -17.5t-198 -17.5q-60 0 -99.5 39.5t-39.5 95.5t39.5 96t99.5 40q68 0 179 15q-2 118 -2 452q0 272 20 519
l-217 -6q-60 0 -100.5 39t-40.5 97q0 59 40 96q37 34 91 39q88 8 306 8q196 0 505 -42q123 -17 123 -138q0 -64 -50 -101q-41 -31 -93 -31zM572 1593q-46 0 -108 49q-68 55 -68 114q0 65 56 105q46 33 94 33q44 0 106 -49q68 -55 68 -113q0 -64 -54 -105q-45 -34 -94 -34z
" />
    <glyph glyph-name="Scedilla" unicode="&#x15e;" horiz-adv-x="1420" 
d="M571 -61q-254 0 -400 113q-123 94 -123 217q0 63 38 104.5t105 41.5q90 0 132 -92q57 -123 258 -123q172 0 333 75q167 77 167 169q0 126 -104 166q-74 29 -297 34q-173 4 -310 65q-185 83 -182 238q3 195 208 357.5t452 162.5q98 0 242 -45q179 -56 179 -129
q0 -52 -36 -92q-40 -45 -103 -45q-47 0 -140.5 20t-141.5 20q-129 -1 -245 -62q-120 -62 -120 -135q0 -38 36.5 -62.5t109.5 -34.5l255 -14q222 -17 351 -125q142 -120 142 -332q0 -258 -294 -391q-224 -101 -512 -101zM663 -445q-96 0 -187 40q-110 48 -110 124
q0 82 108 82q39 0 90 -21.5t87 -21.5q29 1 43.5 12t14.5 33q0 26 -16 46q-17 20 -51 33l-126 42q-67 30 -67 89q0 41 31.5 71.5t80.5 30.5q135 0 256 -91q128 -96 128 -216q0 -118 -73.5 -185.5t-208.5 -67.5z" />
    <glyph glyph-name="scedilla" unicode="&#x15f;" horiz-adv-x="997" 
d="M806 732q-99 0 -119 83q-40 7 -82 7q-241 0 -241 -66q0 -39 145 -105q198 -91 268 -142q145 -105 145 -237q0 -172 -160 -261q-129 -71 -317 -71q-133 0 -243 41q-150 56 -150 165q0 100 119 100q46 0 133 -29t134 -29q203 0 204 82q0 51 -141 113q-206 91 -264 131
q-141 99 -141 241q0 201 213 271q125 41 380 41q100 0 148 -26q66 -35 66 -129q0 -180 -97 -180zM473 -445q-96 0 -187 40q-110 48 -110 124q0 82 108 82q39 0 90 -21.5t87 -21.5q29 1 43.5 12t14.5 33q0 26 -16 46q-17 20 -51 33l-126 42q-67 30 -67 89q0 41 31.5 71.5
t80.5 30.5q135 0 256 -91q128 -96 128 -216q0 -118 -73.5 -185.5t-208.5 -67.5z" />
    <glyph glyph-name="Cacute" unicode="&#x106;" horiz-adv-x="1267" 
d="M1104 1065q-90 0 -133 95q-20 45 -40 54q-15 7 -79 7q-126 0 -291 -196q-231 -274 -231 -513q0 -109 73 -187t175 -78q99 0 201 52q36 19 152 98q78 52 118 52q60 0 102 -44q39 -41 39 -94q0 -59 -52 -103q-275 -232 -560 -232q-225 0 -380 164q-148 158 -148 372
q0 335 293 684q249 296 509 296q44 0 79.5 -3t62.5 -9q44 43 106 43q102 0 126 -117q17 -84 17 -196q0 -50 -29 -91q-38 -54 -110 -54zM960 1791q-82 -90 -130 -125q-39 -29 -86 -29q-53 0 -92 34t-39 79q0 37 42 81l73 68q107 117 126 134q91 82 161 82q53 0 91.5 -35
t38.5 -79q0 -51 -53.5 -87.5t-131.5 -122.5z" />
    <glyph glyph-name="cacute" unicode="&#x107;" horiz-adv-x="1052" 
d="M562 -63q-220 0 -369 125q-157 132 -157 348q0 199 141 411q160 242 372 242q104 0 243 -56q169 -69 169 -159q0 -49 -34 -87q-36 -41 -93 -41q-43 0 -103.5 46.5t-181.5 46.5q-77 0 -167 -151q-86 -146 -86 -252q0 -105 76 -165q72 -57 190 -57q67 0 164 51t123 51
q54 0 92.5 -39t38.5 -89q0 -78 -170 -156q-152 -69 -248 -69zM730 1341q-82 -90 -130 -125q-39 -29 -86 -29q-53 0 -92 34t-39 79q0 37 42 81l73 68q107 117 126 134q91 82 161 82q53 0 91.5 -35t38.5 -79q0 -51 -53.5 -87.5t-131.5 -122.5z" />
    <glyph glyph-name="Ccaron" unicode="&#x10c;" horiz-adv-x="1267" 
d="M1104 1065q-90 0 -133 95q-20 45 -40 54q-15 7 -79 7q-126 0 -291 -196q-231 -274 -231 -513q0 -109 73 -187t175 -78q99 0 201 52q36 19 152 98q78 52 118 52q60 0 102 -44q39 -41 39 -94q0 -59 -52 -103q-275 -232 -560 -232q-225 0 -380 164q-148 158 -148 372
q0 335 293 684q249 296 509 296q44 0 79.5 -3t62.5 -9q44 43 106 43q102 0 126 -117q17 -84 17 -196q0 -50 -29 -91q-38 -54 -110 -54zM1115 1863q-296 -237 -355 -237q-45 0 -85 34l-61 62l-126 123q-84 91 -84 135q0 41 38 70q35 27 81 27q61 0 97 -50q39 -55 153 -164
l191 146q36 25 74 25q47 0 81.5 -30t34.5 -70t-39 -71z" />
    <glyph glyph-name="ccaron" unicode="&#x10d;" horiz-adv-x="1052" 
d="M562 -63q-220 0 -369 125q-157 132 -157 348q0 199 141 411q160 242 372 242q104 0 243 -56q169 -69 169 -159q0 -49 -34 -87q-36 -41 -93 -41q-43 0 -103.5 46.5t-181.5 46.5q-77 0 -167 -151q-86 -146 -86 -252q0 -105 76 -165q72 -57 190 -57q67 0 164 51t123 51
q54 0 92.5 -39t38.5 -89q0 -78 -170 -156q-152 -69 -248 -69zM955 1413q-296 -237 -355 -237q-45 0 -85 34l-61 62l-126 123q-84 91 -84 135q0 41 38 70q35 27 81 27q61 0 97 -50q39 -55 153 -164l191 146q36 25 74 25q47 0 81.5 -30t34.5 -70t-39 -71z" />
    <glyph glyph-name="dcroat" unicode="&#x111;" horiz-adv-x="1203" 
d="M1296 1290q0 -44 -39.5 -72.5t-99.5 -28.5h-42q-34 -507 -34 -590q0 -354 23 -474q3 -16 3 -29q0 -55 -40 -90.5t-93 -35.5q-74 0 -110 66q-136 -82 -292 -82q-224 0 -372 143q-151 146 -151 372q0 269 152 434.5t397 165.5q150 0 236 -64q4 107 9 196h-18q-43 0 -128 -6
t-126 -6q-59 0 -99 29t-40 74q0 83 153 104q53 8 240 8h32q4 42 8 72q17 118 130 118q59 0 95 -38t36 -93q0 -34 -1 -71h32q60 0 99.5 -29.5t39.5 -72.5zM814 324q-2 48 0 366q-66 125 -212 125q-296 0 -296 -342q0 -108 80 -185t186 -77q77 0 117 18q27 12 92 64
q17 14 33 31z" />
    <glyph glyph-name="mu" unicode="&#x3bc;" horiz-adv-x="1065" 
d="M393 -62q0 -43 -13 -111t-13 -113q0 -57 -40 -94.5t-100 -37.5t-99.5 37.5t-39.5 94.5q0 45 10 99q12 71 15 99q10 97 15 214q-27 71 -45 263q-14 153 -14 261q0 156 31 302q23 114 134 114q58 0 99.5 -37t41.5 -94q0 -48 -14.5 -142.5t-14.5 -142.5q0 -291 38 -427
q49 -24 94 -24q114 0 243 33q0 71 -1 173q-2 119 -2 174q0 237 19 361q19 120 137 120q60 0 99.5 -36.5t39.5 -93.5q0 -60 -9 -179.5t-9 -179.5q0 -69 1 -205.5t1 -204.5q0 -21 3.5 -63.5t3.5 -64.5q0 -56 -41 -93t-99 -37q-83 0 -121 76q-126 -47 -265 -47q-45 0 -85 6z
" />
    <glyph glyph-name="Ohm" unicode="&#x2126;" horiz-adv-x="1966" 
d="M1804 -122q-57 0 -172 8t-173 8q-31 0 -92 -2t-92 -2q-69 0 -119 66q-45 58 -45 118q0 62 98 178l148 169q172 235 172 661q0 151 -64 216.5t-219 65.5q-243 0 -465 -152q-239 -164 -239 -377q0 -159 55 -310l122 -290q5 -12 44 -74q28 -44 28 -79q0 -138 -123 -159
q-375 -63 -507 -63q-60 0 -98 41t-38 95q0 101 110 128q93 23 314 44q-113 257 -133 321q-53 160 -53 346q0 335 329 575q302 220 654 220q319 0 453 -185q108 -149 108 -446q0 -455 -316 -838q224 3 332 -18q118 -22 118 -130q0 -55 -38.5 -95t-98.5 -40z" />
    <glyph glyph-name="Delta" unicode="&#x2206;" horiz-adv-x="1627" 
d="M1403 -72q-76 0 -206 14q-150 15 -207 18q-70 3 -159 3q-74 0 -220.5 -2t-220.5 -2q-43 0 -127.5 -6.5t-126.5 -6.5q-121 0 -121 107q0 51 125 304l163 329l234 560q34 96 113 281q68 136 169 136q80 0 140 -103l75 -167l255 -537q148 -314 239 -544q70 -176 70 -233
q0 -151 -195 -151zM824 1206q-122 -309 -227 -549q-65 -148 -202 -431q221 3 438 3q182 0 299 -12l164 -20q-85 218 -225 509z" />
    <glyph glyph-name="hyphenminus" unicode="&#xad;" 
d="M874 431q-138 -10 -491 -10q-62 0 -109 28q-55 34 -55 92t55 92q47 29 109 29q79 0 237 4.5t237 4.5q62 0 109 -25q60 -32 60 -95q0 -109 -152 -120z" />
    <glyph glyph-name="overscore" unicode="&#xaf;" horiz-adv-x="1284" 
d="M-75 1703v186h1438v-186h-1438z" />
    <glyph glyph-name="middot" horiz-adv-x="510" 
d="M391 716q0 -51 -36.5 -87.5t-87.5 -36.5q-52 0 -88 36.5t-36 87.5t36 87.5t88 36.5q51 0 87.5 -36.5t36.5 -87.5z" />
    <glyph glyph-name="Abreve" unicode="&#x102;" horiz-adv-x="1498" 
d="M1250 -30q-79 3 -159 186q-53 118 -91 272q-74 -11 -242 -22q-158 -11 -242 -26q-46 -110 -160 -331q-44 -72 -122 -72q-55 0 -99 37.5t-44 95.5q0 51 146 346q-14 31 -12 58q4 48 97 75q142 246 316 510q250 379 308 379q110 0 147 -133l63 -321q61 -288 149 -659
q7 -28 51 -132q36 -86 36 -129q0 -58 -43.5 -97t-98.5 -37zM877 996l-215 -365q45 10 140 16q112 7 141 11q-24 130 -66 338zM1395 1899q-14 -148 -200 -218q-136 -52 -323 -52q-157 0 -275 89q-124 92 -124 225q0 41 32.5 68.5t81.5 27.5t82 -27.5t33 -68.5q0 -49 52 -85
q52 -37 118 -37q262 0 297 109q25 78 111 78q56 0 88 -31t27 -78z" />
    <glyph glyph-name="abreve" unicode="&#x103;" horiz-adv-x="1138" 
d="M965 -66q-46 0 -146 100q-92 -44 -162 -66.5t-119 -22.5q-241 0 -361.5 129t-120.5 386q0 241 178 412.5t426 171.5q95 0 220 -54q151 -65 151 -151q0 -36 -23 -63q-10 -40 -15.5 -100.5t-5.5 -141.5q0 -191 27 -275q3 -9 46 -104q39 -86 39 -98q0 -53 -40.5 -88
t-93.5 -35zM717 620q0 32 4.5 73.5t13.5 92.5q-20 10 -35.5 14.5t-26.5 4.5q-136 0 -238 -106.5t-102 -246.5q0 -134 48 -201.5t144 -67.5q62 0 117.5 20.5t104.5 60.5q-30 238 -30 356zM1095 1449q-14 -148 -200 -218q-136 -52 -323 -52q-157 0 -275 89q-124 92 -124 225
q0 41 32.5 68.5t81.5 27.5t82 -27.5t33 -68.5q0 -49 52 -85q52 -37 118 -37q262 0 297 109q25 78 111 78q56 0 88 -31t27 -78z" />
    <glyph glyph-name="Aogonek" unicode="&#x104;" horiz-adv-x="1498" 
d="M1250 -30q-79 3 -159 186q-53 118 -91 272q-74 -11 -242 -22q-158 -11 -242 -26q-46 -110 -160 -331q-44 -72 -122 -72q-55 0 -99 37.5t-44 95.5q0 51 146 346q-14 31 -12 58q4 48 97 75q142 246 316 510q250 379 308 379q110 0 147 -133l63 -321q61 -288 149 -659
q7 -28 51 -132q36 -86 36 -129q0 -58 -43.5 -97t-98.5 -37zM877 996l-215 -365q45 10 140 16q112 7 141 11q-24 130 -66 338zM1215 -344q-117 0 -200 87q-77 81 -77 179q0 84 82 164q86 84 185 84q49 0 82 -32q30 -29 30 -69q0 -56 -75 -90.5t-75 -56.5t18.5 -45t29.5 -23
q90 0 155 29q29 13 57 13q48 0 81 -31t33 -71q0 -65 -132 -106q-102 -32 -194 -32z" />
    <glyph glyph-name="aogonek" unicode="&#x105;" horiz-adv-x="1138" 
d="M965 -66q-46 0 -146 100q-92 -44 -162 -66.5t-119 -22.5q-241 0 -361.5 129t-120.5 386q0 241 178 412.5t426 171.5q95 0 220 -54q151 -65 151 -151q0 -36 -23 -63q-10 -40 -15.5 -100.5t-5.5 -141.5q0 -191 27 -275q3 -9 46 -104q39 -86 39 -98q0 -53 -40.5 -88
t-93.5 -35zM717 620q0 32 4.5 73.5t13.5 92.5q-20 10 -35.5 14.5t-26.5 4.5q-136 0 -238 -106.5t-102 -246.5q0 -134 48 -201.5t144 -67.5q62 0 117.5 20.5t104.5 60.5q-30 238 -30 356zM995 -344q-117 0 -200 87q-77 81 -77 179q0 84 82 164q86 84 185 84q49 0 82 -32
q30 -29 30 -69q0 -56 -75 -90.5t-75 -56.5t18.5 -45t29.5 -23q90 0 155 29q29 13 57 13q48 0 81 -31t33 -71q0 -65 -132 -106q-102 -32 -194 -32z" />
    <glyph glyph-name="Dcaron" unicode="&#x10e;" horiz-adv-x="1478" 
d="M282 -10q-59 1 -99 40.5t-40 95.5q0 100 9.5 300t9.5 300q0 111 -4.5 333t-4.5 333q0 55 53 109.5t113 54.5q33 0 166 -62q155 -74 184 -83q293 -95 500 -294q247 -237 247 -524q0 -173 -85 -329q-85 -159 -233 -255q-166 -108 -467 -108q-73 0 -168 21q-115 26 -181 68z
M844 1018q-97 61 -416 192v-990q39 -25 89.5 -37.5t112.5 -12.5q216 0 310 60q89 57 141.5 155t52.5 204q0 248 -290 429zM1015 1863q-296 -237 -355 -237q-45 0 -85 34l-61 62l-126 123q-84 91 -84 135q0 41 38 70q35 27 81 27q61 0 97 -50q39 -55 153 -164l191 146
q36 25 74 25q47 0 81.5 -30t34.5 -70t-39 -71z" />
    <glyph glyph-name="dcaron" unicode="&#x10f;" horiz-adv-x="1565" 
d="M834 1005q13 341 31 471q17 118 130 118q59 0 95 -38t36 -93q0 -145 -22.5 -432t-22.5 -432q0 -354 23 -474q3 -16 3 -29q0 -55 -40 -90.5t-93 -35.5q-74 0 -110 66q-68 -41 -141 -61.5t-151 -20.5q-224 0 -372 143q-151 146 -151 372q0 269 152 434.5t397 165.5
q75 0 134 -16t102 -48zM814 690q-33 63 -86 94t-126 31q-148 0 -222 -85.5t-74 -256.5q0 -108 80 -185t186 -77q77 0 117 18q27 12 92 64q17 14 33 31q-2 48 0 366zM1318 1103q-35 0 -58 23t-23 57q0 29 23 64l41 56q14 20 21 41q-85 52 -85 131q0 56 39.5 92t98.5 36
q142 0 142 -166q0 -96 -51 -204q-62 -130 -148 -130z" />
    <glyph glyph-name="Dslash" unicode="&#x110;" horiz-adv-x="1478" 
d="M282 -10q-60 1 -94.5 38.5t-34.5 97.5v436q-27 -1 -47 -1q-190 0 -190 135t188 135q21 0 49 -1v562q0 58 54 111t112 53q31 0 168 -63q171 -78 183 -82q311 -114 506 -300q240 -229 240 -518q0 -174 -86 -332.5t-232 -252.5q-167 -107 -467 -107q-209 0 -349 89z
M428 1210v-382q27 -1 119 -9q74 -6 119 -6q59 0 99 -37.5t40 -95.5t-40 -95t-99 -37q-46 0 -119 6q-94 7 -119 8q2 -113 0 -340q103 -52 202 -52q215 0 310 60q89 56 141.5 154t52.5 205q0 234 -250 403q-115 78 -456 218z" />
    <glyph glyph-name="Eogonek" unicode="&#x118;" horiz-adv-x="1279" 
d="M1109 1282q-20 0 -42 6q-162 44 -315 44q-75 0 -161 -12t-183 -36q0 -133 -9 -395q56 4 391 37q191 19 242 19q59 0 101 -37.5t42 -99.5q0 -119 -127 -135q-80 -6 -239 -20q-142 -16 -428 -39q-7 -127 -7 -205q0 -196 23 -223q11 -13 126 -13q62 0 187 3t187 3q20 0 59 6
t58 6q58 0 99 -33q47 -37 47 -104q0 -112 -117 -134q-100 -19 -415 -19q-326 0 -425 88q-109 97 -109 420q0 134 19.5 402.5t19.5 401.5q0 35 -10 103.5t-10 103.5q0 152 140 152q44 0 81 -25q116 29 220.5 43.5t197.5 14.5q252 0 403 -58q92 -35 92 -127q0 -52 -36 -92
q-40 -46 -102 -46zM875 -404q-117 0 -200 87q-77 81 -77 179q0 84 82 164q86 84 185 84q49 0 82 -32q30 -29 30 -69q0 -56 -75 -90.5t-75 -56.5t18.5 -45t29.5 -23q90 0 155 29q29 13 57 13q48 0 81 -31t33 -71q0 -65 -132 -106q-102 -32 -194 -32z" />
    <glyph glyph-name="eogonek" unicode="&#x119;" horiz-adv-x="1145" 
d="M606 -46q-239 0 -391 114q-168 126 -168 355q0 253 133 428q148 194 399 194q174 0 289 -56q151 -74 151 -230q0 -110 -123 -195q-56 -39 -225 -114l-337 -149q48 -52 116 -78t156 -26q134 0 227 55q83 49 133 49q104 0 104 -101q0 -114 -167 -186q-140 -60 -297 -60z
M579 803q-93 0 -159 -62t-106 -186l225 97q135 61 215 113q-67 38 -175 38zM675 -384q-117 0 -200 87q-77 81 -77 179q0 84 82 164q86 84 185 84q49 0 82 -32q30 -29 30 -69q0 -56 -75 -90.5t-75 -56.5t18.5 -45t29.5 -23q90 0 155 29q29 13 57 13q48 0 81 -31t33 -71
q0 -65 -132 -106q-102 -32 -194 -32z" />
    <glyph glyph-name="Ecaron" unicode="&#x11a;" horiz-adv-x="1279" 
d="M1109 1282q-20 0 -42 6q-162 44 -315 44q-75 0 -161 -12t-183 -36q0 -133 -9 -395q56 4 391 37q191 19 242 19q59 0 101 -37.5t42 -99.5q0 -119 -127 -135q-80 -6 -239 -20q-142 -16 -428 -39q-7 -127 -7 -205q0 -196 23 -223q11 -13 126 -13q62 0 187 3t187 3q20 0 59 6
t58 6q58 0 99 -33q47 -37 47 -104q0 -112 -117 -134q-100 -19 -415 -19q-326 0 -425 88q-109 97 -109 420q0 134 19.5 402.5t19.5 401.5q0 35 -10 103.5t-10 103.5q0 152 140 152q44 0 81 -25q116 29 220.5 43.5t197.5 14.5q252 0 403 -58q92 -35 92 -127q0 -52 -36 -92
q-40 -46 -102 -46zM1095 1893q-296 -237 -355 -237q-45 0 -85 34l-61 62l-126 123q-84 91 -84 135q0 41 38 70q35 27 81 27q61 0 97 -50q39 -55 153 -164l191 146q36 25 74 25q47 0 81.5 -30t34.5 -70t-39 -71z" />
    <glyph glyph-name="ecaron" unicode="&#x11b;" horiz-adv-x="1145" 
d="M606 -46q-239 0 -391 114q-168 126 -168 355q0 253 133 428q148 194 399 194q174 0 289 -56q151 -74 151 -230q0 -110 -123 -195q-56 -39 -225 -114l-337 -149q48 -52 116 -78t156 -26q134 0 227 55q83 49 133 49q104 0 104 -101q0 -114 -167 -186q-140 -60 -297 -60z
M579 803q-93 0 -159 -62t-106 -186l225 97q135 61 215 113q-67 38 -175 38zM955 1413q-296 -237 -355 -237q-45 0 -85 34l-61 62l-126 123q-84 91 -84 135q0 41 38 70q35 27 81 27q61 0 97 -50q39 -55 153 -164l191 146q36 25 74 25q47 0 81.5 -30t34.5 -70t-39 -71z" />
    <glyph glyph-name="Lacute" unicode="&#x139;" horiz-adv-x="1128" 
d="M1042 38q-118 -52 -365 -93q-226 -38 -371 -38q-245 0 -245 215q0 -17 20 317q26 434 26 966q0 57 39.5 97t99.5 40t100 -40t40 -97q0 -533 -27 -982q-9 -80 -19 -245q237 4 608 116q23 7 44 7q63 0 102 -46q35 -41 35 -92q0 -86 -87 -125zM610 1791q-82 -90 -130 -125
q-39 -29 -86 -29q-53 0 -92 34t-39 79q0 37 42 81l73 68q107 117 126 134q91 82 161 82q53 0 91.5 -35t38.5 -79q0 -51 -53.5 -87.5t-131.5 -122.5z" />
    <glyph glyph-name="lacute" unicode="&#x13a;" horiz-adv-x="561" 
d="M410 147q0 -190 -138 -190q-60 0 -99 38t-39 98v1383q0 58 42 95q40 34 99 34t97 -35.5t38 -93.5v-1329zM520 1841q-82 -90 -130 -125q-39 -29 -86 -29q-53 0 -92 34t-39 79q0 37 42 81l73 68q107 117 126 134q91 82 161 82q53 0 91.5 -35t38.5 -79q0 -51 -53.5 -87.5
t-131.5 -122.5z" />
    <glyph glyph-name="Lcaron" unicode="&#x13d;" horiz-adv-x="1128" 
d="M1042 38q-118 -52 -365 -93q-226 -38 -371 -38q-245 0 -245 215q0 -17 20 317q26 434 26 966q0 57 39.5 97t99.5 40t100 -40t40 -97q0 -533 -27 -982q-9 -80 -19 -245q237 4 608 116q23 7 44 7q63 0 102 -46q35 -41 35 -92q0 -86 -87 -125zM724 1033q-35 0 -58 23t-23 57
q0 29 23 64l41 56q14 20 21 41q-85 52 -85 131q0 56 39.5 92t98.5 36q142 0 142 -166q0 -96 -51 -204q-62 -130 -148 -130z" />
    <glyph glyph-name="lcaron" unicode="&#x13e;" horiz-adv-x="943" 
d="M410 147q0 -190 -138 -190q-60 0 -99 38t-39 98v1383q0 58 42 95q40 34 99 34t97 -35.5t38 -93.5v-1329zM644 1103q-35 0 -58 23t-23 57q0 29 23 64l41 56q14 20 21 41q-85 52 -85 131q0 56 39.5 92t98.5 36q142 0 142 -166q0 -96 -51 -204q-62 -130 -148 -130z" />
    <glyph glyph-name="Ldot" unicode="&#x13f;" horiz-adv-x="1128" 
d="M1042 38q-118 -52 -365 -93q-226 -38 -371 -38q-245 0 -245 215q0 -17 20 317q26 434 26 966q0 57 39.5 97t99.5 40t100 -40t40 -97q0 -533 -27 -982q-9 -80 -19 -245q237 4 608 116q23 7 44 7q63 0 102 -46q35 -41 35 -92q0 -86 -87 -125zM941 716q0 -51 -36.5 -87.5
t-87.5 -36.5q-52 0 -88 36.5t-36 87.5t36 87.5t88 36.5q51 0 87.5 -36.5t36.5 -87.5z" />
    <glyph glyph-name="ldot" unicode="&#x140;" horiz-adv-x="848" 
d="M410 147q0 -190 -138 -190q-60 0 -99 38t-39 98v1383q0 58 42 95q40 34 99 34t97 -35.5t38 -93.5v-1329zM811 716q0 -51 -36.5 -87.5t-87.5 -36.5q-52 0 -88 36.5t-36 87.5t36 87.5t88 36.5q51 0 87.5 -36.5t36.5 -87.5z" />
    <glyph glyph-name="Nacute" unicode="&#x143;" horiz-adv-x="1665" 
d="M1581 246q0 -50 -17 -158q-20 -129 -146 -129q-70 0 -158 79q-385 347 -869 973q-6 -260 -6 -319q0 -79 3.5 -238t3.5 -238q0 -295 -144 -295q-73 0 -117 45q-39 40 -39 97q0 40 6.5 121t6.5 121q0 59 4 177t4 177q0 63 -3 190t-3 190q0 60 -12 179t-12 179t51.5 107
t117.5 47q74 0 164 -128q454 -648 896 -1057q1 32 1 152q0 493 -10 665q-2 29 -13 108q-10 70 -10 110q0 138 146 138q163 0 163 -503q0 -11 -2 -158q-6 -508 -6 -632zM1010 1791q-82 -90 -130 -125q-39 -29 -86 -29q-53 0 -92 34t-39 79q0 37 42 81l73 68q107 117 126 134
q91 82 161 82q53 0 91.5 -35t38.5 -79q0 -51 -53.5 -87.5t-131.5 -122.5z" />
    <glyph glyph-name="nacute" unicode="&#x144;" horiz-adv-x="1072" 
d="M890 -71q-123 0 -137 121l-28 207q-15 110 -15 207q0 26 3.5 89t3.5 89q0 7 2 35.5t2 46.5q0 83 -43 83q-92 0 -180.5 -107.5t-138.5 -272.5q-2 -33 -9 -88q-6 -45 -6 -88q0 -28 6.5 -84.5t6.5 -84.5q0 -57 -39.5 -94.5t-99.5 -37.5t-99 37.5t-39 94.5q0 28 -6 84.5
t-6 84.5q0 96 14 267t14 267q0 30 -3.5 89.5t-3.5 88.5q0 56 40.5 92.5t99.5 36.5q131 0 140 -157l1 -11q146 147 308 147q189 0 261 -158q48 -106 48 -317v-71q-1 -46 -1 -65q0 -78 21.5 -201t21.5 -200q0 -56 -40 -93t-99 -37zM700 1341q-82 -90 -130 -125
q-39 -29 -86 -29q-53 0 -92 34t-39 79q0 37 42 81l73 68q107 117 126 134q91 82 161 82q53 0 91.5 -35t38.5 -79q0 -51 -53.5 -87.5t-131.5 -122.5z" />
    <glyph glyph-name="Ncaron" unicode="&#x147;" horiz-adv-x="1665" 
d="M1581 246q0 -50 -17 -158q-20 -129 -146 -129q-70 0 -158 79q-385 347 -869 973q-6 -260 -6 -319q0 -79 3.5 -238t3.5 -238q0 -295 -144 -295q-73 0 -117 45q-39 40 -39 97q0 40 6.5 121t6.5 121q0 59 4 177t4 177q0 63 -3 190t-3 190q0 60 -12 179t-12 179t51.5 107
t117.5 47q74 0 164 -128q454 -648 896 -1057q1 32 1 152q0 493 -10 665q-2 29 -13 108q-10 70 -10 110q0 138 146 138q163 0 163 -503q0 -11 -2 -158q-6 -508 -6 -632zM1195 1863q-296 -237 -355 -237q-45 0 -85 34l-61 62l-126 123q-84 91 -84 135q0 41 38 70q35 27 81 27
q61 0 97 -50q39 -55 153 -164l191 146q36 25 74 25q47 0 81.5 -30t34.5 -70t-39 -71z" />
    <glyph glyph-name="ncaron" unicode="&#x148;" horiz-adv-x="1072" 
d="M890 -71q-123 0 -137 121l-28 207q-15 110 -15 207q0 26 3.5 89t3.5 89q0 7 2 35.5t2 46.5q0 83 -43 83q-92 0 -180.5 -107.5t-138.5 -272.5q-2 -33 -9 -88q-6 -45 -6 -88q0 -28 6.5 -84.5t6.5 -84.5q0 -57 -39.5 -94.5t-99.5 -37.5t-99 37.5t-39 94.5q0 28 -6 84.5
t-6 84.5q0 96 14 267t14 267q0 30 -3.5 89.5t-3.5 88.5q0 56 40.5 92.5t99.5 36.5q131 0 140 -157l1 -11q146 147 308 147q189 0 261 -158q48 -106 48 -317v-71q-1 -46 -1 -65q0 -78 21.5 -201t21.5 -200q0 -56 -40 -93t-99 -37zM955 1413q-296 -237 -355 -237q-45 0 -85 34
l-61 62l-126 123q-84 91 -84 135q0 41 38 70q35 27 81 27q61 0 97 -50q39 -55 153 -164l191 146q36 25 74 25q47 0 81.5 -30t34.5 -70t-39 -71z" />
    <glyph glyph-name="Odblacute" unicode="&#x150;" horiz-adv-x="1635" 
d="M786 -61q-296 0 -504 170q-222 182 -222 471q0 340 213 620q239 315 602 315q349 0 523 -160t174 -481q0 -340 -196 -616q-226 -319 -590 -319zM875 1244q-223 0 -382 -216q-149 -202 -149 -448q0 -166 129 -270q124 -100 313 -100q220 0 367 216q135 197 135 448
q0 210 -94 292q-90 78 -319 78zM1452 1843l-156 -124q-111 -86 -160 -86q-48 0 -81.5 30t-33.5 69q0 34 38 69l69 53q197 165 262 165q48 0 81 -30.5t33 -68.5q0 -42 -52 -77zM1027 1886q-39 -41 -125 -108q-90 -71 -127 -108t-88 -37q-46 0 -81.5 28.5t-35.5 68.5
q0 41 119 146l165 136q37 33 85 33q46 0 81.5 -28.5t35.5 -68.5q0 -32 -29 -62z" />
    <glyph glyph-name="odblacute" unicode="&#x151;" horiz-adv-x="1077" 
d="M514 -59q-185 0 -318 127q-146 139 -153 371q-7 221 121 394q152 204 423 204q200 0 318 -160q106 -144 106 -357q0 -232 -124 -396q-139 -183 -373 -183zM574 773q-123 1 -194 -112q-60 -95 -60 -222q0 -120 68 -184q54 -51 126 -51q87 0 151 59q73 69 78 187
q13 322 -169 323zM1102 1393l-156 -124q-111 -86 -160 -86q-48 0 -81.5 30t-33.5 69q0 34 38 69l69 53q197 165 262 165q48 0 81 -30.5t33 -68.5q0 -42 -52 -77zM677 1436q-39 -41 -125 -108q-90 -71 -127 -108t-88 -37q-46 0 -81.5 28.5t-35.5 68.5q0 41 119 146l165 136
q37 33 85 33q46 0 81.5 -28.5t35.5 -68.5q0 -32 -29 -62z" />
    <glyph glyph-name="Racute" unicode="&#x154;" horiz-adv-x="1311" 
d="M1126 -12q-54 0 -99 42q-303 284 -666 394q11 -291 11 -323q0 -57 -40 -96.5t-100 -39.5t-100 39.5t-40 96.5q0 75 2 224.5t2 224.5l2 807q0 65 39 118q51 68 141 61q243 -18 249 -19q140 -17 238 -67q427 -215 427 -533q0 -131 -89.5 -231.5t-268.5 -169.5
q265 -148 399 -302q35 -40 35 -89q0 -56 -42 -96.5t-100 -40.5zM485 1246q-8 1 -117 8v-531q25 -1 44 -1q245 0 363 61q51 26 93.5 69t42.5 65q0 112 -142 216q-135 98 -284 113zM660 1791q-82 -90 -130 -125q-39 -29 -86 -29q-53 0 -92 34t-39 79q0 37 42 81l73 68
q107 117 126 134q91 82 161 82q53 0 91.5 -35t38.5 -79q0 -51 -53.5 -87.5t-131.5 -122.5z" />
    <glyph glyph-name="racute" unicode="&#x155;" horiz-adv-x="984" 
d="M940 721q-9 -153 -139 -153q-126 0 -126 130l-5 101q-225 -36 -322 -231l1 -503q0 -57 -39 -94.5t-99 -37.5q-62 0 -96 40q-32 36 -32 92v655q0 31 2 92.5t2 92.5q0 56 33.5 93.5t95.5 37.5q111 0 132 -114q177 132 393 132q200 0 200 -266q0 -51 -1 -67zM670 1341
q-82 -90 -130 -125q-39 -29 -86 -29q-53 0 -92 34t-39 79q0 37 42 81l73 68q107 117 126 134q91 82 161 82q53 0 91.5 -35t38.5 -79q0 -51 -53.5 -87.5t-131.5 -122.5z" />
    <glyph glyph-name="Rcaron" unicode="&#x158;" horiz-adv-x="1311" 
d="M1126 -12q-54 0 -99 42q-303 284 -666 394q11 -291 11 -323q0 -57 -40 -96.5t-100 -39.5t-100 39.5t-40 96.5q0 75 2 224.5t2 224.5l2 807q0 65 39 118q51 68 141 61q243 -18 249 -19q140 -17 238 -67q427 -215 427 -533q0 -131 -89.5 -231.5t-268.5 -169.5
q265 -148 399 -302q35 -40 35 -89q0 -56 -42 -96.5t-100 -40.5zM485 1246q-8 1 -117 8v-531q25 -1 44 -1q245 0 363 61q51 26 93.5 69t42.5 65q0 112 -142 216q-135 98 -284 113zM955 1863q-296 -237 -355 -237q-45 0 -85 34l-61 62l-126 123q-84 91 -84 135q0 41 38 70
q35 27 81 27q61 0 97 -50q39 -55 153 -164l191 146q36 25 74 25q47 0 81.5 -30t34.5 -70t-39 -71z" />
    <glyph glyph-name="rcaron" unicode="&#x159;" horiz-adv-x="984" 
d="M940 721q-9 -153 -139 -153q-126 0 -126 130l-5 101q-225 -36 -322 -231l1 -503q0 -57 -39 -94.5t-99 -37.5q-62 0 -96 40q-32 36 -32 92v655q0 31 2 92.5t2 92.5q0 56 33.5 93.5t95.5 37.5q111 0 132 -114q177 132 393 132q200 0 200 -266q0 -51 -1 -67zM855 1413
q-296 -237 -355 -237q-45 0 -85 34l-61 62l-126 123q-84 91 -84 135q0 41 38 70q35 27 81 27q61 0 97 -50q39 -55 153 -164l191 146q36 25 74 25q47 0 81.5 -30t34.5 -70t-39 -71z" />
    <glyph glyph-name="Sacute" unicode="&#x15a;" horiz-adv-x="1420" 
d="M571 -61q-254 0 -400 113q-123 94 -123 217q0 63 38 104.5t105 41.5q90 0 132 -92q57 -123 258 -123q172 0 333 75q167 77 167 169q0 126 -104 166q-74 29 -297 34q-173 4 -310 65q-185 83 -182 238q3 195 208 357.5t452 162.5q98 0 242 -45q179 -56 179 -129
q0 -52 -36 -92q-40 -45 -103 -45q-47 0 -140.5 20t-141.5 20q-129 -1 -245 -62q-120 -62 -120 -135q0 -38 36.5 -62.5t109.5 -34.5l255 -14q222 -17 351 -125q142 -120 142 -332q0 -258 -294 -391q-224 -101 -512 -101zM920 1791q-82 -90 -130 -125q-39 -29 -86 -29
q-53 0 -92 34t-39 79q0 37 42 81l73 68q107 117 126 134q91 82 161 82q53 0 91.5 -35t38.5 -79q0 -51 -53.5 -87.5t-131.5 -122.5z" />
    <glyph glyph-name="sacute" unicode="&#x15b;" horiz-adv-x="997" 
d="M806 732q-99 0 -119 83q-40 7 -82 7q-241 0 -241 -66q0 -39 145 -105q198 -91 268 -142q145 -105 145 -237q0 -172 -160 -261q-129 -71 -317 -71q-133 0 -243 41q-150 56 -150 165q0 100 119 100q46 0 133 -29t134 -29q203 0 204 82q0 51 -141 113q-206 91 -264 131
q-141 99 -141 241q0 201 213 271q125 41 380 41q100 0 148 -26q66 -35 66 -129q0 -180 -97 -180zM620 1341q-82 -90 -130 -125q-39 -29 -86 -29q-53 0 -92 34t-39 79q0 37 42 81l73 68q107 117 126 134q91 82 161 82q53 0 91.5 -35t38.5 -79q0 -51 -53.5 -87.5
t-131.5 -122.5z" />
    <glyph glyph-name="Tcommaaccent" unicode="&#x21a;" horiz-adv-x="1425" 
d="M1296 1199q-78 0 -243 11q-159 11 -243 10q4 -114 27 -406q21 -258 21 -408q0 -34 7 -101t7 -101q0 -75 -32 -135q-41 -77 -117 -77q-55 0 -97 35q-47 39 -47 98q0 14 5 42.5t5 43.5q0 46 -6.5 139t-6.5 140q0 134 -21 363q-24 263 -28 363h-52q-223 0 -354 32
q-111 27 -111 131q0 51 36 92q42 49 110 44q35 -2 159 -17q99 -11 160 -11t182.5 2t182.5 2q76 0 228 -10.5t228 -10.5q60 0 100.5 -39t40.5 -96t-40.5 -96.5t-100.5 -39.5zM674 -597q-35 0 -58 23t-23 57q0 29 23 64l41 56q14 20 21 41q-85 52 -85 131q0 56 39.5 92
t98.5 36q142 0 142 -166q0 -96 -51 -204q-62 -130 -148 -130z" />
    <glyph glyph-name="tcommaaccent" unicode="&#x21b;" horiz-adv-x="965" 
d="M808 805q-21 0 -49.5 1.5t-49.5 1.5q-41 0 -95 -8q18 -404 18 -528q0 -13 1 -48.5t1 -57.5q0 -230 -145 -230q-55 0 -95 34q-44 36 -44 90q0 36 3 108t3 108q0 121 -18 518q-62 3 -187.5 16.5t-125.5 129.5q0 56 38 95t98 39q37 0 170 -12q-1 32 -5 106q-4 64 -4 99
q0 56 41 93t99 37q148 0 148 -249l-2 -82q62 9 101 9q115 0 157 -15q80 -28 80 -122q0 -57 -39 -95t-99 -38zM430 -597q-35 0 -58 23t-23 57q0 29 23 64l41 56q14 20 21 41q-85 52 -85 131q0 56 39.5 92t98.5 36q142 0 142 -166q0 -96 -51 -204q-62 -130 -148 -130z" />
    <glyph glyph-name="Tcaron" unicode="&#x164;" horiz-adv-x="1425" 
d="M1296 1199q-78 0 -243 11q-159 11 -243 10q4 -114 27 -406q21 -258 21 -408q0 -34 7 -101t7 -101q0 -75 -32 -135q-41 -77 -117 -77q-55 0 -97 35q-47 39 -47 98q0 14 5 42.5t5 43.5q0 46 -6.5 139t-6.5 140q0 134 -21 363q-24 263 -28 363h-52q-223 0 -354 32
q-111 27 -111 131q0 51 36 92q42 49 110 44q35 -2 159 -17q99 -11 160 -11t182.5 2t182.5 2q76 0 228 -10.5t228 -10.5q60 0 100.5 -39t40.5 -96t-40.5 -96.5t-100.5 -39.5zM1025 1863q-296 -237 -355 -237q-45 0 -85 34l-61 62l-126 123q-84 91 -84 135q0 41 38 70
q35 27 81 27q61 0 97 -50q39 -55 153 -164l191 146q36 25 74 25q47 0 81.5 -30t34.5 -70t-39 -71z" />
    <glyph glyph-name="tcaron" unicode="&#x165;" horiz-adv-x="1309" 
d="M808 805q-21 0 -49.5 1.5t-49.5 1.5q-41 0 -95 -8q18 -404 18 -528q0 -13 1 -48.5t1 -57.5q0 -230 -145 -230q-55 0 -95 34q-44 36 -44 90q0 36 3 108t3 108q0 121 -18 518q-62 3 -187.5 16.5t-125.5 129.5q0 56 38 95t98 39q37 0 170 -12q-1 32 -5 106q-4 64 -4 99
q0 56 41 93t99 37q148 0 148 -249l-2 -82q62 9 101 9q115 0 157 -15q80 -28 80 -122q0 -57 -39 -95t-99 -38zM1074 893q-35 0 -58 23t-23 57q0 29 23 64l41 56q14 20 21 41q-85 52 -85 131q0 56 39.5 92t98.5 36q142 0 142 -166q0 -96 -51 -204q-62 -130 -148 -130z" />
    <glyph glyph-name="Uring" unicode="&#x16e;" horiz-adv-x="1509" 
d="M1154 173q-73 -99 -176 -165q-126 -80 -259 -80q-255 0 -379 98q-262 207 -262 719q0 49 5 146t5 146q0 39 2 116.5t2 116.5q0 80 29 151q39 94 109 94q55 0 97 -36q46 -38 46 -98q0 -57 -1.5 -172.5t-1.5 -173.5q0 -48 -5 -145t-5 -145q0 -155 36 -288q42 -159 123 -222
q42 -33 200 -35q264 -4 356 450q48 235 48 660q0 56 33 108q45 69 128 69q68 0 102 -50q26 -37 26 -82q0 -395 -37 -616q-56 -341 -221 -566zM740 1636q-150 -2 -253 76q-104 77 -104 190q0 144 118 228q111 78 285 78q139 0 239 -70q112 -76 112 -201q0 -157 -127 -235
q-103 -64 -270 -66zM786 2007q-176 0 -173 -104q1 -26 51.5 -47.5t108.5 -21.5q67 0 100.5 26t33.5 77q0 31 -34.5 50.5t-86.5 19.5z" />
    <glyph glyph-name="uring" unicode="&#x16f;" horiz-adv-x="1065" 
d="M978 578q0 -67 1 -202t1 -202q0 -21 3.5 -62.5t3.5 -62.5q0 -56 -40.5 -92.5t-99.5 -36.5q-83 0 -121 75q-128 -47 -265 -47q-142 0 -239 60q-109 69 -130 201q-39 250 -39 447q0 130 30 297q20 113 135 113q58 0 99 -36.5t41 -92.5q0 -44 -14.5 -138t-14.5 -143
q0 -141 9.5 -246.5t28.5 -174.5q25 -11 48.5 -17t45.5 -6q111 0 244 32q0 77 -1 175q-2 117 -2 168q0 205 19 354q15 119 136 119q59 0 101 -37t39 -93q-19 -381 -19 -352zM520 1186q-150 -2 -253 76q-104 77 -104 190q0 144 118 228q111 78 285 78q139 0 239 -70
q112 -76 112 -201q0 -157 -127 -235q-103 -64 -270 -66zM566 1557q-176 0 -173 -104q1 -26 51.5 -47.5t108.5 -21.5q67 0 100.5 26t33.5 77q0 31 -34.5 50.5t-86.5 19.5z" />
    <glyph glyph-name="Udblacute" unicode="&#x170;" horiz-adv-x="1509" 
d="M1154 173q-73 -99 -176 -165q-126 -80 -259 -80q-255 0 -379 98q-262 207 -262 719q0 49 5 146t5 146q0 39 2 116.5t2 116.5q0 80 29 151q39 94 109 94q55 0 97 -36q46 -38 46 -98q0 -57 -1.5 -172.5t-1.5 -173.5q0 -48 -5 -145t-5 -145q0 -155 36 -288q42 -159 123 -222
q42 -33 200 -35q264 -4 356 450q48 235 48 660q0 56 33 108q45 69 128 69q68 0 102 -50q26 -37 26 -82q0 -395 -37 -616q-56 -341 -221 -566zM1272 1843l-156 -124q-111 -86 -160 -86q-48 0 -81.5 30t-33.5 69q0 34 38 69l69 53q197 165 262 165q48 0 81 -30.5t33 -68.5
q0 -42 -52 -77zM847 1886q-39 -41 -125 -108q-90 -71 -127 -108t-88 -37q-46 0 -81.5 28.5t-35.5 68.5q0 41 119 146l165 136q37 33 85 33q46 0 81.5 -28.5t35.5 -68.5q0 -32 -29 -62z" />
    <glyph glyph-name="udblacute" unicode="&#x171;" horiz-adv-x="1065" 
d="M978 578q0 -67 1 -202t1 -202q0 -21 3.5 -62.5t3.5 -62.5q0 -56 -40.5 -92.5t-99.5 -36.5q-83 0 -121 75q-128 -47 -265 -47q-142 0 -239 60q-109 69 -130 201q-39 250 -39 447q0 130 30 297q20 113 135 113q58 0 99 -36.5t41 -92.5q0 -44 -14.5 -138t-14.5 -143
q0 -141 9.5 -246.5t28.5 -174.5q25 -11 48.5 -17t45.5 -6q111 0 244 32q0 77 -1 175q-2 117 -2 168q0 205 19 354q15 119 136 119q59 0 101 -37t39 -93q-19 -381 -19 -352zM1062 1393l-156 -124q-111 -86 -160 -86q-48 0 -81.5 30t-33.5 69q0 34 38 69l69 53
q197 165 262 165q48 0 81 -30.5t33 -68.5q0 -42 -52 -77zM637 1436q-39 -41 -125 -108q-90 -71 -127 -108t-88 -37q-46 0 -81.5 28.5t-35.5 68.5q0 41 119 146l165 136q37 33 85 33q46 0 81.5 -28.5t35.5 -68.5q0 -32 -29 -62z" />
    <glyph glyph-name="Zacute" unicode="&#x179;" horiz-adv-x="1420" 
d="M1274 1195l-135 -87q-169 -125 -400 -430l-354 -477l-4 -5q73 2 352 14q219 10 349 10q143 0 194 -11q120 -26 124 -115q3 -66 -46 -104q-42 -33 -101 -33q-29 0 -87 3.5t-87 3.5q-152 0 -456.5 -7.5t-456.5 -7.5q-65 0 -107 33q-47 36 -47 101q0 72 63 171
q20 31 113 151l329 437q196 252 367 408q-156 -11 -238 -11h-404q-11 0 -32 -1.5t-32 -1.5q-59 0 -100 34q-46 38 -46 102q0 137 203 137q69 0 206 -8.5t206 -8.5q77 0 230.5 4t230.5 4q298 0 298 -130q0 -83 -132 -175zM880 1791q-82 -90 -130 -125q-39 -29 -86 -29
q-53 0 -92 34t-39 79q0 37 42 81l73 68q107 117 126 134q91 82 161 82q53 0 91.5 -35t38.5 -79q0 -51 -53.5 -87.5t-131.5 -122.5z" />
    <glyph glyph-name="zacute" unicode="&#x17a;" horiz-adv-x="1102" 
d="M757 505q-167 -226 -208 -278q61 2 101 2t116.5 -14.5t115.5 -14.5q60 0 99.5 -37.5t39.5 -94.5t-39 -94t-100 -37q-40 0 -116.5 14t-115.5 14q-224 0 -419 -37q-26 -5 -44 -5q-55 0 -94 30q-44 33 -44 87q0 64 63 117q249 211 521 617q-62 -3 -119 -3q-153 0 -310 22
q-123 17 -123 130q0 55 38 94t97 39q49 0 148.5 -10.5t149.5 -10.5q68 0 204 8.5t204 8.5q125 0 125 -102q0 -90 -85 -186t-205 -259zM740 1341q-82 -90 -130 -125q-39 -29 -86 -29q-53 0 -92 34t-39 79q0 37 42 81l73 68q107 117 126 134q91 82 161 82q53 0 91.5 -35
t38.5 -79q0 -51 -53.5 -87.5t-131.5 -122.5z" />
    <glyph glyph-name="Zdot" unicode="&#x17b;" horiz-adv-x="1420" 
d="M1274 1195l-135 -87q-169 -125 -400 -430l-354 -477l-4 -5q73 2 352 14q219 10 349 10q143 0 194 -11q120 -26 124 -115q3 -66 -46 -104q-42 -33 -101 -33q-29 0 -87 3.5t-87 3.5q-152 0 -456.5 -7.5t-456.5 -7.5q-65 0 -107 33q-47 36 -47 101q0 72 63 171
q20 31 113 151l329 437q196 252 367 408q-156 -11 -238 -11h-404q-11 0 -32 -1.5t-32 -1.5q-59 0 -100 34q-46 38 -46 102q0 137 203 137q69 0 206 -8.5t206 -8.5q77 0 230.5 4t230.5 4q298 0 298 -130q0 -83 -132 -175zM762 1593q-46 0 -108 49q-68 55 -68 114q0 65 56 105
q46 33 94 33q44 0 106 -49q68 -55 68 -113q0 -64 -54 -105q-45 -34 -94 -34z" />
    <glyph glyph-name="zdot" unicode="&#x17c;" horiz-adv-x="1102" 
d="M757 505q-167 -226 -208 -278q61 2 101 2t116.5 -14.5t115.5 -14.5q60 0 99.5 -37.5t39.5 -94.5t-39 -94t-100 -37q-40 0 -116.5 14t-115.5 14q-224 0 -419 -37q-26 -5 -44 -5q-55 0 -94 30q-44 33 -44 87q0 64 63 117q249 211 521 617q-62 -3 -119 -3q-153 0 -310 22
q-123 17 -123 130q0 55 38 94t97 39q49 0 148.5 -10.5t149.5 -10.5q68 0 204 8.5t204 8.5q125 0 125 -102q0 -90 -85 -186t-205 -259zM642 1143q-46 0 -108 49q-68 55 -68 114q0 65 56 105q46 33 94 33q44 0 106 -49q68 -55 68 -113q0 -64 -54 -105q-45 -34 -94 -34z" />
    <glyph glyph-name="Gamma" unicode="&#x393;" horiz-adv-x="1128" 
d="M1129 1366q0 125 -226 163q-96 16 -323 16q-45 0 -136.5 -1.5t-137.5 -1.5q-245 0 -245 -215q0 10 20 -317q26 -425 26 -966q0 -58 40.5 -97.5t98.5 -39.5t99 39.5t41 97.5q0 551 -27 982q-9 82 -19 245h35q44 -1 127 2q88 3 127 3q174 0 319 -41q25 -7 44 -7
q57 0 97 40.5t40 97.5z" />
    <glyph glyph-name="Theta" unicode="&#x398;" horiz-adv-x="1635" 
d="M1572 874q0 -340 -196 -616q-226 -319 -590 -319q-296 0 -504 170q-222 182 -222 471q0 340 213 620q239 315 602 315q697 0 697 -641zM1288 874q0 210 -94 292q-90 78 -319 78q-223 0 -382 -216q-149 -202 -149 -448q0 -166 129 -270q124 -100 313 -100q220 0 367 216
q135 197 135 448zM1168 725q0 -49 -47 -77q-40 -24 -92 -24q-43 0 -129 4t-129 4q-25 0 -76.5 -4t-76.5 -4q-53 0 -93 25q-46 29 -46 78q0 113 218 113q56 0 166.5 -6.5t165.5 -6.5q52 0 92 -24q47 -29 47 -78z" />
    <glyph glyph-name="Phi" unicode="&#x3a6;" horiz-adv-x="1260" 
d="M501 960q-252 0 -252 -230q0 -61 70 -105q67 -42 153 -42l24 -1v119q0 130 5 259zM762 992q-8 -2 -18 -3q-2 -105 -3 -268v-135q249 20 249 204q0 202 -228 202zM753 1191q190 0 309 -102q127 -108 127 -299q0 -368 -448 -400l-1 -151q154 3 291 3q52 0 85.5 -34.5
t33.5 -84.5q0 -49 -33.5 -83.5t-85.5 -34.5q-56 0 -168 -2.5t-168 -2.5q-66 0 -197.5 -18t-198.5 -18q-51 0 -85 34.5t-34 83.5q0 50 34 84.5t85 34.5q70 0 200 18q-1 69 -2 165h-25q-168 0 -284 79q-138 93 -138 267q0 215 136 317q99 74 325 114q3 47 7 94
q-241 -7 -239 -7q-51 0 -86 34.5t-35 85.5q0 107 113 118q88 8 304 8q195 0 503 -43q105 -15 105 -121q0 -56 -41 -88q-36 -28 -82 -28q-50 0 -303 32z" />
    <glyph glyph-name="alpha" unicode="&#x3b1;" horiz-adv-x="1138" 
d="M747 264q-30 237 -30 356q0 64 18 166q-35 19 -62 19q-137 0 -238.5 -107.5t-101.5 -245.5q0 -269 192 -269q124 0 222 81zM841 985q57 64 135 64q115 0 115 -80q0 -19 -35 -93q-46 -93 -48 -100q-22 -57 -22 -153q0 -278 28 -364q5 -15 47 -106q38 -81 38 -96
q0 -52 -40.5 -87.5t-93.5 -35.5q-45 0 -146 100q-184 -89 -281 -89q-482 0 -482 515q0 243 181 415q179 169 423 169q30 0 92 -19.5t89 -39.5z" />
    <glyph glyph-name="delta" unicode="&#x3b4;" horiz-adv-x="1077" 
d="M743 450q13 322 -169 323q-123 1 -194 -112q-60 -95 -60 -222q0 -120 68 -184q54 -51 126 -51q87 0 151 59q73 68 78 187zM501 1278q210 -165 216 -170q133 -117 203 -239q91 -159 91 -349q0 -236 -128 -400q-139 -179 -369 -179q-210 0 -344 155q-127 147 -127 362
q0 197 105 352q111 164 296 210q-118 182 -284 259q-99 45 -99 123q0 56 46 89q41 29 98 29q47 0 141.5 -4t141.5 -4q76 0 199 8q158 10 199 12l12 1q53 2 87.5 -35t34.5 -92q0 -87 -149 -107q-130 -17 -370 -21z" />
    <glyph glyph-name="epsilon" unicode="&#x3b5;" horiz-adv-x="1007" 
d="M550 -52q-185 0 -296 66q-138 82 -138 255q0 179 130 286q-96 94 -96 189q0 139 124 228q111 80 255 80q130 0 240 -46q143 -61 143 -172q0 -49 -39 -79t-89 -30q-37 0 -112 43t-143 43q-120 0 -120 -67q0 -57 123.5 -120t123.5 -112q0 -77 -71 -77q-208 0 -208 -125
q0 -121 173 -121q55 0 144 51.5t128 51.5q50 0 89 -37.5t39 -87.5q0 -95 -157 -163q-130 -56 -243 -56z" />
    <glyph glyph-name="sigma" unicode="&#x3c3;" horiz-adv-x="1146" 
d="M743 450q13 322 -169 323q-123 1 -194 -112q-60 -95 -60 -222q0 -120 68 -184q54 -51 126 -51q87 0 151 59q73 68 78 187zM678 1027q250 -26 287 -26q16 0 44 8q35 11 44 12q19 3 36 3q109 0 109 -99q0 -65 -56 -115q-65 -57 -171 -59q40 -107 40 -231q0 -232 -124 -396
q-139 -183 -373 -183q-185 0 -318 127q-146 139 -153 371q-7 221 121 394q152 204 423 204q47 0 91 -10z" />
    <glyph glyph-name="tau" unicode="&#x3c4;" horiz-adv-x="965" 
d="M846 818q-14 -3 -137 -3q-33 0 -95 -9q21 -449 21 -646q0 -224 -146 -224q-54 0 -95 33q-44 35 -44 89q0 35 3 106.5t3 106.5q0 149 -18 530l-198 6q-115 20 -115 117q0 54 37.5 93.5t98.5 39.5q35 0 105 -8t105 -8q178 0 195 1.5t91 8.5q56 6 94 6q195 0 195 -134
q0 -84 -100 -105z" />
    <glyph glyph-name="phi" unicode="&#x3c6;" horiz-adv-x="1310" 
d="M797 -57q-2 -168 -18 -249q-21 -104 -126 -104q-54 0 -93 33t-39 85q0 10 1 22q15 105 17 219q-216 34 -344 151q-144 130 -144 338q0 95 29 218q31 134 76 207q55 91 151 91q103 0 103 -109q0 -51 -34 -134q-57 -135 -57 -337q0 -70 74 -140q66 -63 140 -83
q-11 237 -11 451q0 429 307 429q228 0 343 -222q90 -175 90 -426q0 -184 -144 -306q-129 -109 -321 -134zM829 808q-52 0 -52 -204q0 -28 3.5 -85t3.5 -86q0 -123 7 -294q81 16 147 89.5t66 154.5q0 425 -175 425z" />
    <glyph glyph-name="underscoredbl" unicode="&#x2017;" horiz-adv-x="1284" 
d="M1323 -315h-350q-71 0 -213 5t-213 5h-445q-23 0 -69 -5t-68 -5v185q100 0 300 1.5t300 1.5q71 0 211.5 -5.5t211.5 -5.5q119 0 335 8v-185zM1323 -595h-350q-71 0 -213 5t-213 5h-445q-23 0 -69 -5t-68 -5v185q100 0 300 1.5t300 1.5q71 0 211.5 -5.5t211.5 -5.5
q119 0 335 8v-185z" />
    <glyph glyph-name="exclamdbl" unicode="&#x203c;" horiz-adv-x="921" 
d="M242 297q-56 0 -92.5 35t-36.5 88q0 39 -2.5 116.5t-2.5 116.5q0 138 2.5 414t2.5 414q0 53 37 88.5t92 35.5t92 -35.5t37 -88.5v-1061q0 -53 -36.5 -88t-92.5 -35zM239 -66q-60 0 -112 64q-47 59 -47 110q0 52 41 87t93 35q60 0 111 -64q47 -59 47 -109q0 -51 -40.5 -87
t-92.5 -36zM682 297q-56 0 -92.5 35t-36.5 88q0 39 -2.5 116.5t-2.5 116.5q0 138 2.5 414t2.5 414q0 53 37 88.5t92 35.5t92 -35.5t37 -88.5v-1061q0 -53 -36.5 -88t-92.5 -35zM679 -66q-60 0 -112 64q-47 59 -47 110q0 52 41 87t93 35q60 0 111 -64q47 -59 47 -109
q0 -51 -40.5 -87t-92.5 -36z" />
    <glyph glyph-name="nsuperior" unicode="&#x207f;" horiz-adv-x="1079" 
d="M785 801q-107 0 -120 102q-24 195 -24 348q0 14 2 47.5t2 47.5q0 9 -26 26q-29 20 -53 20q-57 0 -90 -34.5t-65 -133.5q-8 -139 -8 -209q0 -15 3.5 -44.5t3.5 -44.5q0 -49 -35.5 -81t-88.5 -32t-88.5 32t-35.5 81q0 15 -3.5 44.5t-3.5 44.5q0 52 8 189t8 189
q0 16 -2 47.5t-2 47.5q0 49 37 80t88 31q57 0 106 -95q27 34 76.5 59t91.5 25q188 0 260 -100q60 -83 60 -270q0 -42 12 -153t12 -152q0 -49 -37 -80.5t-88 -31.5z" />
    <glyph glyph-name="peseta" unicode="&#x20a7;" horiz-adv-x="2598" 
d="M782 1098q0 85 -103 151q-99 64 -216 64q-64 0 -98 -3q0 -47 -1 -141q-2 -111 -19 -346q51 -8 68 -8q156 0 259 74q110 79 110 209zM2518 272q0 -172 -160 -261q-129 -71 -317 -71q-133 0 -243 41q-150 56 -150 165q0 100 119 100q46 0 133 -29t134 -29q203 0 204 82
q0 51 -141 113q-205 91 -263 131q-142 99 -142 241q0 28 4 53q-16 -3 -32 -3q-21 0 -50 1.5t-49 1.5q-41 0 -95 -8q18 -404 18 -528q0 -13 1 -48.5t1 -57.5q0 -230 -145 -230q-55 0 -97 35t-42 89q0 36 3 108t3 108q0 121 -18 518q-62 3 -189 15q-22 3 -41 10
q-84 -126 -240 -196q-145 -65 -311 -65q-17 0 -84 7q-6 -140 -6 -460q0 -53 -37 -91t-94 -38t-94.5 38t-37.5 91v279q0 156 19 459q20 309 21 461q1 260 146 249q68 18 240 18q196 0 368 -127q191 -142 191 -346q0 -12 -1 -24q23 -1 143 -12q-1 32 -6 106q-3 64 -3 99
q0 56 40.5 93t99.5 37q148 0 148 -249q0 -4 -2 -82q61 9 101 9q104 0 144 -11q76 -21 89 -90q130 93 487 93q100 0 148 -26q66 -35 66 -129q0 -180 -97 -180q-98 0 -119 83q-40 7 -82 7q-241 0 -241 -66q0 -39 145 -105q199 -91 269 -142q144 -105 144 -237z" />
    <glyph glyph-name="IJ" unicode="&#x132;" horiz-adv-x="2407" 
d="M957 1182q-52 0 -285 28q-14 -184 -14 -489l-1 -449q133 3 271 3q60 0 99.5 -40t39.5 -96t-39.5 -95.5t-99.5 -39.5q-56 0 -168 -2.5t-168 -2.5q-66 0 -198 -17.5t-198 -17.5q-60 0 -99.5 39.5t-39.5 95.5t39.5 96t99.5 40q68 0 179 15q-2 118 -2 452q0 272 20 519
l-217 -6q-60 0 -100.5 39t-40.5 97q0 59 40 96q37 34 91 39q88 8 306 8q196 0 505 -42q123 -17 123 -138q0 -64 -50 -101q-41 -31 -93 -31zM2211 1228q-18 0 -57 3.5t-63 3.5h-78q-1 17 -1 -71q0 -716 -101 -1043q-74 -241 -269 -241q-186 0 -368 128q-206 143 -206 336
q0 156 141 156t141 -154q0 -59 101.5 -126.5t190.5 -67.5q36 0 52 133q4 32 22 311q15 228 15 568q0 14 -3 65l-23 -1q-44 -2 -118 1q-89 4 -118 4q-59 0 -100 36q-44 39 -44 101q0 136 179 136q34 0 101 -2.5t100 -2.5q63 0 188.5 7t188.5 7q268 0 268 -149q0 -52 -36 -93
q-41 -45 -103 -45z" />
    <glyph glyph-name="ij" unicode="&#x133;" horiz-adv-x="1146" 
d="M330 1202q-64 0 -111 43t-47 105t47 105t111 43t110.5 -43t46.5 -105t-46.5 -105t-110.5 -43zM415 469q0 -57 3.5 -183t3.5 -183q0 -58 -39 -95.5t-99 -37.5t-99 37.5t-39 95.5q0 57 -3.5 183t-3.5 183q0 89 10 223t10 223q0 58 39 95.5t99 37.5t99 -37.5t39 -95.5
q0 -89 -10 -223t-10 -223zM777 1197q-64 0 -110.5 43t-46.5 106t46.5 106.5t110.5 43.5t111 -43.5t47 -106.5t-47 -106t-111 -43zM729 -187q0 105 -34 554t-34 533q0 60 35 108q41 54 106 54q46 0 92 -31q50 -34 52 -78q12 -191 33 -555q27 -485 27 -595q0 -145 -91 -266
q-101 -134 -251 -134q-242 0 -397 342q-15 33 -15 62q0 55 44 95q43 37 99 37q64 0 113 -69l73 -129q40 -69 83 -69q52 0 65 141z" />
    <glyph glyph-name="napostrophe" unicode="&#x149;" horiz-adv-x="1312" 
d="M1130 -71q-123 0 -137 121l-28 207q-15 110 -15 207q0 26 3.5 89t3.5 89q0 7 2 35.5t2 46.5q0 83 -43 83q-92 0 -180.5 -107.5t-138.5 -272.5q-2 -33 -9 -88q-6 -45 -6 -88q0 -28 6.5 -84.5t6.5 -84.5q0 -57 -39.5 -94.5t-99.5 -37.5t-99 37.5t-39 94.5q0 28 -6 84.5
t-6 84.5q0 96 14 267t14 267q0 30 -3.5 89.5t-3.5 88.5q0 56 40.5 92.5t99.5 36.5q131 0 140 -157l1 -11q146 147 308 147q189 0 261 -158q48 -106 48 -317v-71q-1 -46 -1 -65q0 -78 21.5 -201t21.5 -200q0 -56 -40 -93t-99 -37zM240 1194q-58 0 -95 45q-27 32 -33 72
q-35 218 -35 253q0 54 33.5 88.5t88.5 34.5q111 0 129 -111q35 -213 35 -259q0 -54 -34 -88.5t-89 -34.5z" />
    <glyph glyph-name="minute" unicode="&#x2032;" horiz-adv-x="463" 
d="M200 1094q58 0 95 45q27 32 33 72q35 218 35 253q0 54 -33.5 88.5t-88.5 34.5q-111 0 -129 -111q-35 -213 -35 -259q0 -54 34 -88.5t89 -34.5z" />
    <glyph glyph-name="second" unicode="&#x2033;" horiz-adv-x="868" 
d="M200 1094q58 0 95 45q27 32 33 72q35 218 35 253q0 54 -33.5 88.5t-88.5 34.5q-111 0 -129 -111q-35 -213 -35 -259q0 -54 34 -88.5t89 -34.5zM590 1094q58 0 95 45q27 32 33 72q35 218 35 253q0 54 -33.5 88.5t-88.5 34.5q-111 0 -129 -111q-35 -213 -35 -259
q0 -54 34 -88.5t89 -34.5z" />
    <glyph glyph-name="afii61248" unicode="&#x2105;" horiz-adv-x="1748" 
d="M1311 1416q-36 -56 -78 -150q-59 -132 -69 -153q-69 -133 -198 -403l-225 -451q-31 -74 -101 -218q-39 -71 -110 -71q-49 0 -88 33t-39 83q0 53 151 354l185 362q94 189 269 571q97 230 200 230q50 0 88.5 -35t38.5 -84q0 -32 -24 -68zM1304 -20q-152 0 -254 88
q-106 91 -106 238q0 155 93 259q99 112 265 112q148 0 261 -80q129 -91 129 -238q0 -161 -108 -269q-111 -110 -280 -110zM470 799q-167 0 -278 105.5t-111 267.5q0 389 494 389q55 0 92 -35t37 -88t-37 -88t-92 -35q-117 0 -159 -16q-77 -29 -77 -127q0 -53 35.5 -90
t95.5 -37q25 0 71.5 12t71.5 12q54 0 88 -42q28 -36 28 -82q0 -79 -92 -117q-69 -29 -167 -29zM1302 441q-111 0 -111 -135q0 -90 135 -90q68 0 93.5 31.5t25.5 111.5q0 32 -42.5 57t-100.5 25z" />
    <glyph glyph-name="afii61289" unicode="&#x2113;" horiz-adv-x="1104" 
d="M576 832q93 77 149 196t56 244q0 69 -33 110q-27 33 -57 33q-95 -94 -115 -583zM210 690q56 11 111 30q0 945 370 945q161 0 258 -135q82 -115 82 -258q0 -236 -135 -429q-120 -172 -324 -284v-24q0 -165 10 -226q26 -155 117 -155q48 0 129 40q37 18 70 18q46 0 74 -32
t28 -79q0 -77 -69 -132q-82 -65 -232 -65q-216 0 -307 185q-63 130 -69 371q-67 -18 -93 -18q-55 0 -89 40q-32 37 -32 88q0 100 101 120z" />
    <glyph glyph-name="tonos" unicode="&#x384;" horiz-adv-x="1139" 
d="M637 1199q-40 -50 -99 -50q-50 0 -83 33q-30 29 -30 68q0 14 55 125q53 105 70 130q38 57 110 57q51 0 92 -31t41 -76q0 -59 -156 -256z" />
    <glyph glyph-name="Amacron" unicode="&#x100;" horiz-adv-x="1498" 
d="M1250 -30q-79 3 -159 186q-53 118 -91 272q-74 -11 -242 -22q-158 -11 -242 -26q-46 -110 -160 -331q-44 -72 -122 -72q-55 0 -99 37.5t-44 95.5q0 51 146 346q-14 31 -12 58q4 48 97 75q142 246 316 510q250 379 308 379q110 0 147 -133l63 -321q61 -288 149 -659
q7 -28 51 -132q36 -86 36 -129q0 -58 -43.5 -97t-98.5 -37zM877 996l-215 -365q45 10 140 16q112 7 141 11q-24 130 -66 338zM1259 1600q-29 -4 -70 -4h-210q-48 0 -144.5 2t-144.5 2q-61 0 -105 31q-47 34 -47 86q0 117 215 117q40 0 118.5 -3t118.5 -3t121.5 1.5
t121.5 1.5q60 0 105 -26q53 -32 53 -90q0 -97 -132 -115z" />
    <glyph glyph-name="amacron" unicode="&#x101;" horiz-adv-x="1138" 
d="M965 -66q-46 0 -146 100q-92 -44 -162 -66.5t-119 -22.5q-241 0 -361.5 129t-120.5 386q0 241 178 412.5t426 171.5q95 0 220 -54q151 -65 151 -151q0 -36 -23 -63q-10 -40 -15.5 -100.5t-5.5 -141.5q0 -191 27 -275q3 -9 46 -104q39 -86 39 -98q0 -53 -40.5 -88
t-93.5 -35zM717 620q0 32 4.5 73.5t13.5 92.5q-20 10 -35.5 14.5t-26.5 4.5q-136 0 -238 -106.5t-102 -246.5q0 -134 48 -201.5t144 -67.5q62 0 117.5 20.5t104.5 60.5q-30 238 -30 356zM949 1150q-29 -4 -70 -4h-210q-48 0 -144.5 2t-144.5 2q-61 0 -105 31q-47 34 -47 86
q0 117 215 117q40 0 118.5 -3t118.5 -3t121.5 1.5t121.5 1.5q60 0 105 -26q53 -32 53 -90q0 -97 -132 -115z" />
    <glyph glyph-name="Ccircumflex" unicode="&#x108;" horiz-adv-x="1267" 
d="M1104 1065q-90 0 -133 95q-20 45 -40 54q-15 7 -79 7q-126 0 -291 -196q-231 -274 -231 -513q0 -109 73 -187t175 -78q99 0 201 52q36 19 152 98q78 52 118 52q60 0 102 -44q39 -41 39 -94q0 -59 -52 -103q-275 -232 -560 -232q-225 0 -380 164q-148 158 -148 372
q0 335 293 684q249 296 509 296q44 0 79.5 -3t62.5 -9q44 43 106 43q102 0 126 -117q17 -84 17 -196q0 -50 -29 -91q-38 -54 -110 -54zM1144 1686q-49 0 -91 35l-218 200q-243 -255 -330 -255q-53 0 -92 34.5t-39 80.5q0 45 43 81q53 45 302 290q39 38 91 38q66 0 148 -60
q29 -21 122 -106l160 -148q36 -35 36 -76q0 -46 -39.5 -80t-92.5 -34z" />
    <glyph glyph-name="ccircumflex" unicode="&#x109;" horiz-adv-x="1052" 
d="M562 -63q-220 0 -369 125q-157 132 -157 348q0 199 141 411q160 242 372 242q104 0 243 -56q169 -69 169 -159q0 -49 -34 -87q-36 -41 -93 -41q-43 0 -103.5 46.5t-181.5 46.5q-77 0 -167 -151q-86 -146 -86 -252q0 -105 76 -165q72 -57 190 -57q67 0 164 51t123 51
q54 0 92.5 -39t38.5 -89q0 -78 -170 -156q-152 -69 -248 -69zM924 1186q-49 0 -91 35l-218 200q-243 -255 -330 -255q-53 0 -92 34.5t-39 80.5q0 45 43 81q53 45 302 290q39 38 91 38q66 0 148 -60q29 -21 122 -106l160 -148q36 -35 36 -76q0 -46 -39.5 -80t-92.5 -34z" />
    <glyph glyph-name="Cdot" unicode="&#x10a;" horiz-adv-x="1267" 
d="M1104 1065q-90 0 -133 95q-20 45 -40 54q-15 7 -79 7q-126 0 -291 -196q-231 -274 -231 -513q0 -109 73 -187t175 -78q99 0 201 52q36 19 152 98q78 52 118 52q60 0 102 -44q39 -41 39 -94q0 -59 -52 -103q-275 -232 -560 -232q-225 0 -380 164q-148 158 -148 372
q0 335 293 684q249 296 509 296q44 0 79.5 -3t62.5 -9q44 43 106 43q102 0 126 -117q17 -84 17 -196q0 -50 -29 -91q-38 -54 -110 -54zM922 1593q-46 0 -108 49q-68 55 -68 114q0 65 56 105q46 33 94 33q44 0 106 -49q68 -55 68 -113q0 -64 -54 -105q-45 -34 -94 -34z" />
    <glyph glyph-name="cdot" unicode="&#x10b;" horiz-adv-x="1052" 
d="M562 -63q-220 0 -369 125q-157 132 -157 348q0 199 141 411q160 242 372 242q104 0 243 -56q169 -69 169 -159q0 -49 -34 -87q-36 -41 -93 -41q-43 0 -103.5 46.5t-181.5 46.5q-77 0 -167 -151q-86 -146 -86 -252q0 -105 76 -165q72 -57 190 -57q67 0 164 51t123 51
q54 0 92.5 -39t38.5 -89q0 -78 -170 -156q-152 -69 -248 -69zM622 1143q-46 0 -108 49q-68 55 -68 114q0 65 56 105q46 33 94 33q44 0 106 -49q68 -55 68 -113q0 -64 -54 -105q-45 -34 -94 -34z" />
    <glyph glyph-name="Emacron" unicode="&#x112;" horiz-adv-x="1279" 
d="M1109 1282q-20 0 -42 6q-162 44 -315 44q-75 0 -161 -12t-183 -36q0 -133 -9 -395q56 4 391 37q191 19 242 19q59 0 101 -37.5t42 -99.5q0 -119 -127 -135q-80 -6 -239 -20q-142 -16 -428 -39q-7 -127 -7 -205q0 -196 23 -223q11 -13 126 -13q62 0 187 3t187 3q20 0 59 6
t58 6q58 0 99 -33q47 -37 47 -104q0 -112 -117 -134q-100 -19 -415 -19q-326 0 -425 88q-109 97 -109 420q0 134 19.5 402.5t19.5 401.5q0 35 -10 103.5t-10 103.5q0 152 140 152q44 0 81 -25q116 29 220.5 43.5t197.5 14.5q252 0 403 -58q92 -35 92 -127q0 -52 -36 -92
q-40 -46 -102 -46zM999 1680q-29 -4 -70 -4h-210q-48 0 -144.5 2t-144.5 2q-61 0 -105 31q-47 34 -47 86q0 117 215 117q40 0 118.5 -3t118.5 -3t121.5 1.5t121.5 1.5q60 0 105 -26q53 -32 53 -90q0 -97 -132 -115z" />
    <glyph glyph-name="emacron" unicode="&#x113;" horiz-adv-x="1145" 
d="M606 -46q-239 0 -391 114q-168 126 -168 355q0 253 133 428q148 194 399 194q174 0 289 -56q151 -74 151 -230q0 -110 -123 -195q-56 -39 -225 -114l-337 -149q48 -52 116 -78t156 -26q134 0 227 55q83 49 133 49q104 0 104 -101q0 -114 -167 -186q-140 -60 -297 -60z
M579 803q-93 0 -159 -62t-106 -186l225 97q135 61 215 113q-67 38 -175 38zM919 1150q-29 -4 -70 -4h-210q-48 0 -144.5 2t-144.5 2q-61 0 -105 31q-47 34 -47 86q0 117 215 117q40 0 118.5 -3t118.5 -3t121.5 1.5t121.5 1.5q60 0 105 -26q53 -32 53 -90q0 -97 -132 -115z
" />
    <glyph glyph-name="Ebreve" unicode="&#x114;" horiz-adv-x="1279" 
d="M1109 1282q-20 0 -42 6q-162 44 -315 44q-75 0 -161 -12t-183 -36q0 -133 -9 -395q56 4 391 37q191 19 242 19q59 0 101 -37.5t42 -99.5q0 -119 -127 -135q-80 -6 -239 -20q-142 -16 -428 -39q-7 -127 -7 -205q0 -196 23 -223q11 -13 126 -13q62 0 187 3t187 3q20 0 59 6
t58 6q58 0 99 -33q47 -37 47 -104q0 -112 -117 -134q-100 -19 -415 -19q-326 0 -425 88q-109 97 -109 420q0 134 19.5 402.5t19.5 401.5q0 35 -10 103.5t-10 103.5q0 152 140 152q44 0 81 -25q116 29 220.5 43.5t197.5 14.5q252 0 403 -58q92 -35 92 -127q0 -52 -36 -92
q-40 -46 -102 -46zM1235 1949q-14 -148 -200 -218q-136 -52 -323 -52q-157 0 -275 89q-124 92 -124 225q0 41 32.5 68.5t81.5 27.5t82 -27.5t33 -68.5q0 -49 52 -85q52 -37 118 -37q262 0 297 109q25 78 111 78q56 0 88 -31t27 -78z" />
    <glyph glyph-name="ebreve" unicode="&#x115;" horiz-adv-x="1145" 
d="M606 -46q-239 0 -391 114q-168 126 -168 355q0 253 133 428q148 194 399 194q174 0 289 -56q151 -74 151 -230q0 -110 -123 -195q-56 -39 -225 -114l-337 -149q48 -52 116 -78t156 -26q134 0 227 55q83 49 133 49q104 0 104 -101q0 -114 -167 -186q-140 -60 -297 -60z
M579 803q-93 0 -159 -62t-106 -186l225 97q135 61 215 113q-67 38 -175 38zM1095 1449q-14 -148 -200 -218q-136 -52 -323 -52q-157 0 -275 89q-124 92 -124 225q0 41 32.5 68.5t81.5 27.5t82 -27.5t33 -68.5q0 -49 52 -85q52 -37 118 -37q262 0 297 109q25 78 111 78
q56 0 88 -31t27 -78z" />
    <glyph glyph-name="Edot" unicode="&#x116;" horiz-adv-x="1279" 
d="M1109 1282q-20 0 -42 6q-162 44 -315 44q-75 0 -161 -12t-183 -36q0 -133 -9 -395q56 4 391 37q191 19 242 19q59 0 101 -37.5t42 -99.5q0 -119 -127 -135q-80 -6 -239 -20q-142 -16 -428 -39q-7 -127 -7 -205q0 -196 23 -223q11 -13 126 -13q62 0 187 3t187 3q20 0 59 6
t58 6q58 0 99 -33q47 -37 47 -104q0 -112 -117 -134q-100 -19 -415 -19q-326 0 -425 88q-109 97 -109 420q0 134 19.5 402.5t19.5 401.5q0 35 -10 103.5t-10 103.5q0 152 140 152q44 0 81 -25q116 29 220.5 43.5t197.5 14.5q252 0 403 -58q92 -35 92 -127q0 -52 -36 -92
q-40 -46 -102 -46zM802 1673q-46 0 -108 49q-68 55 -68 114q0 65 56 105q46 33 94 33q44 0 106 -49q68 -55 68 -113q0 -64 -54 -105q-45 -34 -94 -34z" />
    <glyph glyph-name="edot" unicode="&#x117;" horiz-adv-x="1145" 
d="M606 -46q-239 0 -391 114q-168 126 -168 355q0 253 133 428q148 194 399 194q174 0 289 -56q151 -74 151 -230q0 -110 -123 -195q-56 -39 -225 -114l-337 -149q48 -52 116 -78t156 -26q134 0 227 55q83 49 133 49q104 0 104 -101q0 -114 -167 -186q-140 -60 -297 -60z
M579 803q-93 0 -159 -62t-106 -186l225 97q135 61 215 113q-67 38 -175 38zM602 1143q-46 0 -108 49q-68 55 -68 114q0 65 56 105q46 33 94 33q44 0 106 -49q68 -55 68 -113q0 -64 -54 -105q-45 -34 -94 -34z" />
    <glyph glyph-name="Gcircumflex" unicode="&#x11c;" horiz-adv-x="1392" 
d="M1335 588q-68 -298 -274 -477q-209 -180 -490 -180q-266 0 -399 140.5t-133 421.5q0 256 126 525t324 436q139 117 298 117q97 0 264 -70q198 -83 198 -177q0 -54 -41 -96.5t-101 -42.5q-30 0 -132.5 56.5t-187.5 56.5q-90 0 -243 -194q-223 -282 -223 -611
q0 -167 49 -227q52 -63 201 -63q153 0 269 87q123 92 182 268q-232 -18 -404 -95q-31 -14 -62 -14q-62 0 -103 46q-37 41 -37 93q0 153 362 214q204 34 476 34q60 0 100.5 -39t40.5 -96q0 -73 -60 -113zM1154 1636q-49 0 -91 35l-218 200q-243 -255 -330 -255
q-53 0 -92 34.5t-39 80.5q0 45 43 81q53 45 302 290q39 38 91 38q66 0 148 -60q29 -21 122 -106l160 -148q36 -35 36 -76q0 -46 -39.5 -80t-92.5 -34z" />
    <glyph glyph-name="gcircumflex" unicode="&#x11d;" horiz-adv-x="1087" 
d="M1029 596q-42 -235 -50 -496q-10 -323 -108 -469q-131 -195 -464 -195q-389 0 -389 154q0 55 35 89t92 34q45 0 129 -17t149 -17q149 0 220 91q68 89 80 283q-51 -52 -115 -78t-140 -26q-199 0 -323.5 129.5t-124.5 331.5q0 272 166 440q172 174 465 174q94 0 162 -23
t110 -70q127 -15 127 -150q0 -67 -21 -185zM641 796q-169 0 -263 -111q-84 -101 -84 -262q0 -119 45 -179t135 -60q82 0 165 95q78 90 89 178q19 96 44 299q-34 20 -67 30t-64 10zM944 1186q-49 0 -91 35l-218 200q-243 -255 -330 -255q-53 0 -92 34.5t-39 80.5q0 45 43 81
q53 45 302 290q39 38 91 38q66 0 148 -60q29 -21 122 -106l160 -148q36 -35 36 -76q0 -46 -39.5 -80t-92.5 -34z" />
    <glyph glyph-name="Gdot" unicode="&#x120;" horiz-adv-x="1392" 
d="M1335 588q-68 -298 -274 -477q-209 -180 -490 -180q-266 0 -399 140.5t-133 421.5q0 256 126 525t324 436q139 117 298 117q97 0 264 -70q198 -83 198 -177q0 -54 -41 -96.5t-101 -42.5q-30 0 -132.5 56.5t-187.5 56.5q-90 0 -243 -194q-223 -282 -223 -611
q0 -167 49 -227q52 -63 201 -63q153 0 269 87q123 92 182 268q-232 -18 -404 -95q-31 -14 -62 -14q-62 0 -103 46q-37 41 -37 93q0 153 362 214q204 34 476 34q60 0 100.5 -39t40.5 -96q0 -73 -60 -113zM862 1593q-46 0 -108 49q-68 55 -68 114q0 65 56 105q46 33 94 33
q44 0 106 -49q68 -55 68 -113q0 -64 -54 -105q-45 -34 -94 -34z" />
    <glyph glyph-name="gdot" unicode="&#x121;" horiz-adv-x="1087" 
d="M1029 596q-42 -235 -50 -496q-10 -323 -108 -469q-131 -195 -464 -195q-389 0 -389 154q0 55 35 89t92 34q45 0 129 -17t149 -17q149 0 220 91q68 89 80 283q-51 -52 -115 -78t-140 -26q-199 0 -323.5 129.5t-124.5 331.5q0 272 166 440q172 174 465 174q94 0 162 -23
t110 -70q127 -15 127 -150q0 -67 -21 -185zM641 796q-169 0 -263 -111q-84 -101 -84 -262q0 -119 45 -179t135 -60q82 0 165 95q78 90 89 178q19 96 44 299q-34 20 -67 30t-64 10zM702 1143q-46 0 -108 49q-68 55 -68 114q0 65 56 105q46 33 94 33q44 0 106 -49
q68 -55 68 -113q0 -64 -54 -105q-45 -34 -94 -34z" />
    <glyph glyph-name="Gcedilla" unicode="&#x122;" horiz-adv-x="1392" 
d="M1335 588q-68 -298 -274 -477q-209 -180 -490 -180q-266 0 -399 140.5t-133 421.5q0 256 126 525t324 436q139 117 298 117q97 0 264 -70q198 -83 198 -177q0 -54 -41 -96.5t-101 -42.5q-30 0 -132.5 56.5t-187.5 56.5q-90 0 -243 -194q-223 -282 -223 -611
q0 -167 49 -227q52 -63 201 -63q153 0 269 87q123 92 182 268q-232 -18 -404 -95q-31 -14 -62 -14q-62 0 -103 46q-37 41 -37 93q0 153 362 214q204 34 476 34q60 0 100.5 -39t40.5 -96q0 -73 -60 -113zM623 -445q-96 0 -187 40q-110 48 -110 124q0 82 108 82q39 0 90 -21.5
t87 -21.5q29 1 43.5 12t14.5 33q0 26 -16 46q-17 20 -51 33l-126 42q-67 30 -67 89q0 41 31.5 71.5t80.5 30.5q135 0 256 -91q128 -96 128 -216q0 -118 -73.5 -185.5t-208.5 -67.5z" />
    <glyph glyph-name="gcedilla" unicode="&#x123;" horiz-adv-x="1087" 
d="M1029 596q-42 -235 -50 -496q-10 -323 -108 -469q-131 -195 -464 -195q-389 0 -389 154q0 55 35 89t92 34q45 0 129 -17t149 -17q149 0 220 91q68 89 80 283q-51 -52 -115 -78t-140 -26q-199 0 -323.5 129.5t-124.5 331.5q0 272 166 440q172 174 465 174q94 0 162 -23
t110 -70q127 -15 127 -150q0 -67 -21 -185zM641 796q-169 0 -263 -111q-84 -101 -84 -262q0 -119 45 -179t135 -60q82 0 165 95q78 90 89 178q19 96 44 299q-34 20 -67 30t-64 10zM585 1193q-142 0 -142 166q0 96 51 204q62 130 148 130q35 0 58 -23t23 -57q0 -29 -23 -64
l-41 -56q-14 -20 -21 -42q85 -51 85 -130q0 -56 -40 -92t-98 -36z" />
    <glyph glyph-name="Hcircumflex" unicode="&#x124;" horiz-adv-x="1573" 
d="M1501 1387q-20 -73 -20 -127q0 -28 -5.5 -86.5t-5.5 -86.5q0 -95 -10 -282t-10 -282q0 -73 11 -218t11 -218q0 -55 -39 -93t-97 -38q-59 0 -102 37.5t-43 91.5q0 73 -6.5 219t-6.5 219q0 57 2 101q-157 -7 -388 -49l-384 -71q-2 -68 -14 -227q-10 -140 -10 -229
q0 -55 -39 -93t-97 -38t-97 38t-39 93q0 101 17.5 302t17.5 302q0 128 6 385.5t6 385.5q0 55 39 93t97 38t97 -38t39 -93q0 -76 -5.5 -228.5t-5.5 -228.5q0 -25 -7 -96q-6 -66 -5 -101l384 72q225 40 388 46q4 67 13 360q2 77 47 177q56 123 127 123q53 0 94 -35
q44 -38 44 -95q0 -15 -4 -30zM1154 1636q-49 0 -91 35l-218 200q-243 -255 -330 -255q-53 0 -92 34.5t-39 80.5q0 45 43 81q53 45 302 290q39 38 91 38q66 0 148 -60q29 -21 122 -106l160 -148q36 -35 36 -76q0 -46 -39.5 -80t-92.5 -34z" />
    <glyph glyph-name="hcircumflex" unicode="&#x125;" horiz-adv-x="1183" 
d="M399 915q73 72 156.5 107.5t178.5 35.5q171 0 246 -96q56 -72 68 -221q5 -123 11 -247q16 -161 20 -196q14 -111 34 -194q5 -21 5 -37q0 -56 -42.5 -92.5t-99.5 -36.5q-101 0 -131 100q-24 81 -44 228q-18 141 -18 232q0 25 2.5 75.5t2.5 75.5q0 74 -2 86q-9 55 -52 55
q-111 0 -201 -102q-46 -51 -126 -194q0 -362 -35 -436q-39 -82 -124 -82q-56 0 -99.5 37.5t-43.5 92.5q0 19 11 53q7 22 12 270q-5 201 2 669l2 33q6 118 6 158q0 31 -9.5 91.5t-9.5 91.5q0 57 41 93.5t99 36.5q99 0 133 -106q19 -60 19 -184q0 -100 -6 -203q-6 -98 -6 -194
zM1154 1636q-49 0 -91 35l-218 200q-243 -255 -330 -255q-53 0 -92 34.5t-39 80.5q0 45 43 81q53 45 302 290q39 38 91 38q66 0 148 -60q29 -21 122 -106l160 -148q36 -35 36 -76q0 -46 -39.5 -80t-92.5 -34z" />
    <glyph glyph-name="Hbar" unicode="&#x126;" horiz-adv-x="1790" 
d="M1775 1259q0 -90 -175 -120q-1 -95 -11 -308q-9 -199 -9 -308q0 -73 11 -218t11 -218q0 -56 -40 -93.5t-96 -37.5t-99 36q-46 38 -46 93q0 66 -8 269q-7 168 -3 270q-159 -7 -387 -49l-385 -71q-2 -66 -13 -228q-11 -145 -11 -228q0 -56 -40 -93.5t-96 -37.5t-96 37.5
t-40 93.5q0 101 17.5 302t17.5 302q0 152 7 493q-20 0 -60.5 -3t-60.5 -3q-49 0 -84 28.5t-35 76.5q0 78 91 100q42 11 154 11q1 95 20 136q30 63 116 63t117 -64q20 -44 18 -137q265 -3 301 -3q81 0 238 -10q161 -9 239 -10q57 217 159 217q55 0 96.5 -38t41.5 -92
q0 -17 -12 -58q19 4 37 4q47 0 81 -29t34 -75zM1319 1121q-68 1 -229 10q-147 9 -229 9q-27 0 -309 3q-2 -81 -2 -177q0 -30 -6.5 -91t-5.5 -93v-13l384 71q228 41 388 47q4 57 9 234z" />
    <glyph glyph-name="hbar" unicode="&#x127;" horiz-adv-x="1183" 
d="M124 1413q-5 33 -5 59q0 57 41.5 93.5t98.5 36.5q134 0 149 -198q122 1 362 -10q117 -11 117 -105q0 -48 -36 -76t-85 -28q-61 0 -178 3q-129 4 -179 4q-10 -279 -10 -277q145 143 335 143q168 0 242 -90q57 -69 70 -215q6 -129 13 -259q23 -252 54 -390q5 -22 5 -37
q0 -56 -42.5 -92.5t-99.5 -36.5q-99 0 -131 100q-25 77 -44 227q-18 139 -18 233q0 33 3 98t3 97q0 97 -55 97q-110 0 -200 -100q-47 -53 -127 -196q0 -363 -35 -436q-40 -82 -124 -82q-56 0 -99.5 37.5t-43.5 92.5q0 18 9 54.5t10 52.5q6 71 6 220q1 102 -2 265
q-3 168 -3 190q0 120 11 310q-113 5 -145 14q-85 23 -85 100q0 74 80 94q30 7 138 7z" />
    <glyph glyph-name="Itilde" unicode="&#x128;" horiz-adv-x="1119" 
d="M957 1182q-52 0 -285 28q-14 -184 -14 -489l-1 -449q133 3 271 3q60 0 99.5 -40t39.5 -96t-39.5 -95.5t-99.5 -39.5q-56 0 -168 -2.5t-168 -2.5q-66 0 -198 -17.5t-198 -17.5q-60 0 -99.5 39.5t-39.5 95.5t39.5 96t99.5 40q68 0 179 15q-2 118 -2 452q0 272 20 519
l-217 -6q-60 0 -100.5 39t-40.5 97q0 59 40 96q37 34 91 39q88 8 306 8q196 0 505 -42q123 -17 123 -138q0 -64 -50 -101q-41 -31 -93 -31zM932 1690q-67 -57 -171 -57q-117 0 -188 32q-66 30 -130 107q-36 43 -69 43q-55 0 -97 -72.5t-110 -72.5q-46 0 -80 25
q-37 27 -37 67q0 13 5 28q31 93 114 152q88 62 205 62q100 0 161 -38q36 -22 106 -100q40 -44 89 -44q41 0 63 28l33 57q5 16 19 47q24 43 96 43q49 0 82 -27t33 -67q0 -37 -47 -114q-44 -71 -77 -99z" />
    <glyph glyph-name="itilde" unicode="&#x129;" horiz-adv-x="574" 
d="M415 469q0 -57 3.5 -183t3.5 -183q0 -58 -39 -95.5t-99 -37.5t-99 37.5t-39 95.5q0 57 -3.5 183t-3.5 183q0 89 10 223t10 223q0 58 39 95.5t99 37.5t99 -37.5t39 -95.5q0 -89 -10 -223t-10 -223zM692 1240q-67 -57 -171 -57q-117 0 -188 32q-66 30 -130 107
q-36 43 -69 43q-55 0 -97 -72.5t-110 -72.5q-46 0 -80 25q-37 27 -37 67q0 13 5 28q31 93 114 152q88 62 205 62q100 0 161 -38q36 -22 106 -100q40 -44 89 -44q41 0 63 28l33 57q5 16 19 47q24 43 96 43q49 0 82 -27t33 -67q0 -37 -47 -114q-44 -71 -77 -99z" />
    <glyph glyph-name="Imacron" unicode="&#x12a;" horiz-adv-x="1119" 
d="M957 1182q-52 0 -285 28q-14 -184 -14 -489l-1 -449q133 3 271 3q60 0 99.5 -40t39.5 -96t-39.5 -95.5t-99.5 -39.5q-56 0 -168 -2.5t-168 -2.5q-66 0 -198 -17.5t-198 -17.5q-60 0 -99.5 39.5t-39.5 95.5t39.5 96t99.5 40q68 0 179 15q-2 118 -2 452q0 272 20 519
l-217 -6q-60 0 -100.5 39t-40.5 97q0 59 40 96q37 34 91 39q88 8 306 8q196 0 505 -42q123 -17 123 -138q0 -64 -50 -101q-41 -31 -93 -31zM859 1600q-29 -4 -70 -4h-210q-48 0 -144.5 2t-144.5 2q-61 0 -105 31q-47 34 -47 86q0 117 215 117q40 0 118.5 -3t118.5 -3
t121.5 1.5t121.5 1.5q60 0 105 -26q53 -32 53 -90q0 -97 -132 -115z" />
    <glyph glyph-name="imacron" unicode="&#x12b;" horiz-adv-x="574" 
d="M415 469q0 -57 3.5 -183t3.5 -183q0 -58 -39 -95.5t-99 -37.5t-99 37.5t-39 95.5q0 57 -3.5 183t-3.5 183q0 89 10 223t10 223q0 58 39 95.5t99 37.5t99 -37.5t39 -95.5q0 -89 -10 -223t-10 -223zM599 1150q-29 -4 -70 -4h-210q-48 0 -144.5 2t-144.5 2q-61 0 -105 31
q-47 34 -47 86q0 117 215 117q40 0 118.5 -3t118.5 -3t121.5 1.5t121.5 1.5q60 0 105 -26q53 -32 53 -90q0 -97 -132 -115z" />
    <glyph glyph-name="Ibreve" unicode="&#x12c;" horiz-adv-x="1119" 
d="M957 1182q-52 0 -285 28q-14 -184 -14 -489l-1 -449q133 3 271 3q60 0 99.5 -40t39.5 -96t-39.5 -95.5t-99.5 -39.5q-56 0 -168 -2.5t-168 -2.5q-66 0 -198 -17.5t-198 -17.5q-60 0 -99.5 39.5t-39.5 95.5t39.5 96t99.5 40q68 0 179 15q-2 118 -2 452q0 272 20 519
l-217 -6q-60 0 -100.5 39t-40.5 97q0 59 40 96q37 34 91 39q88 8 306 8q196 0 505 -42q123 -17 123 -138q0 -64 -50 -101q-41 -31 -93 -31zM1015 1899q-14 -148 -200 -218q-136 -52 -323 -52q-157 0 -275 89q-124 92 -124 225q0 41 32.5 68.5t81.5 27.5t82 -27.5t33 -68.5
q0 -49 52 -85q52 -37 118 -37q262 0 297 109q25 78 111 78q56 0 88 -31t27 -78z" />
    <glyph glyph-name="ibreve" unicode="&#x12d;" horiz-adv-x="574" 
d="M415 469q0 -57 3.5 -183t3.5 -183q0 -58 -39 -95.5t-99 -37.5t-99 37.5t-39 95.5q0 57 -3.5 183t-3.5 183q0 89 10 223t10 223q0 58 39 95.5t99 37.5t99 -37.5t39 -95.5q0 -89 -10 -223t-10 -223zM775 1449q-14 -148 -200 -218q-136 -52 -323 -52q-157 0 -275 89
q-124 92 -124 225q0 41 32.5 68.5t81.5 27.5t82 -27.5t33 -68.5q0 -49 52 -85q52 -37 118 -37q262 0 297 109q25 78 111 78q56 0 88 -31t27 -78z" />
    <glyph glyph-name="Iogonek" unicode="&#x12e;" horiz-adv-x="1119" 
d="M957 1182q-52 0 -285 28q-14 -184 -14 -489l-1 -449q133 3 271 3q60 0 99.5 -40t39.5 -96t-39.5 -95.5t-99.5 -39.5q-56 0 -168 -2.5t-168 -2.5q-66 0 -198 -17.5t-198 -17.5q-60 0 -99.5 39.5t-39.5 95.5t39.5 96t99.5 40q68 0 179 15q-2 118 -2 452q0 272 20 519
l-217 -6q-60 0 -100.5 39t-40.5 97q0 59 40 96q37 34 91 39q88 8 306 8q196 0 505 -42q123 -17 123 -138q0 -64 -50 -101q-41 -31 -93 -31zM605 -419q-117 0 -200 87q-77 81 -77 179q0 84 82 164q86 84 185 84q49 0 82 -32q30 -29 30 -69q0 -56 -75 -90.5t-75 -56.5
t18.5 -45t29.5 -23q90 0 155 29q29 13 57 13q48 0 81 -31t33 -71q0 -65 -132 -106q-102 -32 -194 -32z" />
    <glyph glyph-name="iogonek" unicode="&#x12f;" horiz-adv-x="574" 
d="M330 1202q-64 0 -111 43t-47 105t47 105t111 43t110.5 -43t46.5 -105t-46.5 -105t-110.5 -43zM415 469q0 -57 3.5 -183t3.5 -183q0 -58 -39 -95.5t-99 -37.5t-99 37.5t-39 95.5q0 57 -3.5 183t-3.5 183q0 89 10 223t10 223q0 58 39 95.5t99 37.5t99 -37.5t39 -95.5
q0 -89 -10 -223t-10 -223zM295 -344q-117 0 -200 87q-77 81 -77 179q0 84 82 164q86 84 185 84q49 0 82 -32q30 -29 30 -69q0 -56 -75 -90.5t-75 -56.5t18.5 -45t29.5 -23q90 0 155 29q29 13 57 13q48 0 81 -31t33 -71q0 -65 -132 -106q-102 -32 -194 -32z" />
    <glyph glyph-name="Jcircumflex" unicode="&#x134;" horiz-adv-x="1362" 
d="M1197 1228q-18 0 -57 3.5t-63 3.5h-78q-1 17 -1 -71q0 -716 -101 -1043q-74 -241 -269 -241q-186 0 -368 128q-206 143 -206 336q0 156 141 156t141 -154q0 -59 101.5 -126.5t190.5 -67.5q36 0 52 133q4 32 22 311q15 228 15 568q0 14 -3 65l-23 -1q-44 -2 -118 1
q-89 4 -118 4q-59 0 -100 36q-44 39 -44 101q0 136 179 136q34 0 101 -2.5t100 -2.5q63 0 188.5 7t188.5 7q268 0 268 -149q0 -52 -36 -93q-41 -45 -103 -45zM1164 1636q-49 0 -91 35l-218 200q-243 -255 -330 -255q-53 0 -92 34.5t-39 80.5q0 45 43 81q53 45 302 290
q39 38 91 38q66 0 148 -60q29 -21 122 -106l160 -148q36 -35 36 -76q0 -46 -39.5 -80t-92.5 -34z" />
    <glyph glyph-name="jcircumflex" unicode="&#x135;" horiz-adv-x="826" 
d="M696 -197q0 -145 -91 -266q-101 -134 -251 -134q-242 0 -397 342q-15 33 -15 62q0 55 44 95q43 37 99 37q64 0 113 -69l73 -129q40 -69 83 -69q52 0 65 141q0 105 -34 554t-34 533q0 60 35 108q41 54 106 54q46 0 92 -31q50 -34 52 -78q12 -191 33 -555q27 -485 27 -595z
M906 1300q0 -46 -39.5 -80t-92.5 -34q-49 0 -91 35l-218 200q-243 -255 -330 -255q-53 0 -92 34.5t-39 80.5q0 45 43 81q53 45 302 290q39 38 91 38q66 0 148 -60q29 -21 122 -106l160 -148q36 -35 36 -76z" />
    <glyph glyph-name="Kcedilla" unicode="&#x136;" horiz-adv-x="1251" 
d="M395 443l-1 -421q0 -44 -25 -81q-35 -51 -102 -51q-79 0 -124 64q-35 50 -35 107q0 222 14 667t14 667q0 56 40 96t100 40t99.5 -40t39.5 -96q0 -90 -9 -243q-11 -178 -13 -243q70 66 519 556q46 50 106 50q57 0 99.5 -40t42.5 -97q0 -62 -238 -322q-176 -191 -371 -377
l219 -206q128 -118 230 -194q51 -37 110 -56q107 -34 107 -131q0 -43 -27 -83q-37 -54 -103 -54q-143 0 -371 187q-68 56 -321 301zM663 -465q-96 0 -187 40q-110 48 -110 124q0 82 108 82q39 0 90 -21.5t87 -21.5q29 1 43.5 12t14.5 33q0 26 -16 46q-17 20 -51 33l-126 42
q-67 30 -67 89q0 41 31.5 71.5t80.5 30.5q135 0 256 -91q128 -96 128 -216q0 -118 -73.5 -185.5t-208.5 -67.5z" />
    <glyph glyph-name="kcedilla" unicode="&#x137;" horiz-adv-x="1106" 
d="M943 -41q-79 0 -120 76q-49 91 -147 215l-161 205q-80 -59 -132 -90q-10 -139 -10 -266q0 -58 -39 -96t-99 -38q-141 0 -141 168q0 79 11.5 236.5t11.5 236.5q0 145 4.5 331.5t4.5 329.5q0 43 -4.5 101.5t-4.5 101.5q0 58 39 95.5t99 37.5t99 -37.5t39 -95.5
q0 -44 5 -104t5 -104q0 -119 -6 -282q-6 -156 -5 -278q136 105 414 382q44 44 100 44t99 -41t43 -95q0 -46 -39 -89q-118 -132 -281 -276l208 -268q151 -201 151 -268q0 -55 -44 -93.5t-100 -38.5zM619 -466q-96 0 -187 40q-110 48 -110 124q0 82 108 82q39 0 90 -21.5
t87 -21.5q29 1 43.5 12t14.5 33q0 26 -16 46q-17 20 -51 33l-126 42q-67 30 -67 89q0 41 31.5 71.5t80.5 30.5q135 0 256 -91q128 -96 128 -216q0 -118 -73.5 -185.5t-208.5 -67.5z" />
    <glyph glyph-name="kgreenlandic" unicode="&#x138;" horiz-adv-x="1106" 
d="M972 -41q-76 0 -120 74q-52 88 -149 210q-149 190 -159 204q-81 -59 -132 -89q-10 -134 -10 -261q0 -57 -39 -94.5t-99 -37.5q-141 0 -141 165q0 77 11.5 232.5t11.5 233.5v436q0 56 38.5 93.5t99.5 37.5t99.5 -37.5t38.5 -93.5q0 -42 -1 -126t-1 -125q0 -39 1 -91
q52 41 415 376q46 43 99 43q57 0 99.5 -40.5t42.5 -93.5q0 -84 -320 -359l208 -264q151 -199 151 -264q0 -54 -44.5 -91.5t-99.5 -37.5z" />
    <glyph glyph-name="Lcedilla" unicode="&#x13b;" horiz-adv-x="1128" 
d="M1042 38q-118 -52 -365 -93q-226 -38 -371 -38q-245 0 -245 215q0 -17 20 317q26 434 26 966q0 57 39.5 97t99.5 40t100 -40t40 -97q0 -533 -27 -982q-9 -80 -19 -245q237 4 608 116q23 7 44 7q63 0 102 -46q35 -41 35 -92q0 -86 -87 -125zM623 -445q-96 0 -187 40
q-110 48 -110 124q0 82 108 82q39 0 90 -21.5t87 -21.5q29 1 43.5 12t14.5 33q0 26 -16 46q-17 20 -51 33l-126 42q-67 30 -67 89q0 41 31.5 71.5t80.5 30.5q135 0 256 -91q128 -96 128 -216q0 -118 -73.5 -185.5t-208.5 -67.5z" />
    <glyph glyph-name="lcedilla" unicode="&#x13c;" horiz-adv-x="561" 
d="M410 147q0 -190 -138 -190q-60 0 -99 38t-39 98v1383q0 58 42 95q40 34 99 34t97 -35.5t38 -93.5v-1329zM383 -415q-96 0 -187 40q-110 48 -110 124q0 82 108 82q39 0 90 -21.5t87 -21.5q29 1 43.5 12t14.5 33q0 26 -16 46q-17 20 -51 33l-126 42q-67 30 -67 89
q0 41 31.5 71.5t80.5 30.5q135 0 256 -91q128 -96 128 -216q0 -118 -73.5 -185.5t-208.5 -67.5z" />
    <glyph glyph-name="Ncedilla" unicode="&#x145;" horiz-adv-x="1665" 
d="M1581 246q0 -50 -17 -158q-20 -129 -146 -129q-70 0 -158 79q-385 347 -869 973q-6 -260 -6 -319q0 -79 3.5 -238t3.5 -238q0 -295 -144 -295q-73 0 -117 45q-39 40 -39 97q0 40 6.5 121t6.5 121q0 59 4 177t4 177q0 63 -3 190t-3 190q0 60 -12 179t-12 179t51.5 107
t117.5 47q74 0 164 -128q454 -648 896 -1057q1 32 1 152q0 493 -10 665q-2 29 -13 108q-10 70 -10 110q0 138 146 138q163 0 163 -503q0 -11 -2 -158q-6 -508 -6 -632zM813 -445q-96 0 -187 40q-110 48 -110 124q0 82 108 82q39 0 90 -21.5t87 -21.5q29 1 43.5 12t14.5 33
q0 26 -16 46q-17 20 -51 33l-126 42q-67 30 -67 89q0 41 31.5 71.5t80.5 30.5q135 0 256 -91q128 -96 128 -216q0 -118 -73.5 -185.5t-208.5 -67.5z" />
    <glyph glyph-name="ncedilla" unicode="&#x146;" horiz-adv-x="1072" 
d="M890 -71q-123 0 -137 121l-28 207q-15 110 -15 207q0 26 3.5 89t3.5 89q0 7 2 35.5t2 46.5q0 83 -43 83q-92 0 -180.5 -107.5t-138.5 -272.5q-2 -33 -9 -88q-6 -45 -6 -88q0 -28 6.5 -84.5t6.5 -84.5q0 -57 -39.5 -94.5t-99.5 -37.5t-99 37.5t-39 94.5q0 28 -6 84.5
t-6 84.5q0 96 14 267t14 267q0 30 -3.5 89.5t-3.5 88.5q0 56 40.5 92.5t99.5 36.5q131 0 140 -157l1 -11q146 147 308 147q189 0 261 -158q48 -106 48 -317v-71q-1 -46 -1 -65q0 -78 21.5 -201t21.5 -200q0 -56 -40 -93t-99 -37zM573 -545q-96 0 -187 40q-110 48 -110 124
q0 82 108 82q39 0 90 -21.5t87 -21.5q29 1 43.5 12t14.5 33q0 26 -16 46q-17 20 -51 33l-126 42q-67 30 -67 89q0 41 31.5 71.5t80.5 30.5q135 0 256 -91q128 -96 128 -216q0 -118 -73.5 -185.5t-208.5 -67.5z" />
    <glyph glyph-name="Eng" unicode="&#x14a;" horiz-adv-x="1665" 
d="M1579 202q-3 -737 -678 -737q-59 0 -93 39q-32 35 -32 85q0 51 32 86q34 39 93 39q189 0 285 67t126 217q-29 19 -52 40q-385 347 -869 973q-6 -260 -6 -319q0 -79 3.5 -238t3.5 -238q0 -295 -144 -295q-73 0 -117 45q-39 40 -39 97q0 40 6.5 121t6.5 121q0 59 4 177
t4 177q0 63 -3 190t-3 190q0 60 -12 179t-12 179t51.5 107t117.5 47q74 0 164 -128q454 -648 896 -1057q1 32 1 152q0 493 -10 665q-2 29 -13 108q-10 70 -10 110q0 138 146 138q163 0 163 -503q0 -11 -2 -158q-6 -508 -6 -632q0 -8 -1 -22.5t-1 -21.5z" />
    <glyph glyph-name="eng" unicode="&#x14b;" horiz-adv-x="1072" 
d="M717 642q0 14 2 41t2 41q0 83 -43 83q-103 0 -207 -143q-91 -123 -112 -237q-15 -80 -15 -176q0 -28 6.5 -84.5t6.5 -84.5q0 -58 -40 -95t-99 -37t-98.5 37t-39.5 95q0 28 -6 84.5t-6 84.5q0 89 14 267t14 267q0 30 -3.5 89t-3.5 89q0 57 41 93t99 36q127 0 141 -168
q146 147 308 147q222 0 282 -216q26 -93 26 -395q0 -72 22 -213t22 -212q0 -214 -93 -339q-105 -140 -310 -140q-189 0 -189 135q0 54 35 89.5t90 35.5q11 0 32.5 -5.5t31.5 -5.5q146 0 146 219q0 104 -28 309.5t-28 308.5z" />
    <glyph glyph-name="Omacron" unicode="&#x14c;" horiz-adv-x="1635" 
d="M786 -61q-296 0 -504 170q-222 182 -222 471q0 340 213 620q239 315 602 315q349 0 523 -160t174 -481q0 -340 -196 -616q-226 -319 -590 -319zM875 1244q-223 0 -382 -216q-149 -202 -149 -448q0 -166 129 -270q124 -100 313 -100q220 0 367 216q135 197 135 448
q0 210 -94 292q-90 78 -319 78zM1279 1600q-29 -4 -70 -4h-210q-48 0 -144.5 2t-144.5 2q-61 0 -105 31q-47 34 -47 86q0 117 215 117q40 0 118.5 -3t118.5 -3t121.5 1.5t121.5 1.5q60 0 105 -26q53 -32 53 -90q0 -97 -132 -115z" />
    <glyph glyph-name="omacron" unicode="&#x14d;" horiz-adv-x="1077" 
d="M514 -59q-185 0 -318 127q-146 139 -153 371q-7 221 121 394q152 204 423 204q200 0 318 -160q106 -144 106 -357q0 -232 -124 -396q-139 -183 -373 -183zM574 773q-123 1 -194 -112q-60 -95 -60 -222q0 -120 68 -184q54 -51 126 -51q87 0 151 59q73 69 78 187
q13 322 -169 323zM849 1150q-29 -4 -70 -4h-210q-48 0 -144.5 2t-144.5 2q-61 0 -105 31q-47 34 -47 86q0 117 215 117q40 0 118.5 -3t118.5 -3t121.5 1.5t121.5 1.5q60 0 105 -26q53 -32 53 -90q0 -97 -132 -115z" />
    <glyph glyph-name="Obreve" unicode="&#x14e;" horiz-adv-x="1635" 
d="M786 -61q-296 0 -504 170q-222 182 -222 471q0 340 213 620q239 315 602 315q349 0 523 -160t174 -481q0 -340 -196 -616q-226 -319 -590 -319zM875 1244q-223 0 -382 -216q-149 -202 -149 -448q0 -166 129 -270q124 -100 313 -100q220 0 367 216q135 197 135 448
q0 210 -94 292q-90 78 -319 78zM1479 1899q-14 -148 -200 -218q-136 -52 -323 -52q-157 0 -275 89q-124 92 -124 225q0 41 32.5 68.5t81.5 27.5t82 -27.5t33 -68.5q0 -49 52 -85q52 -37 118 -37q262 0 297 109q25 78 111 78q56 0 88 -31t27 -78z" />
    <glyph glyph-name="obreve" unicode="&#x14f;" horiz-adv-x="1077" 
d="M514 -59q-185 0 -318 127q-146 139 -153 371q-7 221 121 394q152 204 423 204q200 0 318 -160q106 -144 106 -357q0 -232 -124 -396q-139 -183 -373 -183zM574 773q-123 1 -194 -112q-60 -95 -60 -222q0 -120 68 -184q54 -51 126 -51q87 0 151 59q73 69 78 187
q13 322 -169 323zM1075 1449q-14 -148 -200 -218q-136 -52 -323 -52q-157 0 -275 89q-124 92 -124 225q0 41 32.5 68.5t81.5 27.5t82 -27.5t33 -68.5q0 -49 52 -85q52 -37 118 -37q262 0 297 109q25 78 111 78q56 0 88 -31t27 -78z" />
    <glyph glyph-name="Rcedilla" unicode="&#x156;" horiz-adv-x="1311" 
d="M1126 -12q-54 0 -99 42q-303 284 -666 394q11 -291 11 -323q0 -57 -40 -96.5t-100 -39.5t-100 39.5t-40 96.5q0 75 2 224.5t2 224.5l2 807q0 65 39 118q51 68 141 61q243 -18 249 -19q140 -17 238 -67q427 -215 427 -533q0 -131 -89.5 -231.5t-268.5 -169.5
q265 -148 399 -302q35 -40 35 -89q0 -56 -42 -96.5t-100 -40.5zM485 1246q-8 1 -117 8v-531q25 -1 44 -1q245 0 363 61q51 26 93.5 69t42.5 65q0 112 -142 216q-135 98 -284 113zM693 -445q-96 0 -187 40q-110 48 -110 124q0 82 108 82q39 0 90 -21.5t87 -21.5q29 1 43.5 12
t14.5 33q0 26 -16 46q-17 20 -51 33l-126 42q-67 30 -67 89q0 41 31.5 71.5t80.5 30.5q135 0 256 -91q128 -96 128 -216q0 -118 -73.5 -185.5t-208.5 -67.5z" />
    <glyph glyph-name="rcedilla" unicode="&#x157;" horiz-adv-x="984" 
d="M940 721q-9 -153 -139 -153q-126 0 -126 130l-5 101q-225 -36 -322 -231l1 -503q0 -57 -39 -94.5t-99 -37.5q-62 0 -96 40q-32 36 -32 92v655q0 31 2 92.5t2 92.5q0 56 33.5 93.5t95.5 37.5q111 0 132 -114q177 132 393 132q200 0 200 -266q0 -51 -1 -67zM323 -445
q-96 0 -187 40q-110 48 -110 124q0 82 108 82q39 0 90 -21.5t87 -21.5q29 1 43.5 12t14.5 33q0 26 -16 46q-17 20 -51 33l-126 42q-67 30 -67 89q0 41 31.5 71.5t80.5 30.5q135 0 256 -91q128 -96 128 -216q0 -118 -73.5 -185.5t-208.5 -67.5z" />
    <glyph glyph-name="Scircumflex" unicode="&#x15c;" horiz-adv-x="1420" 
d="M571 -61q-254 0 -400 113q-123 94 -123 217q0 63 38 104.5t105 41.5q90 0 132 -92q57 -123 258 -123q172 0 333 75q167 77 167 169q0 126 -104 166q-74 29 -297 34q-173 4 -310 65q-185 83 -182 238q3 195 208 357.5t452 162.5q98 0 242 -45q179 -56 179 -129
q0 -52 -36 -92q-40 -45 -103 -45q-47 0 -140.5 20t-141.5 20q-129 -1 -245 -62q-120 -62 -120 -135q0 -38 36.5 -62.5t109.5 -34.5l255 -14q222 -17 351 -125q142 -120 142 -332q0 -258 -294 -391q-224 -101 -512 -101zM1094 1636q-49 0 -91 35l-218 200
q-243 -255 -330 -255q-53 0 -92 34.5t-39 80.5q0 45 43 81q53 45 302 290q39 38 91 38q66 0 148 -60q29 -21 122 -106l160 -148q36 -35 36 -76q0 -46 -39.5 -80t-92.5 -34z" />
    <glyph glyph-name="scircumflex" unicode="&#x15d;" horiz-adv-x="997" 
d="M806 732q-99 0 -119 83q-40 7 -82 7q-241 0 -241 -66q0 -39 145 -105q198 -91 268 -142q145 -105 145 -237q0 -172 -160 -261q-129 -71 -317 -71q-133 0 -243 41q-150 56 -150 165q0 100 119 100q46 0 133 -29t134 -29q203 0 204 82q0 51 -141 113q-206 91 -264 131
q-141 99 -141 241q0 201 213 271q125 41 380 41q100 0 148 -26q66 -35 66 -129q0 -180 -97 -180zM794 1186q-49 0 -91 35l-218 200q-243 -255 -330 -255q-53 0 -92 34.5t-39 80.5q0 45 43 81q53 45 302 290q39 38 91 38q66 0 148 -60q29 -21 122 -106l160 -148
q36 -35 36 -76q0 -46 -39.5 -80t-92.5 -34z" />
    <glyph glyph-name="Tbar" unicode="&#x166;" horiz-adv-x="1425" 
d="M1437 1335q0 -57 -40.5 -96.5t-100.5 -39.5q-78 0 -243 11q-159 11 -243 10q4 -119 22 -340q142 11 207 11q198 0 198 -108q0 -78 -75 -96q-22 -5 -135 -5q-63 0 -179 -10q10 -151 10 -266q0 -34 7 -101t7 -101q0 -75 -32 -135q-41 -77 -117 -77q-55 0 -97 35
q-47 39 -47 98q0 14 5 42.5t5 43.5q0 46 -6.5 139t-6.5 140q0 78 -6 172q-32 1 -52 1h-186q-51 0 -86 26q-39 29 -39 79q0 49 39 78q35 26 86 26h191h30q-11 115 -26 344h-52q-223 0 -354 32q-111 27 -111 131q0 51 36 92q42 49 110 44q35 -2 159 -17q99 -11 160 -11
t182.5 2t182.5 2q76 0 228 -10.5t228 -10.5q60 0 100.5 -39t40.5 -96z" />
    <glyph glyph-name="tbar" unicode="&#x167;" horiz-adv-x="965" 
d="M349 551l-11 243q-170 10 -197 17q-116 29 -116 129q0 58 39 96t97 38q37 0 170 -12q-1 27 -5 102q-4 65 -4 103q0 57 41.5 93.5t98.5 36.5q148 0 148 -250q0 -11 -2 -81q61 9 124 9q101 0 145 -19q69 -30 69 -118q0 -96 -81 -120q-32 -10 -156 -10q-41 0 -95 -8l12 -264
q22 2 79 11q51 9 79 9q46 0 80.5 -27t34.5 -72q0 -72 -103 -100q-51 -14 -164 -21q0 -16 1 -85q1 -52 1 -85q0 -230 -145 -230q-55 0 -97 35t-42 89q0 34 3 108q3 71 3 108l-1 73q-86 10 -172 19q-109 26 -109 101q0 46 37 73q34 26 81 26q19 0 157 -17z" />
    <glyph glyph-name="Utilde" unicode="&#x168;" horiz-adv-x="1509" 
d="M1154 173q-73 -99 -176 -165q-126 -80 -259 -80q-255 0 -379 98q-262 207 -262 719q0 49 5 146t5 146q0 39 2 116.5t2 116.5q0 80 29 151q39 94 109 94q55 0 97 -36q46 -38 46 -98q0 -57 -1.5 -172.5t-1.5 -173.5q0 -48 -5 -145t-5 -145q0 -155 36 -288q42 -159 123 -222
q42 -33 200 -35q264 -4 356 450q48 235 48 660q0 56 33 108q45 69 128 69q68 0 102 -50q26 -37 26 -82q0 -395 -37 -616q-56 -341 -221 -566zM1182 1690q-67 -57 -171 -57q-117 0 -188 32q-66 30 -130 107q-36 43 -69 43q-55 0 -97 -72.5t-110 -72.5q-46 0 -80 25
q-37 27 -37 67q0 13 5 28q31 93 114 152q88 62 205 62q100 0 161 -38q36 -22 106 -100q40 -44 89 -44q41 0 63 28l33 57q5 16 19 47q24 43 96 43q49 0 82 -27t33 -67q0 -37 -47 -114q-44 -71 -77 -99z" />
    <glyph glyph-name="utilde" unicode="&#x169;" horiz-adv-x="1065" 
d="M978 578q0 -67 1 -202t1 -202q0 -21 3.5 -62.5t3.5 -62.5q0 -56 -40.5 -92.5t-99.5 -36.5q-83 0 -121 75q-128 -47 -265 -47q-142 0 -239 60q-109 69 -130 201q-39 250 -39 447q0 130 30 297q20 113 135 113q58 0 99 -36.5t41 -92.5q0 -44 -14.5 -138t-14.5 -143
q0 -141 9.5 -246.5t28.5 -174.5q25 -11 48.5 -17t45.5 -6q111 0 244 32q0 77 -1 175q-2 117 -2 168q0 205 19 354q15 119 136 119q59 0 101 -37t39 -93q-19 -381 -19 -352zM932 1240q-67 -57 -171 -57q-117 0 -188 32q-66 30 -130 107q-36 43 -69 43q-55 0 -97 -72.5
t-110 -72.5q-46 0 -80 25q-37 27 -37 67q0 13 5 28q31 93 114 152q88 62 205 62q100 0 161 -38q36 -22 106 -100q40 -44 89 -44q41 0 63 28l33 57q5 16 19 47q24 43 96 43q49 0 82 -27t33 -67q0 -37 -47 -114q-44 -71 -77 -99z" />
    <glyph glyph-name="Umacron" unicode="&#x16a;" horiz-adv-x="1509" 
d="M1154 173q-73 -99 -176 -165q-126 -80 -259 -80q-255 0 -379 98q-262 207 -262 719q0 49 5 146t5 146q0 39 2 116.5t2 116.5q0 80 29 151q39 94 109 94q55 0 97 -36q46 -38 46 -98q0 -57 -1.5 -172.5t-1.5 -173.5q0 -48 -5 -145t-5 -145q0 -155 36 -288q42 -159 123 -222
q42 -33 200 -35q264 -4 356 450q48 235 48 660q0 56 33 108q45 69 128 69q68 0 102 -50q26 -37 26 -82q0 -395 -37 -616q-56 -341 -221 -566zM1089 1600q-29 -4 -70 -4h-210q-48 0 -144.5 2t-144.5 2q-61 0 -105 31q-47 34 -47 86q0 117 215 117q40 0 118.5 -3t118.5 -3
t121.5 1.5t121.5 1.5q60 0 105 -26q53 -32 53 -90q0 -97 -132 -115z" />
    <glyph glyph-name="umacron" unicode="&#x16b;" horiz-adv-x="1065" 
d="M978 578q0 -67 1 -202t1 -202q0 -21 3.5 -62.5t3.5 -62.5q0 -56 -40.5 -92.5t-99.5 -36.5q-83 0 -121 75q-128 -47 -265 -47q-142 0 -239 60q-109 69 -130 201q-39 250 -39 447q0 130 30 297q20 113 135 113q58 0 99 -36.5t41 -92.5q0 -44 -14.5 -138t-14.5 -143
q0 -141 9.5 -246.5t28.5 -174.5q25 -11 48.5 -17t45.5 -6q111 0 244 32q0 77 -1 175q-2 117 -2 168q0 205 19 354q15 119 136 119q59 0 101 -37t39 -93q-19 -381 -19 -352zM874 1150q-29 -4 -70 -4h-210q-48 0 -144.5 2t-144.5 2q-61 0 -105 31q-47 34 -47 86q0 117 215 117
q40 0 118.5 -3t118.5 -3t121.5 1.5t121.5 1.5q60 0 105 -26q53 -32 53 -90q0 -97 -132 -115z" />
    <glyph glyph-name="Ubreve" unicode="&#x16c;" horiz-adv-x="1509" 
d="M1154 173q-73 -99 -176 -165q-126 -80 -259 -80q-255 0 -379 98q-262 207 -262 719q0 49 5 146t5 146q0 39 2 116.5t2 116.5q0 80 29 151q39 94 109 94q55 0 97 -36q46 -38 46 -98q0 -57 -1.5 -172.5t-1.5 -173.5q0 -48 -5 -145t-5 -145q0 -155 36 -288q42 -159 123 -222
q42 -33 200 -35q264 -4 356 450q48 235 48 660q0 56 33 108q45 69 128 69q68 0 102 -50q26 -37 26 -82q0 -395 -37 -616q-56 -341 -221 -566zM1255 1899q-14 -148 -200 -218q-136 -52 -323 -52q-157 0 -275 89q-124 92 -124 225q0 41 32.5 68.5t81.5 27.5t82 -27.5t33 -68.5
q0 -49 52 -85q52 -37 118 -37q262 0 297 109q25 78 111 78q56 0 88 -31t27 -78z" />
    <glyph glyph-name="ubreve" unicode="&#x16d;" horiz-adv-x="1065" 
d="M978 578q0 -67 1 -202t1 -202q0 -21 3.5 -62.5t3.5 -62.5q0 -56 -40.5 -92.5t-99.5 -36.5q-83 0 -121 75q-128 -47 -265 -47q-142 0 -239 60q-109 69 -130 201q-39 250 -39 447q0 130 30 297q20 113 135 113q58 0 99 -36.5t41 -92.5q0 -44 -14.5 -138t-14.5 -143
q0 -141 9.5 -246.5t28.5 -174.5q25 -11 48.5 -17t45.5 -6q111 0 244 32q0 77 -1 175q-2 117 -2 168q0 205 19 354q15 119 136 119q59 0 101 -37t39 -93q-19 -381 -19 -352zM1015 1449q-14 -148 -200 -218q-136 -52 -323 -52q-157 0 -275 89q-124 92 -124 225q0 41 32.5 68.5
t81.5 27.5t82 -27.5t33 -68.5q0 -49 52 -85q52 -37 118 -37q262 0 297 109q25 78 111 78q56 0 88 -31t27 -78z" />
    <glyph glyph-name="Uogonek" unicode="&#x172;" horiz-adv-x="1509" 
d="M1154 173q-73 -99 -176 -165q-126 -80 -259 -80q-255 0 -379 98q-262 207 -262 719q0 49 5 146t5 146q0 39 2 116.5t2 116.5q0 80 29 151q39 94 109 94q55 0 97 -36q46 -38 46 -98q0 -57 -1.5 -172.5t-1.5 -173.5q0 -48 -5 -145t-5 -145q0 -155 36 -288q42 -159 123 -222
q42 -33 200 -35q264 -4 356 450q48 235 48 660q0 56 33 108q45 69 128 69q68 0 102 -50q26 -37 26 -82q0 -395 -37 -616q-56 -341 -221 -566zM835 -424q-117 0 -200 87q-77 81 -77 179q0 84 82 164q86 84 185 84q49 0 82 -32q30 -29 30 -69q0 -56 -75 -90.5t-75 -56.5
t18.5 -45t29.5 -23q90 0 155 29q29 13 57 13q48 0 81 -31t33 -71q0 -65 -132 -106q-102 -32 -194 -32z" />
    </font>
</defs>
</svg>
